<svg xmlns="http://www.w3.org/2000/svg" version="1.1" viewBox="0 0 52 56">
<g stroke-width="2.00" fill="none" stroke-linecap="butt">
<path stroke="#808080" vector-effect="non-scaling-stroke" d="   M 48.73 28.39   A 21.66 21.66 0.0 0 0 27.07 6.73   A 21.66 21.66 0.0 0 0 5.41 28.39   A 21.66 21.66 0.0 0 0 27.07 50.05   A 21.66 21.66 0.0 0 0 48.73 28.39"/>
<path stroke="#808080" vector-effect="non-scaling-stroke" d="   M 46.48 28.41   A 19.41 19.41 0.0 0 0 27.07 9.00   A 19.41 19.41 0.0 0 0 7.66 28.41   A 19.41 19.41 0.0 0 0 27.07 47.82   A 19.41 19.41 0.0 0 0 46.48 28.41"/>
<path stroke="#808080" vector-effect="non-scaling-stroke" d="   M 23.17 25.25   L 20.38 25.25   Q 19.50 25.25 19.50 26.12   L 19.50 29.45   Q 19.50 30.39 20.45 30.36   L 23.03 30.29   Q 23.80 30.26 23.80 31.03   L 23.79 41.25   Q 23.79 41.96 24.50 41.96   L 28.30 41.98   Q 29.08 41.99 29.08 41.20   L 29.03 30.74   Q 29.03 30.25 29.51 30.25   L 31.98 30.26   Q 32.98 30.26 33.14 29.27   L 33.69 26.01   Q 33.82 25.21 33.01 25.22   L 29.99 25.24   A 0.96 0.96 0.0 0 1 29.02 24.24   L 29.13 21.37   Q 29.18 20.08 30.44 19.81   Q 31.97 19.48 33.65 19.71   Q 34.24 19.79 34.24 19.20   L 34.24 15.45   A 0.59 0.59 0.0 0 0 33.70 14.86   Q 30.23 14.54 27.92 15.25   C 23.63 16.58 23.68 20.66 23.81 24.59   Q 23.84 25.25 23.17 25.25"/>
</g>
<path fill="#ffffff" d="   M 0.00 0.00   L 52.00 0.00   L 52.00 56.00   L 0.00 56.00   L 0.00 0.00   Z   M 48.73 28.39   A 21.66 21.66 0.0 0 0 27.07 6.73   A 21.66 21.66 0.0 0 0 5.41 28.39   A 21.66 21.66 0.0 0 0 27.07 50.05   A 21.66 21.66 0.0 0 0 48.73 28.39   Z"/>
<path fill="#000000" d="   M 48.73 28.39   A 21.66 21.66 0.0 0 1 27.07 50.05   A 21.66 21.66 0.0 0 1 5.41 28.39   A 21.66 21.66 0.0 0 1 27.07 6.73   A 21.66 21.66 0.0 0 1 48.73 28.39   Z   M 46.48 28.41   A 19.41 19.41 0.0 0 0 27.07 9.00   A 19.41 19.41 0.0 0 0 7.66 28.41   A 19.41 19.41 0.0 0 0 27.07 47.82   A 19.41 19.41 0.0 0 0 46.48 28.41   Z"/>
<path fill="#ffffff" d="   M 46.48 28.41   A 19.41 19.41 0.0 0 1 27.07 47.82   A 19.41 19.41 0.0 0 1 7.66 28.41   A 19.41 19.41 0.0 0 1 27.07 9.00   A 19.41 19.41 0.0 0 1 46.48 28.41   Z   M 23.17 25.25   L 20.38 25.25   Q 19.50 25.25 19.50 26.12   L 19.50 29.45   Q 19.50 30.39 20.45 30.36   L 23.03 30.29   Q 23.80 30.26 23.80 31.03   L 23.79 41.25   Q 23.79 41.96 24.50 41.96   L 28.30 41.98   Q 29.08 41.99 29.08 41.20   L 29.03 30.74   Q 29.03 30.25 29.51 30.25   L 31.98 30.26   Q 32.98 30.26 33.14 29.27   L 33.69 26.01   Q 33.82 25.21 33.01 25.22   L 29.99 25.24   A 0.96 0.96 0.0 0 1 29.02 24.24   L 29.13 21.37   Q 29.18 20.08 30.44 19.81   Q 31.97 19.48 33.65 19.71   Q 34.24 19.79 34.24 19.20   L 34.24 15.45   A 0.59 0.59 0.0 0 0 33.70 14.86   Q 30.23 14.54 27.92 15.25   C 23.63 16.58 23.68 20.66 23.81 24.59   Q 23.84 25.25 23.17 25.25   Z"/>
<path fill="#000000" d="   M 23.81 24.59   C 23.68 20.66 23.63 16.58 27.92 15.25   Q 30.23 14.54 33.70 14.86   A 0.59 0.59 0.0 0 1 34.24 15.45   L 34.24 19.20   Q 34.24 19.79 33.65 19.71   Q 31.97 19.48 30.44 19.81   Q 29.18 20.08 29.13 21.37   L 29.02 24.24   A 0.96 0.96 0.0 0 0 29.99 25.24   L 33.01 25.22   Q 33.82 25.21 33.69 26.01   L 33.14 29.27   Q 32.98 30.26 31.98 30.26   L 29.51 30.25   Q 29.03 30.25 29.03 30.74   L 29.08 41.20   Q 29.08 41.99 28.30 41.98   L 24.50 41.96   Q 23.79 41.96 23.79 41.25   L 23.80 31.03   Q 23.80 30.26 23.03 30.29   L 20.45 30.36   Q 19.50 30.39 19.50 29.45   L 19.50 26.12   Q 19.50 25.25 20.38 25.25   L 23.17 25.25   Q 23.84 25.25 23.81 24.59   Z"/>
</svg>