<?xml version="1.0" encoding="utf-8"?>
<!-- Generator: Adobe Illustrator 28.3.0, SVG Export Plug-In . SVG Version: 6.00 Build 0)  -->
<svg version="1.1" id="Vrstva_1" xmlns="http://www.w3.org/2000/svg" xmlns:xlink="http://www.w3.org/1999/xlink" x="0px" y="0px"
	 viewBox="0 0 52 56" style="enable-background:new 0 0 52 56;" xml:space="preserve">
<g>
	<path d="M26,53.4c14.1,0,25.4-11.4,25.4-25.4C51.4,13.9,40.1,2.6,26,2.6C11.9,2.6,0.6,13.9,0.6,28C0.6,42.1,11.9,53.4,26,53.4z
		 M26,5.2c12.6,0,22.8,10.2,22.8,22.8S38.6,50.8,26,50.8S3.2,40.6,3.2,28S13.4,5.2,26,5.2z"/>
	<path d="M18.2,30.3l3-0.1c0.6,0,0.9,0.3,0.9,0.9l0,12c0,0.6,0.3,0.8,0.8,0.8l4.5,0c0.6,0,0.9-0.3,0.9-0.9l-0.1-12.3
		c0-0.4,0.2-0.6,0.6-0.6l2.9,0c0.8,0,1.2-0.4,1.4-1.2l0.6-3.8c0.1-0.6-0.2-0.9-0.8-0.9l-3.5,0c0,0,0,0-0.1,0c-0.6,0-1.1-0.6-1.1-1.2
		l0.1-3.4c0-1,0.6-1.6,1.5-1.8c1.2-0.3,2.5-0.3,3.8-0.1c0.5,0.1,0.7-0.1,0.7-0.6v-4.4c0-0.4-0.3-0.7-0.6-0.7c-2.7-0.3-5-0.1-6.8,0.5
		c-5,1.6-5,6.4-4.8,11c0,0.5-0.2,0.8-0.8,0.8h-3.3c-0.7,0-1,0.3-1,1v3.9C17.1,30,17.5,30.3,18.2,30.3z"/>
</g>
</svg>
