<?xml version="1.0" encoding="utf-8"?>
<!-- Generator: Adobe Illustrator 28.3.0, SVG Export Plug-In . SVG Version: 6.00 Build 0)  -->
<svg version="1.1" id="Vrstva_1" xmlns="http://www.w3.org/2000/svg" xmlns:xlink="http://www.w3.org/1999/xlink" x="0px" y="0px"
	 viewBox="0 0 52 56" style="enable-background:new 0 0 52 56;" xml:space="preserve">
<g>
	<path d="M26,52.6c13.6,0,24.6-11,24.6-24.6c0-13.6-11-24.6-24.6-24.6C12.4,3.4,1.4,14.4,1.4,28C1.4,41.6,12.4,52.6,26,52.6z M26,6
		c12.2,0,22,9.9,22,22s-9.9,22-22,22S4,40.2,4,28S13.8,6,26,6z"/>
	<path d="M18.5,43.1h14.6c4.3,0,7.8-3.5,7.8-7.8V20.7c0-4.3-3.5-7.8-7.8-7.8H18.5c-4.3,0-7.8,3.5-7.8,7.8v14.6
		C10.7,39.6,14.2,43.1,18.5,43.1z M18.6,15.6l14.4,0c3,0,5.4,2.4,5.4,5.4l0,14.2c0,3-2.4,5.4-5.4,5.4l-14.4,0c-3,0-5.4-2.4-5.4-5.4
		l0-14.2C13.2,18,15.6,15.6,18.6,15.6z"/>
	<path d="M33.7,21.7c1,0,1.8-0.8,1.8-1.8c0-1-0.8-1.8-1.8-1.8c-1,0-1.8,0.8-1.8,1.8C31.9,20.9,32.7,21.7,33.7,21.7z"/>
	<path d="M25.8,35.8c4.3,0,7.8-3.5,7.8-7.8s-3.5-7.8-7.8-7.8c-4.3,0-7.8,3.5-7.8,7.8S21.5,35.8,25.8,35.8z M25.8,22.8
		c2.8,0,5.1,2.3,5.1,5.1s-2.3,5.1-5.1,5.1c-2.8,0-5.1-2.3-5.1-5.1S22.9,22.8,25.8,22.8z"/>
</g>
</svg>
