<svg xmlns="http://www.w3.org/2000/svg" version="1.1" viewBox="0 0 52 56">
<g stroke-width="2.00" fill="none" stroke-linecap="butt">
<path stroke="#808080" vector-effect="non-scaling-stroke" d="   M 48.03 28.39   A 21.66 21.66 0.0 0 0 26.37 6.73   A 21.66 21.66 0.0 0 0 4.71 28.39   A 21.66 21.66 0.0 0 0 26.37 50.05   A 21.66 21.66 0.0 0 0 48.03 28.39"/>
<path stroke="#808080" vector-effect="non-scaling-stroke" d="   M 45.78 28.41   A 19.41 19.41 0.0 0 0 26.37 9.00   A 19.41 19.41 0.0 0 0 6.96 28.41   A 19.41 19.41 0.0 0 0 26.37 47.82   A 19.41 19.41 0.0 0 0 45.78 28.41"/>
<path stroke="#808080" vector-effect="non-scaling-stroke" d="   M 39.47 21.95   A 6.87 6.87 0.0 0 0 32.60 15.08   L 19.74 15.08   A 6.87 6.87 0.0 0 0 12.87 21.95   L 12.87 34.81   A 6.87 6.87 0.0 0 0 19.74 41.68   L 32.60 41.68   A 6.87 6.87 0.0 0 0 39.47 34.81   L 39.47 21.95"/>
<path stroke="#808080" vector-effect="non-scaling-stroke" d="   M 37.2190 22.1507   A 4.73 4.73 0.0 0 0 32.4808 17.4290   L 19.8208 17.4511   A 4.73 4.73 0.0 0 0 15.0991 22.1893   L 15.1210 34.7293   A 4.73 4.73 0.0 0 0 19.8592 39.4510   L 32.5192 39.4289   A 4.73 4.73 0.0 0 0 37.2409 34.6907   L 37.2190 22.1507"/>
<path stroke="#808080" vector-effect="non-scaling-stroke" d="   M 34.76 21.26   A 1.59 1.59 0.0 0 0 33.17 19.67   A 1.59 1.59 0.0 0 0 31.58 21.26   A 1.59 1.59 0.0 0 0 33.17 22.85   A 1.59 1.59 0.0 0 0 34.76 21.26"/>
<path stroke="#808080" vector-effect="non-scaling-stroke" d="   M 33.00 28.43   A 6.85 6.85 0.0 0 0 26.15 21.58   A 6.85 6.85 0.0 0 0 19.30 28.43   A 6.85 6.85 0.0 0 0 26.15 35.28   A 6.85 6.85 0.0 0 0 33.00 28.43"/>
<path stroke="#808080" vector-effect="non-scaling-stroke" d="   M 30.70 28.38   A 4.53 4.53 0.0 0 0 26.17 23.85   A 4.53 4.53 0.0 0 0 21.64 28.38   A 4.53 4.53 0.0 0 0 26.17 32.91   A 4.53 4.53 0.0 0 0 30.70 28.38"/>
</g>
<path fill="#ffffff" d="   M 0.00 0.00   L 52.00 0.00   L 52.00 56.00   L 0.00 56.00   L 0.00 0.00   Z   M 48.03 28.39   A 21.66 21.66 0.0 0 0 26.37 6.73   A 21.66 21.66 0.0 0 0 4.71 28.39   A 21.66 21.66 0.0 0 0 26.37 50.05   A 21.66 21.66 0.0 0 0 48.03 28.39   Z"/>
<path fill="#000000" d="   M 48.03 28.39   A 21.66 21.66 0.0 0 1 26.37 50.05   A 21.66 21.66 0.0 0 1 4.71 28.39   A 21.66 21.66 0.0 0 1 26.37 6.73   A 21.66 21.66 0.0 0 1 48.03 28.39   Z   M 45.78 28.41   A 19.41 19.41 0.0 0 0 26.37 9.00   A 19.41 19.41 0.0 0 0 6.96 28.41   A 19.41 19.41 0.0 0 0 26.37 47.82   A 19.41 19.41 0.0 0 0 45.78 28.41   Z"/>
<path fill="#ffffff" d="   M 45.78 28.41   A 19.41 19.41 0.0 0 1 26.37 47.82   A 19.41 19.41 0.0 0 1 6.96 28.41   A 19.41 19.41 0.0 0 1 26.37 9.00   A 19.41 19.41 0.0 0 1 45.78 28.41   Z   M 39.47 21.95   A 6.87 6.87 0.0 0 0 32.60 15.08   L 19.74 15.08   A 6.87 6.87 0.0 0 0 12.87 21.95   L 12.87 34.81   A 6.87 6.87 0.0 0 0 19.74 41.68   L 32.60 41.68   A 6.87 6.87 0.0 0 0 39.47 34.81   L 39.47 21.95   Z"/>
<path fill="#000000" d="   M 39.47 34.81   A 6.87 6.87 0.0 0 1 32.60 41.68   L 19.74 41.68   A 6.87 6.87 0.0 0 1 12.87 34.81   L 12.87 21.95   A 6.87 6.87 0.0 0 1 19.74 15.08   L 32.60 15.08   A 6.87 6.87 0.0 0 1 39.47 21.95   L 39.47 34.81   Z   M 37.2190 22.1507   A 4.73 4.73 0.0 0 0 32.4808 17.4290   L 19.8208 17.4511   A 4.73 4.73 0.0 0 0 15.0991 22.1893   L 15.1210 34.7293   A 4.73 4.73 0.0 0 0 19.8592 39.4510   L 32.5192 39.4289   A 4.73 4.73 0.0 0 0 37.2409 34.6907   L 37.2190 22.1507   Z"/>
<path fill="#ffffff" d="   M 37.2409 34.6907   A 4.73 4.73 0.0 0 1 32.5192 39.4289   L 19.8592 39.4510   A 4.73 4.73 0.0 0 1 15.1210 34.7293   L 15.0991 22.1893   A 4.73 4.73 0.0 0 1 19.8208 17.4511   L 32.4808 17.4290   A 4.73 4.73 0.0 0 1 37.2190 22.1507   L 37.2409 34.6907   Z   M 34.76 21.26   A 1.59 1.59 0.0 0 0 33.17 19.67   A 1.59 1.59 0.0 0 0 31.58 21.26   A 1.59 1.59 0.0 0 0 33.17 22.85   A 1.59 1.59 0.0 0 0 34.76 21.26   Z   M 33.00 28.43   A 6.85 6.85 0.0 0 0 26.15 21.58   A 6.85 6.85 0.0 0 0 19.30 28.43   A 6.85 6.85 0.0 0 0 26.15 35.28   A 6.85 6.85 0.0 0 0 33.00 28.43   Z"/>
<g>
<circle fill="#000000" cx="33.17" cy="21.26" r="1.59"/>
<path fill="#000000" d="   M 33.00 28.43   A 6.85 6.85 0.0 0 1 26.15 35.28   A 6.85 6.85 0.0 0 1 19.30 28.43   A 6.85 6.85 0.0 0 1 26.15 21.58   A 6.85 6.85 0.0 0 1 33.00 28.43   Z   M 30.70 28.38   A 4.53 4.53 0.0 0 0 26.17 23.85   A 4.53 4.53 0.0 0 0 21.64 28.38   A 4.53 4.53 0.0 0 0 26.17 32.91   A 4.53 4.53 0.0 0 0 30.70 28.38   Z"/>
</g>
<circle fill="#ffffff" cx="26.17" cy="28.38" r="4.53"/>
</svg>