<?xml version="1.0" encoding="utf-8"?>
<!-- Generator: Adobe Illustrator 28.3.0, SVG Export Plug-In . SVG Version: 6.00 Build 0)  -->
<svg version="1.1" id="Vrstva_1" xmlns="http://www.w3.org/2000/svg" xmlns:xlink="http://www.w3.org/1999/xlink" x="0px" y="0px"
	 viewBox="0 0 52 56" style="enable-background:new 0 0 52 56;" xml:space="preserve">
<style type="text/css">
	.st0{fill:#010101;}
</style>
<g>
	<path class="st0" d="M26,53.2c13.9,0,25.2-11.3,25.2-25.2C51.2,14.1,39.9,2.8,26,2.8C12.1,2.8,0.8,14.1,0.8,28
		C0.8,41.9,12.1,53.2,26,53.2z M26,5.4c12.5,0,22.6,10.1,22.6,22.6S38.5,50.6,26,50.6S3.4,40.5,3.4,28S13.5,5.4,26,5.4z"/>
	<path class="st0" d="M30.3,37.4c2-3.7,1-9.5,1.2-13.9c0-0.7,0.3-0.9,1-0.5c1.7,1.1,3.4,2,5.4,2.2c0,0,0,0,0.1,0
		c0.3,0,0.6-0.3,0.6-0.6l0-3.2c0-0.4-0.2-0.7-0.6-0.8c-3.4-0.7-5.4-3.7-6.2-7.3c-0.1-0.6-0.5-0.9-1.1-0.8l-2.9,0.2
		c-0.4,0-0.6,0.3-0.6,0.7c0,5.8,0,12,0,18.6c0,3.3-1.8,6-5.5,5.4c-6.3-1-4.8-10.1,2-9.3c0,0,0.1,0,0.1,0c0.4,0,0.7-0.3,0.7-0.7
		l0-3.1c0-0.4-0.2-0.6-0.6-0.7c-4.1-0.3-7.2,1.2-9.2,4.4C8,38.7,24.3,48.2,30.3,37.4z"/>
</g>
</svg>
