<svg xmlns="http://www.w3.org/2000/svg" version="1.1" viewBox="0 0 52 56">
<g stroke-width="2.00" fill="none" stroke-linecap="butt">
<path stroke="#808080" vector-effect="non-scaling-stroke" d="   M 47.28 28.39   A 21.66 21.66 0.0 0 0 25.62 6.73   A 21.66 21.66 0.0 0 0 3.96 28.39   A 21.66 21.66 0.0 0 0 25.62 50.05   A 21.66 21.66 0.0 0 0 47.28 28.39"/>
<path stroke="#808080" vector-effect="non-scaling-stroke" d="   M 45.04 28.41   A 19.41 19.41 0.0 0 0 25.63 9.00   A 19.41 19.41 0.0 0 0 6.22 28.41   A 19.41 19.41 0.0 0 0 25.63 47.82   A 19.41 19.41 0.0 0 0 45.04 28.41"/>
<path stroke="#808080" vector-effect="non-scaling-stroke" d="   M 31.10 24.12   C 32.53 25.05 34.00 25.82 35.71 26.02   A 0.51 0.51 0.0 0 0 36.28 25.52   L 36.30 22.76   Q 36.31 22.21 35.77 22.11   C 32.88 21.55 31.09 18.89 30.46 15.86   Q 30.30 15.08 29.50 15.13   L 27.03 15.29   Q 26.49 15.33 26.49 15.88   Q 26.46 23.30 26.50 31.90   C 26.51 34.70 24.94 37.03 21.80 36.53   C 16.40 35.68 17.71 27.85 23.48 28.56   A 0.58 0.57 4.0 0 0 24.13 28.00   L 24.15 25.30   Q 24.15 24.78 23.63 24.74   Q 18.33 24.36 15.74 28.53   C 10.14 37.58 24.19 45.71 29.28 36.47   C 31.02 33.33 30.15 28.27 30.28 24.55   Q 30.31 23.61 31.10 24.12"/>
</g>
<path fill="#ffffff" d="   M 0.00 0.00   L 52.00 0.00   L 52.00 56.00   L 0.00 56.00   L 0.00 0.00   Z   M 47.28 28.39   A 21.66 21.66 0.0 0 0 25.62 6.73   A 21.66 21.66 0.0 0 0 3.96 28.39   A 21.66 21.66 0.0 0 0 25.62 50.05   A 21.66 21.66 0.0 0 0 47.28 28.39   Z"/>
<path fill="#010101" d="   M 47.28 28.39   A 21.66 21.66 0.0 0 1 25.62 50.05   A 21.66 21.66 0.0 0 1 3.96 28.39   A 21.66 21.66 0.0 0 1 25.62 6.73   A 21.66 21.66 0.0 0 1 47.28 28.39   Z   M 45.04 28.41   A 19.41 19.41 0.0 0 0 25.63 9.00   A 19.41 19.41 0.0 0 0 6.22 28.41   A 19.41 19.41 0.0 0 0 25.63 47.82   A 19.41 19.41 0.0 0 0 45.04 28.41   Z"/>
<path fill="#ffffff" d="   M 45.04 28.41   A 19.41 19.41 0.0 0 1 25.63 47.82   A 19.41 19.41 0.0 0 1 6.22 28.41   A 19.41 19.41 0.0 0 1 25.63 9.00   A 19.41 19.41 0.0 0 1 45.04 28.41   Z   M 31.10 24.12   C 32.53 25.05 34.00 25.82 35.71 26.02   A 0.51 0.51 0.0 0 0 36.28 25.52   L 36.30 22.76   Q 36.31 22.21 35.77 22.11   C 32.88 21.55 31.09 18.89 30.46 15.86   Q 30.30 15.08 29.50 15.13   L 27.03 15.29   Q 26.49 15.33 26.49 15.88   Q 26.46 23.30 26.50 31.90   C 26.51 34.70 24.94 37.03 21.80 36.53   C 16.40 35.68 17.71 27.85 23.48 28.56   A 0.58 0.57 4.0 0 0 24.13 28.00   L 24.15 25.30   Q 24.15 24.78 23.63 24.74   Q 18.33 24.36 15.74 28.53   C 10.14 37.58 24.19 45.71 29.28 36.47   C 31.02 33.33 30.15 28.27 30.28 24.55   Q 30.31 23.61 31.10 24.12   Z"/>
<path fill="#010101" d="   M 30.28 24.55   C 30.15 28.27 31.02 33.33 29.28 36.47   C 24.19 45.71 10.14 37.58 15.74 28.53   Q 18.33 24.36 23.63 24.74   Q 24.15 24.78 24.15 25.30   L 24.13 28.00   A 0.58 0.57 4.0 0 1 23.48 28.56   C 17.71 27.85 16.40 35.68 21.80 36.53   C 24.94 37.03 26.51 34.70 26.50 31.90   Q 26.46 23.30 26.49 15.88   Q 26.49 15.33 27.03 15.29   L 29.50 15.13   Q 30.30 15.08 30.46 15.86   C 31.09 18.89 32.88 21.55 35.77 22.11   Q 36.31 22.21 36.30 22.76   L 36.28 25.52   A 0.51 0.51 0.0 0 1 35.71 26.02   C 34.00 25.82 32.53 25.05 31.10 24.12   Q 30.31 23.61 30.28 24.55   Z"/>
</svg>