<svg xmlns="http://www.w3.org/2000/svg" version="1.1" viewBox="0 0 52 56">
<g stroke-width="2.00" fill="none" stroke-linecap="butt">
<path stroke="#808080" vector-effect="non-scaling-stroke" d="   M 47.42 28.39   A 21.66 21.66 0.0 0 0 25.76 6.73   A 21.66 21.66 0.0 0 0 4.10 28.39   A 21.66 21.66 0.0 0 0 25.76 50.05   A 21.66 21.66 0.0 0 0 47.42 28.39"/>
<path stroke="#808080" vector-effect="non-scaling-stroke" d="   M 45.15 28.41   A 19.40 19.40 0.0 0 0 25.75 9.01   A 19.40 19.40 0.0 0 0 6.35 28.41   A 19.40 19.40 0.0 0 0 25.75 47.81   A 19.40 19.40 0.0 0 0 45.15 28.41"/>
<path stroke="#808080" vector-effect="non-scaling-stroke" d="   M 37.20 23.85   A 3.81 3.81 0.0 0 0 33.39 20.04   L 17.75 20.04   A 3.81 3.81 0.0 0 0 13.94 23.85   L 13.94 32.91   A 3.81 3.81 0.0 0 0 17.75 36.72   L 33.39 36.72   A 3.81 3.81 0.0 0 0 37.20 32.91   L 37.20 23.85"/>
<path stroke="#808080" vector-effect="non-scaling-stroke" d="   M 23.82 25.03   A 0.51 0.51 0.0 0 0 23.04 25.46   L 23.05 31.39   A 0.51 0.51 0.0 0 0 23.83 31.82   L 28.58 28.85   A 0.51 0.51 0.0 0 0 28.58 27.98   L 23.82 25.03"/>
</g>
<path fill="#ffffff" d="   M 0.00 0.00   L 52.00 0.00   L 52.00 56.00   L 0.00 56.00   L 0.00 0.00   Z   M 47.42 28.39   A 21.66 21.66 0.0 0 0 25.76 6.73   A 21.66 21.66 0.0 0 0 4.10 28.39   A 21.66 21.66 0.0 0 0 25.76 50.05   A 21.66 21.66 0.0 0 0 47.42 28.39   Z"/>
<path fill="#000000" d="   M 47.42 28.39   A 21.66 21.66 0.0 0 1 25.76 50.05   A 21.66 21.66 0.0 0 1 4.10 28.39   A 21.66 21.66 0.0 0 1 25.76 6.73   A 21.66 21.66 0.0 0 1 47.42 28.39   Z   M 45.15 28.41   A 19.40 19.40 0.0 0 0 25.75 9.01   A 19.40 19.40 0.0 0 0 6.35 28.41   A 19.40 19.40 0.0 0 0 25.75 47.81   A 19.40 19.40 0.0 0 0 45.15 28.41   Z"/>
<path fill="#ffffff" d="   M 45.15 28.41   A 19.40 19.40 0.0 0 1 25.75 47.81   A 19.40 19.40 0.0 0 1 6.35 28.41   A 19.40 19.40 0.0 0 1 25.75 9.01   A 19.40 19.40 0.0 0 1 45.15 28.41   Z   M 37.20 23.85   A 3.81 3.81 0.0 0 0 33.39 20.04   L 17.75 20.04   A 3.81 3.81 0.0 0 0 13.94 23.85   L 13.94 32.91   A 3.81 3.81 0.0 0 0 17.75 36.72   L 33.39 36.72   A 3.81 3.81 0.0 0 0 37.20 32.91   L 37.20 23.85   Z"/>
<path fill="#000000" d="   M 37.20 32.91   A 3.81 3.81 0.0 0 1 33.39 36.72   L 17.75 36.72   A 3.81 3.81 0.0 0 1 13.94 32.91   L 13.94 23.85   A 3.81 3.81 0.0 0 1 17.75 20.04   L 33.39 20.04   A 3.81 3.81 0.0 0 1 37.20 23.85   L 37.20 32.91   Z   M 23.82 25.03   A 0.51 0.51 0.0 0 0 23.04 25.46   L 23.05 31.39   A 0.51 0.51 0.0 0 0 23.83 31.82   L 28.58 28.85   A 0.51 0.51 0.0 0 0 28.58 27.98   L 23.82 25.03   Z"/>
<path fill="#ffffff" d="   M 23.82 25.03   L 28.58 27.98   A 0.51 0.51 0.0 0 1 28.58 28.85   L 23.83 31.82   A 0.51 0.51 0.0 0 1 23.05 31.39   L 23.04 25.46   A 0.51 0.51 0.0 0 1 23.82 25.03   Z"/>
</svg>