<?xml version="1.0" encoding="utf-8"?>
<!-- Generator: Adobe Illustrator 28.3.0, SVG Export Plug-In . SVG Version: 6.00 Build 0)  -->
<svg version="1.1" id="Vrstva_1" xmlns="http://www.w3.org/2000/svg" xmlns:xlink="http://www.w3.org/1999/xlink" x="0px" y="0px"
	 viewBox="0 0 52 56" style="enable-background:new 0 0 52 56;" xml:space="preserve">
<g>
	<path d="M16.3,38.2h18.4c2.5,0,4.5-2,4.5-4.5V23.1c0-2.5-2-4.5-4.5-4.5H16.3c-2.5,0-4.5,2-4.5,4.5v10.7
		C11.9,36.2,13.9,38.2,16.3,38.2z M23.2,24.3c0.1,0,0.2,0,0.3,0.1l5.6,3.5c0.3,0.2,0.4,0.5,0.2,0.8c0,0.1-0.1,0.1-0.2,0.2l-5.6,3.5
		c-0.3,0.2-0.7,0.1-0.8-0.2c-0.1-0.1-0.1-0.2-0.1-0.3l0-7C22.6,24.6,22.8,24.3,23.2,24.3z"/>
	<path d="M25.8,53.9c14.1,0,25.5-11.4,25.5-25.5c0-14.1-11.4-25.5-25.5-25.5C11.7,2.9,0.3,14.3,0.3,28.4
		C0.3,42.5,11.7,53.9,25.8,53.9z M25.7,5.6c12.6,0,22.8,10.2,22.8,22.8c0,12.6-10.2,22.8-22.8,22.8C13.1,51.2,2.9,41,2.9,28.4
		C2.9,15.8,13.1,5.6,25.7,5.6z"/>
</g>
</svg>
