<svg xmlns="http://www.w3.org/2000/svg" viewBox="30.25 30.47 639.12 122.32">
  <path fill="#ff4800" d="M190.2 52.12c-7.12-7.83-17.9-15.58-28.53-17.73q-2.4-.48-4.79-.96-.83-.16-.01-.4 20.32-5.83 40.04 1.63 14.29 5.41 18.42 20.18 2.4 8.6 3.02 15.35 1.08 11.91 2.56 24.14.02.2-.16.3l-6.59 3.75q-.12.06-.14-.07-5.8-26.37-23.82-46.19Z"/>
  <path fill="#ff4800" d="M185.14 88.35c-17.81-13.4-41.93-21.21-63.97-24.56q-.76-.11-.39-.78 8.68-15.6 23.1-24.11c5.08-2.99 13.68-1.37 18.87.71 24.36 9.76 40.11 35.69 45.76 60.69q.13.59-.43.8l-9.49 3.48q-.39.14-.55-.24-4-9.28-12.9-15.99Z"/>
  <path fill="#001761" d="M55.42 60.26c-.15-6.99-9.59-7.34-9.6-.3q-.06 30.25 0 61.72.01 4.78 4.45 5.9.13.03.26.02 4.74-.58 4.85-5.27.22-9.8.02-18.58a.43.43 0 0 1 .43-.45h13.96q.66 0 .67.66.08 9.96-.07 19.29c-.12 7.57-3.45 15.63-11.21 18.08q-5.59 1.76-13.85.8c-10.76-1.24-15.08-10.11-15.08-19.93V59.56c0-8.67 4.26-17.01 13.38-18.72q4.05-.76 9.66-.5c11.75.54 17.09 7.16 17.15 18.66q.04 8.85.05 17.14a.46.46 0 0 1-.46.46l-14.24-.01a.39.39 0 0 1-.39-.4q.17-8.31.02-15.93ZM349.92 57.48c-.38-4.92-7.58-4.97-8.26.32q-1.36 10.45 3.97 17.46 6.71 8.81 13.28 17.19 6.87 8.77 7.32 19.73.25 5.83-.19 11.63c-.69 9.13-5.76 17.02-15.5 18.26-13.73 1.75-25.49-2.21-25.39-18.06q.06-10.41-.07-20.23a.48.47-1.2 0 1 .47-.48l14.16-.01q.57 0 .57.58-.06 8.76.01 17.99c.06 7.29 8.92 8.36 9.64.52q.7-7.62-.74-13.36-.81-3.25-4.88-8.3-5.96-7.39-12.19-15.83c-4.56-6.18-6.11-13.57-6.3-21.4-.3-12.36 2.73-22.54 17.45-23.1 3.71-.14 8.19-.27 11.78.88q9.17 2.91 9.56 13.13.3 8.01.18 19.21 0 .59-.59.59h-13.46q-.67 0-.65-.67.37-8.97-.17-16.05ZM95.56 55.75H76.62a.64.64 0 0 1-.64-.64V41.74a.29.28 90 0 1 .28-.29l35.72-.02q.59 0 .57.6-.12 4.44.01 9.06.09 3.3-.88 6.65-3.8 13-7.48 26.59-.12.46-.51.75Q94.42 91.83 90 99.79c-5.62 10.11-4.27 22.47 5.53 29.21q7.27 4.99 17.67 7a1.03 1.02-84.6 0 1 .83 1.01v3.74q.01.54-.53.54H75.24q-.7 0-.67-.7.21-4.73.02-9.39-.14-3.16 1.1-7.24Q86.28 89 96.01 56.37q.19-.62-.45-.62ZM388.22 100.46q-.68-2.36-.68.1l.06 40.16q0 .58-.57.57h-14.11q-.62 0-.62-.62l-.01-98.85a.39.38 0 0 1 .39-.38h14.56q.36 0 .36.37l-.06 36.91q0 2.58.73.1l10.92-36.8a.8.79-81.6 0 1 .76-.57l13.98-.02a.29.29 0 0 1 .28.37l-13.88 45.7q-.11.37 0 .74l15.39 52.77q.09.28-.2.28l-15.11.01a.48.48 0 0 1-.46-.35l-11.73-40.49ZM651.18 125.72h17.87a.31.31 0 0 1 .31.31l.01 14.95a.31.31 0 0 1-.31.31h-33.14a.31.31 0 0 1-.31-.31V41.73a.31.31 0 0 1 .31-.31l14.66.04a.31.31 0 0 1 .31.31l-.02 83.64a.31.31 0 0 0 .31.31ZM268.04 87.31q1.01.1 1.79.66 5.93 4.23 5.98 11.28.08 13.09 0 25.75c-.05 9.39-5.86 16.36-15.61 16.32q-12.91-.06-24.87-.01-.61 0-.61-.61.11-10.21-.02-20.43-.03-2.11.78-4.18 9.75-24.93-.06-49.61-.75-1.89-.72-3.78.13-10.1.02-20.67 0-.62.62-.61 10.79.09 23.36-.02c13.97-.12 16.38 8.11 16.06 19.76q-.17 6.42-.08 12.97c.05 3.91-1.65 9.39-5.22 11.52q-.81.48-1.59 1.05-.71.52.17.61Zm-17.93-31.7-.08 24.6a.54.54 0 0 0 .54.55l4.48.01a4.92 4.6-89.8 0 0 4.61-4.9l.06-15.84a4.92 4.6-89.8 0 0-4.59-4.94l-4.48-.01a.54.54 0 0 0-.54.53Zm0 40.52-.06 30.68a.38.38 0 0 0 .38.38l4.48.01a5.42 5.34.1 0 0 5.43-5.33l.04-20.76a5.42 5.34.1 0 0-5.41-5.35l-4.48-.01a.38.38 0 0 0-.38.38ZM304.74 122.49l-10.45.02a.32.32 0 0 0-.32.29l-1.77 18.21a.32.32 0 0 1-.32.29l-13.06-.01a.32.32 0 0 1-.32-.36l12.15-99.21a.32.32 0 0 1 .31-.28l17.55.01a.32.32 0 0 1 .32.28l12.92 99.21a.32.32 0 0 1-.31.36l-14.15-.01a.32.32 0 0 1-.32-.29l-1.91-18.22a.32.32 0 0 0-.32-.29Zm-4.61-45.5q-.23-2.22-.93-4.6-.05-.17-.07.01-1.42 17.19-3.47 34.69-.05.4.35.4h7.01a.39.39 0 0 0 .39-.43q-1.84-15.99-3.28-30.07ZM434.87 82.06l14.41-.07a.36.36 0 0 1 .36.36l.04 14.63a.36.36 0 0 1-.36.36l-14.45-.02a.36.36 0 0 0-.36.36v27.98a.36.36 0 0 0 .36.36l19.44-.04a.36.36 0 0 1 .36.36l.04 14.59a.36.36 0 0 1-.36.36l-34.74.01a.36.36 0 0 1-.36-.36V41.8a.36.36 0 0 1 .36-.36h33.9a.36.36 0 0 1 .36.36l-.05 13.94a.36.36 0 0 1-.36.36l-18.59-.04a.36.36 0 0 0-.36.36V81.7a.36.36 0 0 0 .36.36ZM470.87 56.04l-12.03.08a.35.35 0 0 1-.35-.35l-.03-13.98a.35.35 0 0 1 .35-.35l39.92.01a.35.35 0 0 1 .35.35l-.02 13.94a.35.35 0 0 1-.35.35l-12.05-.04a.35.35 0 0 0-.35.35v84.54a.35.35 0 0 1-.35.35l-14.41.01a.35.35 0 0 1-.35-.35l.02-84.56a.35.35 0 0 0-.35-.35ZM537.74 87.28c4.36 1.27 7.26 6.42 7.52 10.47q.44 6.81.26 25.17c-.07 7.39-2.03 14.22-9.39 17.29q-2.93 1.23-8.34 1.16-13.96-.18-22.89-.04-.61.01-.61-.6V41.81q0-.37.37-.37 12.45 0 25.17.01 8.77.01 12.55 6.51 1.88 3.24 2 11.85.17 12.39-.29 16.68-.74 6.82-6.44 9.99-.91.5.09.8Zm-18.15-31.66-.08 24.6a.55.55 0 0 0 .55.55l4.5.02a5.34 4.73-89.8 0 0 4.74-5.32l.06-15.02a5.34 4.73-89.8 0 0-4.72-5.36l-4.5-.02a.55.55 0 0 0-.55.55Zm0 40.56-.06 30.58a.44.44 0 0 0 .44.44l4.39.01a5.66 5.61-89.9 0 0 5.62-5.65l.04-20.14a5.66 5.61-89.9 0 0-5.6-5.67l-4.39-.01a.44.44 0 0 0-.44.44ZM574.97 122.5h-10.44a.32.32 0 0 0-.32.29L562.4 141a.32.32 0 0 1-.32.29l-13.04.01a.32.32 0 0 1-.32-.36l12.16-99.22a.32.32 0 0 1 .31-.28l17.55.01a.32.32 0 0 1 .32.28l12.91 99.21a.32.32 0 0 1-.31.36l-14.17-.01a.32.32 0 0 1-.32-.29l-1.88-18.21a.32.32 0 0 0-.32-.29Zm-5.27-49.48q-.6 2.86-.89 5.9-1.37 14.84-2.95 28.35-.03.22.19.22l7.34-.01q.28 0 .24-.28-1.59-14.16-3.04-27.6c-.23-2.17-.32-4.4-.41-6.54q-.07-2-.48-.04ZM629.93 126.03l.02 14.96a.3.3 0 0 1-.3.3h-33.18a.3.3 0 0 1-.3-.3V41.74a.3.3 0 0 1 .3-.3l14.67-.01a.3.3 0 0 1 .3.3v83.69a.3.3 0 0 0 .3.3l17.89.01a.3.3 0 0 1 .3.3Z"/>
  <path fill="#ff4800" d="M223.13 67.37c-.79-6.79-2.28-12.52-4.93-17.73q-.79-1.56.42-.29 10.45 10.94 14.54 25.62 1.28 4.58-1.38 8.52-2.33 3.45-3.64 5.39-2.61 3.86-2.96-.78-.68-9.1-2.05-20.73ZM113.55 93.82q-5.48 2.29-9.45 5.9c-1.05.95-1.6 2.21-2.62 3.21q-.43.42-.48-.17c-.66-8.47 5.7-14.42 12.87-17.98q.44-.22.49-.71.75-6.89 3.48-14.28.2-.54.77-.46 28.21 4.08 51.25 16.12c8.82 4.6 18.14 11.28 22.4 20.62a.28.28 0 0 1-.18.39q-21.48 6.24-43.46 7.17-6.42.27-13.57-.43c-6.42-.63-13.77-2.23-18.73-6.39a1.67 1.63-78.6 0 1-.5-.77q-1.69-5.66-1.71-11.85 0-.6-.56-.37ZM231.46 110.44q-3.55-6.63-4.91-13.39-.1-.47.26-.79 4.81-4.35 7.86-9.79.57-1.02.64.15.63 11.3-2.66 23.09-.08.28-.09.59-.01.4-.4.48a.65.65 0 0 1-.7-.34Z"/>
  <path fill="#ff4800" d="M100.81 112.6c5.56 4.95 14.34 6.91 21.67 7.71 21.62 2.35 44.25-.46 64.88-7.06q12.65-4.04 23.44-8.91.06-.03.09.03l.13.24q.12.22-.09.36-30.74 20.14-66.44 25.17-11.76 1.66-23.43.98c-12.2-.71-27.32-5.3-29.18-18.66q-1.09-7.79 3.86-14.36.39-.51.93-.9.74-.53.4.32-3.44 8.68 3.74 15.08ZM208.54 141.14c6.53-8.56 7.76-23.2 6.65-34.54q-.03-.31.21-.51l6.66-5.5a.19.18 63.1 0 1 .3.1q1.96 8.91 7.26 15.52.37.46.12.99-7.23 14.97-20.75 24.4-1.71 1.19-.45-.46ZM182.67 152q.19.19.43.14.09-.02-.02 0-5.38.91-11.5.55-3.06-.19-6.37-.37-.71-.04-.3-.62.05-.07 0-.14-.38-.63.39-.78c17.01-3.35 32.87-16.01 34.95-34.08q.03-.26.24-.4 4.52-2.99 9.06-6.05a.05.04 73.2 0 1 .07.04c.27 12.71-1.8 34.08-16.52 39.01q-4.81 1.61-10.26 2.23-.56.07-.17.47Z"/>
  <path fill="#ff4800" d="M137.33 138c19.59-1.36 39.17-8.31 56.23-17.77q.72-.4.46.39c-5.15 15.91-22.81 27.57-39.21 27.01q-3.93-.14-7.02-1.69-5.71-2.89-10.8-6.83-1.28-.99.34-1.11Z"/>
</svg>
