<svg xmlns="http://www.w3.org/2000/svg" viewBox="25.12 18.72 472.71 148.47">
  <g fill="none" stroke-width="2">
    <path stroke="gray" d="M296.06 96.2a.5.5 0 0 1 .69-.44c6.14 2.56 15.64 8.77 18.12 15.27q.22.58.84.55 1.28-.04 2.52.42.78.29.74-.55-.12-2.32-1.02-4.27c-1.38-3.01-1.78-6.2-1.22-9.54q.16-.98 1.08-1.31c1.07-.4 1.89-.97 2.58-1.87 3.73-4.85 8.81-5.45 14.46-6.55q3.49-.68 6.07-2.95a.47.47 0 0 0-.22-.82q-6.49-1.32-12.75-2.53-5.62-1.08-9.74-3.59-.36-.22-.4-.65c-.73-7.21 3.38-10.64 9.37-12.91a.75.75 0 0 0 .43-.98l-.91-2.31q-.25-.62-.86-.35-3.86 1.69-7.88 3.38c-2.47 1.05-3.56 3.45-5.91 4.85q-5.68 3.39-11.32 6.58c-1.31.74-3.55.94-4.29-.74-1.18-2.7-.38-6.63 1.12-8.89q1.24-1.85 4.15-3.46 8.56-4.75 16.08-9.8c5.86-3.94 11.18-1.43 17.29-.47a.22.22 0 0 0 .18-.38q-3.14-2.91-3.79-5.3a.95.94 62 0 1 .29-.97q1.37-1.22 2.09-2.88a.28.28 0 0 0-.31-.39l-6.05 1.29a.36.36 0 0 1-.41-.48q.77-1.98 1.19-3.81.57-2.49-1.94-2l-1.78.36q-.77.15-1.08.87c-1.98 4.5-3.92 8.33-8.09 11.23q-6.69 4.66-12.45 8.78-1.91 1.37-4.22 1.62a1.52 1.52 0 0 1-1.69-1.43l-.62-10.91a1.44 1.43 72.4 0 1 .67-1.3q3.29-2.05 6.81-3.18a.83.83 0 0 0 .45-1.23q-6.34-10.18-10.87-21.1c-.67-1.63-2.34-1.72-3.43-.58q-7.82 8.12-14.02 17.26a1.06 1.06 0 0 0 .23 1.44q2.26 1.72 3.54 3.91.34.57.22 1.23-.45 2.53-2.11 4.64-.32.41-.78.18c-5.5-2.7-10.83-8.5-14.28-13.05-2.88-3.79-2.81-9.81-2.93-14.41q-.03-.73-.73-.53l-2.36.7q-.67.19-.86.86l-1.1 3.87q-.16.53-.69.42l-6.19-1.27q-.74-.15-.46.55l2.22 5.45a.72.71-19.1 0 1-.47.95l-4.04 1.19q-3.3.97-.12 2.29c5.65 2.33 10.36-1.5 15.6 3.6q4.91 4.78 9.84 10.03c1.3 1.38 3.02 1.99 4.77 2.54a.67.66-80.1 0 1 .47.68q-.47 7.14-5.24 11.49-1.61 1.48-2.64-.46l-.79-1.47q-.26-.49-.77-.68c-8.31-3.2-12.99-10.88-18.59-17.49q-1.43-1.69-3.48-2.37-.55-.19-.66.38-.8 4.11 1.57 7.03c2.55 3.15 3.83 5.71 2.66 10.12q-.16.59-.73.82c-6.15 2.49-14 1.49-20.25-.61q-2.94-.98-6.61-1.11a.57.57 0 0 0-.54.35q-.42.95-.4 1.98.01.54.42.88c6.67 5.46 15 7.28 21.07 13.59 5.57 5.8-1.26 10.26-1.2 16.29q.02 2.65 2.41 1.49 7.43-3.6 16.03-7.2 3.18-1.33 2.36 2.02l-1.11 4.49a8.44 8.43 84.5 0 1-4.65 5.64q-6.9 3.21-13.4 7.23c-4.79 2.96-8.43.6-12.81-1.41q-2.58-1.17-6.15-1.2-.61 0-.36.55 1.2 2.71 3.23 4.78a.65.64-49.6 0 1 .06.82q-.95 1.33-2.35 2.1-.43.24-.52.73-.21 1.09-.03 2.15.08.48.52.69l5.8 2.79a.63.63 0 0 1 .16 1.02l-.8.78a.83.82-38.8 0 0-.12 1.05q.83 1.25 2.14 2.03.43.25.83-.03 2.26-1.57 3.26-4.4 1.74-4.93 5.34-7.28c5.47-3.57 12.2-7.84 18.81-8.93q.59-.1.76.48c.91 3.08 1.29 7.57 3.25 10.08q4.89 6.25 5.43 16.07.03.62-.38 1.1-4.17 4.81-8.19 9.45c-1.92 2.2-4.27 3.84-6.21 5.99-3.65 4.05-7.78 7.57-11.61 11.33q-4.09 4.01-4.69 9.05-.07.61.52.79 1.78.51 2.89-.4 5.15-4.22 11.39-7.52 15.53-8.23 30.46-17 5.13-3.02 9.6-6.87 1.61-1.38 1.71-2.46.88-9.45 1.86-19.14a.49.49 0 0 1 .58-.43q6.77 1.27 9.79 6.95a1.82 1.82 0 0 0 .82.79l2.6 1.29a1.41 1.41 0 0 1 .78 1.08l.49 3.4q.1.75.61 1.32 2.07 2.29 2.41 5.51.07.58.64.47 2.33-.44 2.79-2.9.09-.45.46-.72 1.76-1.31 4.89-1.12 1.19.07.48-.88l-2.57-3.51q-.43-.59.25-.84l3.2-1.19a1.29 1.25 2 0 0 .7-.63l.81-1.67q.39-.78-.49-.76l-11.21.31a1.01 1.01 0 0 1-.81-.38l-1.18-1.51q-.35-.46-.94-.51-1.88-.13-3.22-1.57-4.69-4.99-10.64-7.44a1.41 1.4-77.3 0 1-.87-1.39l.65-10.08" vector-effect="non-scaling-stroke"/>
    <path stroke="#e38387" d="M135.85 78.11q.2 1.45-1.16 2.02-3.5 1.47-5.82-.33c-1.85-1.43-1.78-4.05-1.66-6.16q.29-5.64 5.98-4.82.46.07.75.42l1.09 1.29q.37.45.95.34l4.3-.79q.7-.13.45-.8c-1.93-5.03-7.46-5.45-11.99-4.62-6.88 1.26-8.74 7.94-7.07 13.93 1.76 6.32 7.88 6.83 13.17 6.1q2.61-.36 5.8-2.52.59-.39.59-1.1l-.02-7.09q-.01-.73-.73-.73h-7.71q-.98 0-.98.98l-.02 2.53q-.01.74.74.73l2.56-.05q.68-.01.78.67M174.8553 73.2747a8.91 8.91 0 0 0-8.9411-8.8789l-2.4199.0085a8.91 8.91 0 0 0-8.8789 8.941l.0093 2.66a8.91 8.91 0 0 0 8.9411 8.8789l2.4199-.0085a8.91 8.91 0 0 0 8.8789-8.941l-.0093-2.66M452.68 69.81q.01-2 2.51-1.9a2.43 2.43 0 0 1 2.05 1.27l.48.9q.26.51.84.49l4.24-.16a.63.63 0 0 0 .59-.75c-1.1-5.83-8.54-6.08-12.81-4.46q-3.56 1.36-3.47 5.22c.11 4.58 5.45 5.69 9.09 6.5 1.69.37 3.1 2.48 1.28 3.74-2.13 1.47-4.74.32-5.32-2.12a1.07 1.07 0 0 0-1.42-.75q-1.75.66-3.61.3-1.03-.2-.81.83c.75 3.53 3.5 6.18 7.19 5.93q1.48-.1 2.94 0c3.54.25 6.81-1.78 7.59-5.35 1.44-6.55-6.45-7.51-10.63-8.71a1.01 1-81.7 0 1-.73-.98M486.52 68.03q.92-.14 1.73.3 1.02.56 1.45 1.74.2.56.79.53l4.05-.19q1.05-.05.8-1.07c-1.21-5.06-7.25-5.54-11.43-4.59q-3.61.82-4.48 3.61c-1.85 5.96 4.34 7.7 8.72 8.54 1.82.35 3.22 2.69 1.14 3.88-2.13 1.21-4.6.15-5.12-2.21a1.09 1.09 0 0 0-1.46-.78q-1.68.66-3.57.3-1.03-.19-.81.83c.79 3.79 3.38 5.89 7.26 5.97q3.09.07 5.36-.36 4.82-.91 5.18-6.32c.37-5.38-6.81-6.29-10.47-7.35q-1.22-.35-.96-1.59.21-1 1.82-1.24M26.54 65.18l-.06 19.08a.46.46 0 0 0 .46.46l9.46.03a8.46 8.36-89.8 0 0 8.38-8.43l.02-3.08a8.46 8.36-89.8 0 0-8.34-8.49L27 64.72a.46.46 0 0 0-.46.46M72.66 75.6q5.11-2.25 3.41-7.49c-.64-1.97-2.7-3.17-4.72-3.23q-6.05-.2-12.37-.07a.47.47 0 0 0-.46.47l-.01 19.22q0 .24.24.25l5.74.01a.25.25 0 0 0 .26-.25v-7.55q0-.57.57-.51 1.67.17 2.51 1.74 1.63 3.06 3.27 6.27a.52.51-13 0 0 .46.28l6.09.01a.15.15 0 0 0 .14-.2q-1.77-5.21-5.22-8.42-.35-.33.09-.53M102.39 81.42a.31.31 0 0 1 .31.24l.65 2.83a.31.31 0 0 0 .3.24l5.72.04a.31.31 0 0 0 .29-.42L102.47 65a.31.31 0 0 0-.28-.2l-6.17-.02a.31.31 0 0 0-.3.2l-7.23 19.38a.31.31 0 0 0 .29.42l5.52-.04a.31.31 0 0 0 .3-.23l.73-2.78a.31.31 0 0 1 .3-.23l6.76-.08M202.19 75.02q0 1.15-.64.2l-6.65-9.89q-.37-.54-1.02-.54l-4.37-.02q-.72 0-.72.72l-.01 18.77a.49.48 90 0 0 .48.49l4.85.01q.38 0 .38-.37l-.02-10.19q0-.75.42-.13l6.89 10.16a1.18 1.16 72.8 0 0 .97.52l4.49.02q.51 0 .51-.51V65.27q0-.48-.48-.48l-4.57-.02q-.54 0-.54.53l.03 9.72M356.44 77.13c4.44.49 9.34-.09 9.79-5.42.42-5.05-2.57-7.15-7.19-7q-4.91.16-8.99.04-.54-.01-.54.53l.01 19.23a.24.24 0 0 0 .24.24l5.73.01q.26 0 .26-.25v-6.76q0-.69.69-.62M388.3 76.49q1.72.13 2.55 1.74 1.72 3.31 3.32 6.27.13.23.4.23l5.97.03a.22.22 0 0 0 .21-.29q-1.79-5.28-5.18-8.34-.45-.41.13-.6c5.6-1.91 4.91-10.48-1.4-10.66q-6.01-.17-12.11-.08a.69.69 0 0 0-.68.69l.01 19.03q0 .23.24.23l5.73.03q.26 0 .26-.26l-.01-7.5q0-.56.56-.52M421.81 80.26a.32.32 0 0 1-.32-.32l-.04-3.41a.32.32 0 0 1 .32-.32l8.71-.01a.32.32 0 0 0 .31-.31l.06-3.32a.32.32 0 0 0-.32-.32h-8.76a.32.32 0 0 1-.32-.32l.01-2.81a.32.32 0 0 1 .32-.32l9.66.06a.32.32 0 0 0 .32-.32l-.03-3.42a.32.32 0 0 0-.32-.32l-15.84-.02a.32.32 0 0 0-.32.32l-.01 19.33a.32.32 0 0 0 .32.32h15.93a.32.32 0 0 0 .32-.32v-3.87a.32.32 0 0 0-.32-.32l-9.68.02" vector-effect="non-scaling-stroke"/>
    <path stroke="gray" d="M123.62 106.12q-.83 1.66.75.68 1.31-.82 2.6-2 .74-.68-.26-.63l-1.53.07q-.64.03-.92.59l-.64 1.29M33.76 110.82a.34.34 0 0 1 .34-.34l3.31.03a.34.34 0 0 0 .34-.34l.04-2.32a.34.34 0 0 0-.34-.34H26.46a.34.34 0 0 0-.34.34l.01 2.32a.34.34 0 0 0 .34.34l2.97-.05a.34.34 0 0 1 .35.35l-.01 8.59a.34.34 0 0 0 .34.34l3.3.04a.34.34 0 0 0 .34-.34v-8.62M54.76 107.77a.27.27 0 0 0-.27-.27h-3.1a.27.27 0 0 0-.27.27v11.72a.27.27 0 0 0 .27.27h3.1a.27.27 0 0 0 .27-.27v-11.72M73.22 111.31q-1.78-.7-.03-1.48 1.41-.62 2.25.79a1.12 1.12 0 0 0 1.33.48q.85-.3 1.76-.18.8.11.58-.67c-.94-3.27-5-3.12-7.56-2.48-3.09.76-3.67 4.82-.51 6.1q2.02.82 4.14 1.3a1.13 1.13 0 0 1 .49 1.96q-.78.67-2.28.39-.58-.11-.8-.65-.87-2.19-3.75-1.02-.46.19-.32.66.81 2.64 3.02 3.14c2.78.63 7.4.49 8.06-3.03.8-4.24-3.66-4.25-6.38-5.31M98.65 114.92a.32.32 0 0 1 .51.08l2.32 4.59a.32.32 0 0 0 .29.18l3.91.01a.32.32 0 0 0 .27-.49l-4.34-6.98a.32.32 0 0 1 .04-.4l3.97-3.9a.32.32 0 0 0-.23-.54l-4.13.08a.32.32 0 0 0-.23.1l-3.66 4.07a.32.32 0 0 1-.55-.22l.1-3.68a.32.32 0 0 0-.32-.33l-3.16.02a.32.32 0 0 0-.32.32l.01 11.6a.32.32 0 0 0 .32.32l3.1.03a.32.32 0 0 0 .32-.32l.01-2.64a.32.32 0 0 1 .09-.22l1.68-1.68" vector-effect="non-scaling-stroke"/>
    <path stroke="gray" d="M126.71 117.76a.35.35 0 0 1 .35.31l.17 1.4a.35.35 0 0 0 .35.31l3.28-.02a.35.35 0 0 0 .33-.47l-4.52-11.59a.35.35 0 0 0-.34-.22l-3.63.16a.35.35 0 0 0-.31.22l-4.41 11.44a.35.35 0 0 0 .33.48l3.09-.01a.35.35 0 0 0 .34-.27l.32-1.46a.35.35 0 0 1 .34-.28h4.31M153.01 114.2q3.44-1.72 1.77-5.15a1.62 1.62 0 0 0-.7-.73c-2.26-1.19-6.61-.93-9.48-.78q-.48.03-.48.51l.01 11.33a.38.37-90 0 0 .37.38l2.92.01q.44.01.44-.44l.02-4.09a.5.5 0 0 1 .62-.48q1.01.27 1.48 1.19.84 1.65 1.76 3.19.39.64 1.14.64l2.68-.01a.44.43-9.1 0 0 .42-.57q-.92-2.82-3.03-4.49-.38-.3.06-.51M173.14 113.62l3.99 5.65a1.16 1.14 72.5 0 0 .92.49l2.17.02q.64 0 .64-.64l.03-11.32a.34.34 0 0 0-.34-.34l-2.56.03q-.49.01-.49.5l.03 5.76q.01.81-.46.14l-4.18-5.98q-.3-.42-.82-.42h-2.14q-.81 0-.81.81v11.08a.37.36.8 0 0 .36.36l3.02.01q.27 0 .27-.27l-.01-5.76q0-.67.38-.12M197.96 118.09a.44.44 0 0 1 .43-.34l3.8.01a.44.44 0 0 1 .41.29l.52 1.41a.44.44 0 0 0 .41.29l2.93.03a.44.44 0 0 0 .42-.6l-4.36-11.37a.44.44 0 0 0-.41-.28l-3.49-.04a.44.44 0 0 0-.41.28l-4.43 11.44a.44.44 0 0 0 .42.6l3.03-.07a.44.44 0 0 0 .42-.34l.31-1.31M355.11 115.34l2.07 4.22q.1.2.33.2l4.18-.01a.19.19 0 0 0 .16-.3l-4.39-6.87q-.27-.41.08-.76l3.43-3.51q.79-.8-.33-.8h-2.59q-1.27 0-2.09.97l-2.53 2.99q-.7.83-.69-.25l.04-3.46q.01-.27-.27-.27l-3.25.03q-.48 0-.48.47v11.28q0 .48.49.48l3.01.02a.51.5 1.2 0 0 .51-.48q.03-.84-.07-1.68c-.16-1.34.61-1.66 1.38-2.44q.62-.63 1.01.17M377.19 116.78a.34.34 0 0 1-.34-.34l.05-8.62a.34.34 0 0 0-.34-.34l-3.1.03a.34.34 0 0 0-.34.34l.01 11.57a.34.34 0 0 0 .34.34h9.06a.34.34 0 0 0 .34-.34l.02-2.3a.34.34 0 0 0-.34-.34h-5.36M398.19 117.75l3.36.01q.54 0 .63.54l.16.91a.68.67 84.9 0 0 .66.56l3.05-.01q.53 0 .34-.49l-4.22-11.04a1.15 1.14-10.4 0 0-1.07-.73l-2.68.01q-.62.01-.85.59l-4.23 10.93q-.23.58.37.71 3.16.68 3.7-1.39.16-.6.78-.6M418.85 110.47a.4.4 0 0 1 .4.4l-.02 8.5a.4.4 0 0 0 .4.4l3.19-.01a.4.4 0 0 0 .4-.4l-.01-8.49a.4.4 0 0 1 .4-.4l3.17.01a.4.4 0 0 0 .4-.39l.03-2.16a.4.4 0 0 0-.4-.41l-10.92-.02a.4.4 0 0 0-.4.4l.02 2.2a.4.4 0 0 0 .4.4l2.94-.03M450.4893 113.2228a5.6 5.6 0 0 0-5.5014-5.6968l-1.7197-.0301a5.6 5.6 0 0 0-5.6969 5.5014l-.0206 1.1799a5.6 5.6 0 0 0 5.5014 5.6968l1.7197.0301a5.6 5.6 0 0 0 5.6969-5.5014l.0206-1.1799M470.16 107.55a.32.32 0 0 0-.3.23l-2.38 7.86a.32.32 0 0 1-.61.01l-2.5-7.89a.32.32 0 0 0-.3-.22l-3.32-.04a.32.32 0 0 0-.3.43l4.57 11.59a.32.32 0 0 0 .29.2l3.64.06a.32.32 0 0 0 .3-.21l4.44-11.66a.32.32 0 0 0-.31-.43l-3.22.07M493.11 107.55a.36.36 0 0 0-.3.18l-2.06 3.57a.36.36 0 0 1-.62.01l-2.31-3.63a.36.36 0 0 0-.31-.16l-3.29-.03a.36.36 0 0 0-.3.57l4.53 6.6a.36.36 0 0 1 .06.2v4.55a.36.36 0 0 0 .36.36l2.97-.01a.36.36 0 0 0 .36-.36l.05-4.69a.36.36 0 0 1 .06-.2l4.46-6.48a.36.36 0 0 0-.3-.56l-3.36.08M285.88 41.88q-2.08 6.87-5.8 14.62-7.22 15.06-13.6 29.31-2.25 5.02-3.87 10.64c-.61 2.12-.38 4.37.51 6.34q3.23 7.13 6.79 14.66c2.49 5.26 4.72 11.24.19 15.75q-4.35 4.34-9.43 8.87-4.1 3.66-5.43 8.53-.18.63.47.51 3.39-.66 6.6-2.63 7.95-4.89 21.15-12.52c4.52-2.61 7.11-6.9 7.25-12.15q1-37.59 2.1-75.02c.07-2.37.43-5.12 2.24-6.85q1.57-1.5 2.62-3.5.19-.37.01-.73l-5.11-10.37q-.83-1.68-2.39-.66-4.64 3.01-9.47 9.97-.3.43.13.74l4.75 3.58q.46.35.29.91M254.96 58.26a.48.48 0 0 0-.49.15c-3.19 3.71-5.72 6.3-10.92 6.79q-2.55.24-5.11.74-.67.13-.32.72 2.77 4.63 7.26 7.88c2.87 2.07 2.19 8.29 2.14 11.38a.3.3 0 0 0 .38.29q7.7-2.23 15.25-6.97c4.58-2.87 5.62-6.97 2.03-11.35q-3.07-3.75-6.14-7.17-1.53-1.7-4.08-2.46M318.33 81.42q-2.94-3.43-5.91-7.43-.32-.43-.85-.36c-7.31.97-18.25 5.69-14.2 15.42 2.45 5.89 8.72 10.23 14.78 12.28q.47.16.55-.33c.67-3.9 1.82-9.54 6.13-10.63 2.33-.59 3.79-2.17 4.95-4.18q.2-.36-.06-.68-1.32-1.62-3.06-2.34-1.3-.55-2.33-1.75" vector-effect="non-scaling-stroke"/>
    <path stroke="gray" d="M276.97 100.57q-.6-.57.07-1.06l8.28-5.97a1.08 1.08 0 0 0 .3-1.41q-1.99-3.46-5.08-5.9-.44-.36.01-.7l6.48-4.99q.43-.32.45-.85c.17-3.33-1.62-4.37-3.46-6.51q-.48-.56.23-.77 2.95-.87 4.72-3.36a.88.88 0 0 0-.54-1.37q-7.32-1.48-11.58 4.74a1.36 1.35-43.1 0 0-.05 1.47q1.49 2.51 3.68 4.33a.5.5 0 0 1-.02.78c-2.49 1.91-5.47 2.63-6.82 5.75a2.87 2.87 0 0 0 .73 3.29l4.53 3.99a.74.74 0 0 1-.3 1.27c-3.56.95-6.3 1.94-8.7 5.03q-.32.42-.15.92c1.27 3.69 4.37 6.19 7.11 8.87a.61.61 0 0 1-.05.92l-4.5 3.57a.45.45 0 0 0 .06.75c4.89 2.74 8.56-.46 11.31-4.23q.28-.38.09-.82c-1.33-3.03-4.36-5.43-6.8-7.74" vector-effect="non-scaling-stroke"/>
    <path stroke="#e38387" d="M164.8513 80.7099a5.97 4.38 89.7 0 0 4.3486-5.9928 5.97 4.38 89.7 0 0-4.4112-5.947 5.97 4.38 89.7 0 0-4.3486 5.9928 5.97 4.38 89.7 0 0 4.4112 5.947M32.75 69.48v10.58a.3.3 0 0 0 .3.3h1.92a4.07 3.8 90 0 0 3.8-4.07v-3.04a4.07 3.8-90 0 0-3.8-4.07h-1.92a.3.3 0 0 0-.3.3M64.71 68.99l.05 3.58a.24.24 0 0 0 .24.24l3.5-.05a1.82 1.59-.8 0 0 1.8-1.62l-.02-.88a1.82 1.59-.8 0 0-1.84-1.56l-3.5.05a.24.24 0 0 0-.23.24M99.3 70.57a.31.31 0 0 0-.59 0l-1.83 6.21a.31.31 0 0 0 .3.4l3.69-.01a.31.31 0 0 0 .3-.4l-1.87-6.2M355.75 68.98l-.04 4a.25.25 0 0 0 .25.25l1.96.02a2.43 1.61.5 0 0 2.44-1.59l.02-1.28a2.43 1.61.5 0 0-2.42-1.63l-1.96-.02a.25.25 0 0 0-.25.25M387.72 69l.04 3.56a.24.24 0 0 0 .24.24l3.51-.04a1.79 1.55-.6 0 0 1.77-1.57l-.01-.94a1.79 1.55-.6 0 0-1.8-1.53l-3.51.04a.24.24 0 0 0-.24.24" vector-effect="non-scaling-stroke"/>
    <path stroke="gray" d="M124.77 111.48q-.33-1.02-.61.02l-.87 3.31q-.09.33.26.33h1.96q.45 0 .32-.42l-1.06-3.24M147.85 110.22l-.02 1.92a.38.38 0 0 0 .38.38l1.33.01a2.01 1.21.4 0 0 2.02-1.2v-.26a2.01 1.21.4 0 0-2-1.22l-1.33-.01a.38.38 0 0 0-.38.38M198.99 114.67a.34.34 0 0 0 .31.44l1.91.07a.34.34 0 0 0 .34-.42l-.84-3.39a.34.34 0 0 0-.66-.02l-1.06 3.32M398.56 114.73a.34.34 0 0 0 .34.43l1.95-.07a.34.34 0 0 0 .31-.45l-1.09-3.12a.34.34 0 0 0-.65.02l-.86 3.19M444.1421 117.2891a3.62 2.73 88.7 0 0 2.6472-3.681 3.62 2.73 88.7 0 0-2.8114-3.5572 3.62 2.73 88.7 0 0-2.6472 3.681 3.62 2.73 88.7 0 0 2.8114 3.5572" vector-effect="non-scaling-stroke"/>
  </g>
  <path d="m296.06 96.2-.65 10.08a1.41 1.4-77.3 0 0 .87 1.39q5.95 2.45 10.64 7.44 1.34 1.44 3.22 1.57.59.05.94.51l1.18 1.51a1.01 1.01 0 0 0 .81.38l11.21-.31q.88-.02.49.76l-.81 1.67a1.29 1.25 2 0 1-.7.63l-3.2 1.19q-.68.25-.25.84l2.57 3.51q.71.95-.48.88-3.13-.19-4.89 1.12-.37.27-.46.72-.46 2.46-2.79 2.9-.57.11-.64-.47-.34-3.22-2.41-5.51-.51-.57-.61-1.32l-.49-3.4a1.41 1.41 0 0 0-.78-1.08l-2.6-1.29a1.82 1.82 0 0 1-.82-.79q-3.02-5.68-9.79-6.95a.49.49 0 0 0-.58.43q-.98 9.69-1.86 19.14-.1 1.08-1.71 2.46-4.47 3.85-9.6 6.87-14.93 8.77-30.46 17-6.24 3.3-11.39 7.52-1.11.91-2.89.4-.59-.18-.52-.79.6-5.04 4.69-9.05c3.83-3.76 7.96-7.28 11.61-11.33 1.94-2.15 4.29-3.79 6.21-5.99q4.02-4.64 8.19-9.45.41-.48.38-1.1-.54-9.82-5.43-16.07c-1.96-2.51-2.34-7-3.25-10.08q-.17-.58-.76-.48c-6.61 1.09-13.34 5.36-18.81 8.93q-3.6 2.35-5.34 7.28-1 2.83-3.26 4.4-.4.28-.83.03-1.31-.78-2.14-2.03a.83.82-38.8 0 1 .12-1.05l.8-.78a.63.63 0 0 0-.16-1.02l-5.8-2.79q-.44-.21-.52-.69-.18-1.06.03-2.15.09-.49.52-.73 1.4-.77 2.35-2.1a.65.64-49.6 0 0-.06-.82q-2.03-2.07-3.23-4.78-.25-.55.36-.55 3.57.03 6.15 1.2c4.38 2.01 8.02 4.37 12.81 1.41q6.5-4.02 13.4-7.23a8.44 8.43 84.5 0 0 4.65-5.64l1.11-4.49q.82-3.35-2.36-2.02-8.6 3.6-16.03 7.2-2.39 1.16-2.41-1.49c-.06-6.03 6.77-10.49 1.2-16.29-6.07-6.31-14.4-8.13-21.07-13.59q-.41-.34-.42-.88-.02-1.03.4-1.98a.57.57 0 0 1 .54-.35q3.67.13 6.61 1.11c6.25 2.1 14.1 3.1 20.25.61q.57-.23.73-.82c1.17-4.41-.11-6.97-2.66-10.12q-2.37-2.92-1.57-7.03.11-.57.66-.38 2.05.68 3.48 2.37c5.6 6.61 10.28 14.29 18.59 17.49q.51.19.77.68l.79 1.47q1.03 1.94 2.64.46 4.77-4.35 5.24-11.49a.67.66-80.1 0 0-.47-.68c-1.75-.55-3.47-1.16-4.77-2.54q-4.93-5.25-9.84-10.03c-5.24-5.1-9.95-1.27-15.6-3.6q-3.18-1.32.12-2.29l4.04-1.19a.72.71-19.1 0 0 .47-.95l-2.22-5.45q-.28-.7.46-.55l6.19 1.27q.53.11.69-.42l1.1-3.87q.19-.67.86-.86l2.36-.7q.7-.2.73.53c.12 4.6.05 10.62 2.93 14.41 3.45 4.55 8.78 10.35 14.28 13.05q.46.23.78-.18 1.66-2.11 2.11-4.64.12-.66-.22-1.23-1.28-2.19-3.54-3.91a1.06 1.06 0 0 1-.23-1.44q6.2-9.14 14.02-17.26c1.09-1.14 2.76-1.05 3.43.58q4.53 10.92 10.87 21.1a.83.83 0 0 1-.45 1.23q-3.52 1.13-6.81 3.18a1.44 1.43 72.4 0 0-.67 1.3l.62 10.91a1.52 1.52 0 0 0 1.69 1.43q2.31-.25 4.22-1.62 5.76-4.12 12.45-8.78c4.17-2.9 6.11-6.73 8.09-11.23q.31-.72 1.08-.87l1.78-.36q2.51-.49 1.94 2-.42 1.83-1.19 3.81a.36.36 0 0 0 .41.48l6.05-1.29a.28.28 0 0 1 .31.39q-.72 1.66-2.09 2.88a.95.94 62 0 0-.29.97q.65 2.39 3.79 5.3a.22.22 0 0 1-.18.38c-6.11-.96-11.43-3.47-17.29.47q-7.52 5.05-16.08 9.8-2.91 1.61-4.15 3.46c-1.5 2.26-2.3 6.19-1.12 8.89.74 1.68 2.98 1.48 4.29.74q5.64-3.19 11.32-6.58c2.35-1.4 3.44-3.8 5.91-4.85q4.02-1.69 7.88-3.38.61-.27.86.35l.91 2.31a.75.75 0 0 1-.43.98c-5.99 2.27-10.1 5.7-9.37 12.91q.04.43.4.65 4.12 2.51 9.74 3.59 6.26 1.21 12.75 2.53a.47.47 0 0 1 .22.82q-2.58 2.27-6.07 2.95c-5.65 1.1-10.73 1.7-14.46 6.55-.69.9-1.51 1.47-2.58 1.87q-.92.33-1.08 1.31c-.56 3.34-.16 6.53 1.22 9.54q.9 1.95 1.02 4.27.04.84-.74.55-1.24-.46-2.52-.42-.62.03-.84-.55c-2.48-6.5-11.98-12.71-18.12-15.27a.5.5 0 0 0-.69.44Zm-10.18-54.32q-2.08 6.87-5.8 14.62-7.22 15.06-13.6 29.31-2.25 5.02-3.87 10.64c-.61 2.12-.38 4.37.51 6.34q3.23 7.13 6.79 14.66c2.49 5.26 4.72 11.24.19 15.75q-4.35 4.34-9.43 8.87-4.1 3.66-5.43 8.53-.18.63.47.51 3.39-.66 6.6-2.63 7.95-4.89 21.15-12.52c4.52-2.61 7.11-6.9 7.25-12.15q1-37.59 2.1-75.02c.07-2.37.43-5.12 2.24-6.85q1.57-1.5 2.62-3.5.19-.37.01-.73l-5.11-10.37q-.83-1.68-2.39-.66-4.64 3.01-9.47 9.97-.3.43.13.74l4.75 3.58q.46.35.29.91Zm-30.92 16.38a.48.48 0 0 0-.49.15c-3.19 3.71-5.72 6.3-10.92 6.79q-2.55.24-5.11.74-.67.13-.32.72 2.77 4.63 7.26 7.88c2.87 2.07 2.19 8.29 2.14 11.38a.3.3 0 0 0 .38.29q7.7-2.23 15.25-6.97c4.58-2.87 5.62-6.97 2.03-11.35q-3.07-3.75-6.14-7.17-1.53-1.7-4.08-2.46Zm63.37 23.16q-2.94-3.43-5.91-7.43-.32-.43-.85-.36c-7.31.97-18.25 5.69-14.2 15.42 2.45 5.89 8.72 10.23 14.78 12.28q.47.16.55-.33c.67-3.9 1.82-9.54 6.13-10.63 2.33-.59 3.79-2.17 4.95-4.18q.2-.36-.06-.68-1.32-1.62-3.06-2.34-1.3-.55-2.33-1.75Z"/>
  <path fill="#c7070f" d="m135.07 77.44-2.56.05q-.75.01-.74-.73l.02-2.53q0-.98.98-.98h7.71q.72 0 .73.73l.02 7.09q0 .71-.59 1.1-3.19 2.16-5.8 2.52c-5.29.73-11.41.22-13.17-6.1-1.67-5.99.19-12.67 7.07-13.93 4.53-.83 10.06-.41 11.99 4.62q.25.67-.45.8l-4.3.79q-.58.11-.95-.34l-1.09-1.29q-.29-.35-.75-.42-5.69-.82-5.98 4.82c-.12 2.11-.19 4.73 1.66 6.16q2.32 1.8 5.82.33 1.36-.57 1.16-2.02-.1-.68-.78-.67ZM174.8646 75.9347a8.91 8.91 0 0 1-8.8789 8.941l-2.4199.0085a8.91 8.91 0 0 1-8.9411-8.8789l-.0093-2.66a8.91 8.91 0 0 1 8.8789-8.941l2.4199-.0085a8.91 8.91 0 0 1 8.9411 8.8789l.0093 2.66Zm-10.0133 4.7752a5.97 4.38 89.7 0 0 4.3486-5.9928 5.97 4.38 89.7 0 0-4.4112-5.947 5.97 4.38 89.7 0 0-4.3486 5.9928 5.97 4.38 89.7 0 0 4.4112 5.947ZM453.41 70.79c4.18 1.2 12.07 2.16 10.63 8.71-.78 3.57-4.05 5.6-7.59 5.35q-1.46-.1-2.94 0c-3.69.25-6.44-2.4-7.19-5.93q-.22-1.03.81-.83 1.86.36 3.61-.3a1.07 1.07 0 0 1 1.42.75c.58 2.44 3.19 3.59 5.32 2.12 1.82-1.26.41-3.37-1.28-3.74-3.64-.81-8.98-1.92-9.09-6.5q-.09-3.86 3.47-5.22c4.27-1.62 11.71-1.37 12.81 4.46a.63.63 0 0 1-.59.75l-4.24.16q-.58.02-.84-.49l-.48-.9a2.43 2.43 0 0 0-2.05-1.27q-2.5-.1-2.51 1.9a1.01 1-81.7 0 0 .73.98ZM485.66 70.86c3.66 1.06 10.84 1.97 10.47 7.35q-.36 5.41-5.18 6.32-2.27.43-5.36.36c-3.88-.08-6.47-2.18-7.26-5.97q-.22-1.02.81-.83 1.89.36 3.57-.3a1.09 1.09 0 0 1 1.46.78c.52 2.36 2.99 3.42 5.12 2.21 2.08-1.19.68-3.53-1.14-3.88-4.38-.84-10.57-2.58-8.72-8.54q.87-2.79 4.48-3.61c4.18-.95 10.22-.47 11.43 4.59q.25 1.02-.8 1.07l-4.05.19q-.59.03-.79-.53-.43-1.18-1.45-1.74-.81-.44-1.73-.3-1.61.24-1.82 1.24-.26 1.24.96 1.59ZM26.54 65.18a.46.46 0 0 1 .46-.46l9.46.03a8.46 8.36-89.8 0 1 8.34 8.49l-.02 3.08a8.46 8.36-89.8 0 1-8.38 8.43l-9.46-.03a.46.46 0 0 1-.46-.46l.06-19.08Zm6.21 4.3v10.58a.3.3 0 0 0 .3.3h1.92a4.07 3.8 90 0 0 3.8-4.07v-3.04a4.07 3.8-90 0 0-3.8-4.07h-1.92a.3.3 0 0 0-.3.3ZM72.57 76.13q3.45 3.21 5.22 8.42a.15.15 0 0 1-.14.2l-6.09-.01a.52.51-13 0 1-.46-.28q-1.64-3.21-3.27-6.27-.84-1.57-2.51-1.74-.57-.06-.57.51v7.55a.25.25 0 0 1-.26.25l-5.74-.01q-.24-.01-.24-.25l.01-19.22a.47.47 0 0 1 .46-.47q6.32-.13 12.37.07c2.02.06 4.08 1.26 4.72 3.23q1.7 5.24-3.41 7.49-.44.2-.09.53Zm-7.86-7.14.05 3.58a.24.24 0 0 0 .24.24l3.5-.05a1.82 1.59-.8 0 0 1.8-1.62l-.02-.88a1.82 1.59-.8 0 0-1.84-1.56l-3.5.05a.24.24 0 0 0-.23.24ZM102.39 81.42l-6.76.08a.31.31 0 0 0-.3.23l-.73 2.78a.31.31 0 0 1-.3.23l-5.52.04a.31.31 0 0 1-.29-.42l7.23-19.38a.31.31 0 0 1 .3-.2l6.17.02a.31.31 0 0 1 .28.2l7.19 19.35a.31.31 0 0 1-.29.42l-5.72-.04a.31.31 0 0 1-.3-.24l-.65-2.83a.31.31 0 0 0-.31-.24ZM99.3 70.57a.31.31 0 0 0-.59 0l-1.83 6.21a.31.31 0 0 0 .3.4l3.69-.01a.31.31 0 0 0 .3-.4l-1.87-6.2ZM202.19 75.02l-.03-9.72q0-.53.54-.53l4.57.02q.48 0 .48.48v18.99q0 .51-.51.51l-4.49-.02a1.18 1.16 72.8 0 1-.97-.52l-6.89-10.16q-.42-.62-.42.13l.02 10.19q0 .37-.38.37l-4.85-.01a.49.48-90 0 1-.48-.49l.01-18.77q0-.72.72-.72l4.37.02q.65 0 1.02.54l6.65 9.89q.64.95.64-.2ZM355.75 77.75v6.76q0 .25-.26.25l-5.73-.01a.24.24 0 0 1-.24-.24l-.01-19.23q0-.54.54-.53 4.08.12 8.99-.04c4.62-.15 7.61 1.95 7.19 7-.45 5.33-5.35 5.91-9.79 5.42q-.69-.07-.69.62Zm0-8.77-.04 4a.25.25 0 0 0 .25.25l1.96.02a2.43 1.61.5 0 0 2.44-1.59l.02-1.28a2.43 1.61.5 0 0-2.42-1.63l-1.96-.02a.25.25 0 0 0-.25.25ZM387.74 77.01l.01 7.5q0 .26-.26.26l-5.73-.03q-.24 0-.24-.23l-.01-19.03a.69.69 0 0 1 .68-.69q6.1-.09 12.11.08c6.31.18 7 8.75 1.4 10.66q-.58.19-.13.6 3.39 3.06 5.18 8.34a.22.22 0 0 1-.21.29l-5.97-.03q-.27 0-.4-.23-1.6-2.96-3.32-6.27-.83-1.61-2.55-1.74-.56-.04-.56.52Zm-.02-8.01.04 3.56a.24.24 0 0 0 .24.24l3.51-.04a1.79 1.55-.6 0 0 1.77-1.57l-.01-.94a1.79 1.55-.6 0 0-1.8-1.53l-3.51.04a.24.24 0 0 0-.24.24ZM421.81 80.26l9.68-.02a.32.32 0 0 1 .32.32v3.87a.32.32 0 0 1-.32.32h-15.93a.32.32 0 0 1-.32-.32l.01-19.33a.32.32 0 0 1 .32-.32l15.84.02a.32.32 0 0 1 .32.32l.03 3.42a.32.32 0 0 1-.32.32l-9.66-.06a.32.32 0 0 0-.32.32l-.01 2.81a.32.32 0 0 0 .32.32h8.76a.32.32 0 0 1 .32.32l-.06 3.32a.32.32 0 0 1-.31.31l-8.71.01a.32.32 0 0 0-.32.32l.04 3.41a.32.32 0 0 0 .32.32Z"/>
  <path d="m123.62 106.12.64-1.29q.28-.56.92-.59l1.53-.07q1-.05.26.63-1.29 1.18-2.6 2-1.58.98-.75-.68ZM33.76 110.82v8.62a.34.34 0 0 1-.34.34l-3.3-.04a.34.34 0 0 1-.34-.34l.01-8.59a.34.34 0 0 0-.35-.35l-2.97.05a.34.34 0 0 1-.34-.34l-.01-2.32a.34.34 0 0 1 .34-.34h10.99a.34.34 0 0 1 .34.34l-.04 2.32a.34.34 0 0 1-.34.34l-3.31-.03a.34.34 0 0 0-.34.34Z"/>
  <rect width="3.64" height="12.26" x="51.12" y="107.5" rx=".27"/>
  <path d="M73.22 111.31c2.72 1.06 7.18 1.07 6.38 5.31-.66 3.52-5.28 3.66-8.06 3.03q-2.21-.5-3.02-3.14-.14-.47.32-.66 2.88-1.17 3.75 1.02.22.54.8.65 1.5.28 2.28-.39a1.13 1.13 0 0 0-.49-1.96q-2.12-.48-4.14-1.3c-3.16-1.28-2.58-5.34.51-6.1 2.56-.64 6.62-.79 7.56 2.48q.22.78-.58.67-.91-.12-1.76.18a1.12 1.12 0 0 1-1.33-.48q-.84-1.41-2.25-.79-1.75.78.03 1.48ZM98.65 114.92l-1.68 1.68a.32.32 0 0 0-.09.22l-.01 2.64a.32.32 0 0 1-.32.32l-3.1-.03a.32.32 0 0 1-.32-.32l-.01-11.6a.32.32 0 0 1 .32-.32l3.16-.02a.32.32 0 0 1 .32.33l-.1 3.68a.32.32 0 0 0 .55.22l3.66-4.07a.32.32 0 0 1 .23-.1l4.13-.08a.32.32 0 0 1 .23.54l-3.97 3.9a.32.32 0 0 0-.04.4l4.34 6.98a.32.32 0 0 1-.27.49l-3.91-.01a.32.32 0 0 1-.29-.18L99.16 115a.32.32 0 0 0-.51-.08ZM126.71 117.76h-4.31a.35.35 0 0 0-.34.28l-.32 1.46a.35.35 0 0 1-.34.27l-3.09.01a.35.35 0 0 1-.33-.48l4.41-11.44a.35.35 0 0 1 .31-.22l3.63-.16a.35.35 0 0 1 .34.22l4.52 11.59a.35.35 0 0 1-.33.47l-3.28.02a.35.35 0 0 1-.35-.31l-.17-1.4a.35.35 0 0 0-.35-.31Zm-1.94-6.28q-.33-1.02-.61.02l-.87 3.31q-.09.33.26.33h1.96q.45 0 .32-.42l-1.06-3.24ZM152.95 114.71q2.11 1.67 3.03 4.49a.44.43-9.1 0 1-.42.57l-2.68.01q-.75 0-1.14-.64-.92-1.54-1.76-3.19-.47-.92-1.48-1.19a.5.5 0 0 0-.62.48l-.02 4.09q0 .45-.44.44l-2.92-.01a.38.37-90 0 1-.37-.38l-.01-11.33q0-.48.48-.51c2.87-.15 7.22-.41 9.48.78a1.62 1.62 0 0 1 .7.73q1.67 3.43-1.77 5.15-.44.21-.06.51Zm-5.1-4.49-.02 1.92a.38.38 0 0 0 .38.38l1.33.01a2.01 1.21.4 0 0 2.02-1.2v-.26a2.01 1.21.4 0 0-2-1.22l-1.33-.01a.38.38 0 0 0-.38.38ZM172.76 113.74l.01 5.76q0 .27-.27.27l-3.02-.01a.37.36.8 0 1-.36-.36v-11.08q0-.81.81-.81h2.14q.52 0 .82.42l4.18 5.98q.47.67.46-.14l-.03-5.76q0-.49.49-.5l2.56-.03a.34.34 0 0 1 .34.34l-.03 11.32q0 .64-.64.64l-2.17-.02a1.16 1.14 72.5 0 1-.92-.49l-3.99-5.65q-.38-.55-.38.12ZM197.96 118.09l-.31 1.31a.44.44 0 0 1-.42.34l-3.03.07a.44.44 0 0 1-.42-.6l4.43-11.44a.44.44 0 0 1 .41-.28l3.49.04a.44.44 0 0 1 .41.28l4.36 11.37a.44.44 0 0 1-.42.6l-2.93-.03a.44.44 0 0 1-.41-.29l-.52-1.41a.44.44 0 0 0-.41-.29l-3.8-.01a.44.44 0 0 0-.43.34Zm1.03-3.42a.34.34 0 0 0 .31.44l1.91.07a.34.34 0 0 0 .34-.42l-.84-3.39a.34.34 0 0 0-.66-.02l-1.06 3.32ZM354.1 115.17c-.77.78-1.54 1.1-1.38 2.44q.1.84.07 1.68a.51.5 1.2 0 1-.51.48l-3.01-.02q-.49 0-.49-.48v-11.28q0-.47.48-.47l3.25-.03q.28 0 .27.27l-.04 3.46q-.01 1.08.69.25l2.53-2.99q.82-.97 2.09-.97h2.59q1.12 0 .33.8l-3.43 3.51q-.35.35-.08.76l4.39 6.87a.19.19 0 0 1-.16.3l-4.18.01q-.23 0-.33-.2l-2.07-4.22q-.39-.8-1.01-.17ZM377.19 116.78h5.36a.34.34 0 0 1 .34.34l-.02 2.3a.34.34 0 0 1-.34.34h-9.06a.34.34 0 0 1-.34-.34l-.01-11.57a.34.34 0 0 1 .34-.34l3.1-.03a.34.34 0 0 1 .34.34l-.05 8.62a.34.34 0 0 0 .34.34ZM397.41 118.35q-.54 2.07-3.7 1.39-.6-.13-.37-.71l4.23-10.93q.23-.58.85-.59l2.68-.01a1.15 1.14-10.4 0 1 1.07.73l4.22 11.04q.19.49-.34.49l-3.05.01a.68.67 84.9 0 1-.66-.56l-.16-.91q-.09-.54-.63-.54l-3.36-.01q-.62 0-.78.6Zm1.15-3.62a.34.34 0 0 0 .34.43l1.95-.07a.34.34 0 0 0 .31-.45l-1.09-3.12a.34.34 0 0 0-.65.02l-.86 3.19ZM418.85 110.47l-2.94.03a.4.4 0 0 1-.4-.4l-.02-2.2a.4.4 0 0 1 .4-.4l10.92.02a.4.4 0 0 1 .4.41l-.03 2.16a.4.4 0 0 1-.4.39l-3.17-.01a.4.4 0 0 0-.4.4l.01 8.49a.4.4 0 0 1-.4.4l-3.19.01a.4.4 0 0 1-.4-.4l.02-8.5a.4.4 0 0 0-.4-.4ZM450.4687 114.4027a5.6 5.6 0 0 1-5.6969 5.5014l-1.7197-.0301a5.6 5.6 0 0 1-5.5014-5.6968l.0206-1.1799a5.6 5.6 0 0 1 5.6969-5.5014l1.7197.0301a5.6 5.6 0 0 1 5.5014 5.6968l-.0206 1.1799Zm-6.3266 2.8864a3.62 2.73 88.7 0 0 2.6472-3.681 3.62 2.73 88.7 0 0-2.8114-3.5572 3.62 2.73 88.7 0 0-2.6472 3.681 3.62 2.73 88.7 0 0 2.8114 3.5572ZM470.16 107.55l3.22-.07a.32.32 0 0 1 .31.43l-4.44 11.66a.32.32 0 0 1-.3.21l-3.64-.06a.32.32 0 0 1-.29-.2l-4.57-11.59a.32.32 0 0 1 .3-.43l3.32.04a.32.32 0 0 1 .3.22l2.5 7.89a.32.32 0 0 0 .61-.01l2.38-7.86a.32.32 0 0 1 .3-.23ZM493.11 107.55l3.36-.08a.36.36 0 0 1 .3.56l-4.46 6.48a.36.36 0 0 0-.06.2l-.05 4.69a.36.36 0 0 1-.36.36l-2.97.01a.36.36 0 0 1-.36-.36v-4.55a.36.36 0 0 0-.06-.2l-4.53-6.6a.36.36 0 0 1 .3-.57l3.29.03a.36.36 0 0 1 .31.16l2.31 3.63a.36.36 0 0 0 .62-.01l2.06-3.57a.36.36 0 0 1 .3-.18Z"/>
  <path fill="#fff" d="M254.96 58.26q2.55.76 4.08 2.46 3.07 3.42 6.14 7.17c3.59 4.38 2.55 8.48-2.03 11.35q-7.55 4.74-15.25 6.97a.3.3 0 0 1-.38-.29c.05-3.09.73-9.31-2.14-11.38q-4.49-3.25-7.26-7.88-.35-.59.32-.72 2.56-.5 5.11-.74c5.2-.49 7.73-3.08 10.92-6.79a.48.48 0 0 1 .49-.15Z"/>
  <path d="M276.97 100.57c2.44 2.31 5.47 4.71 6.8 7.74q.19.44-.09.82c-2.75 3.77-6.42 6.97-11.31 4.23a.45.45 0 0 1-.06-.75l4.5-3.57a.61.61 0 0 0 .05-.92c-2.74-2.68-5.84-5.18-7.11-8.87q-.17-.5.15-.92c2.4-3.09 5.14-4.08 8.7-5.03a.74.74 0 0 0 .3-1.27l-4.53-3.99a2.87 2.87 0 0 1-.73-3.29c1.35-3.12 4.33-3.84 6.82-5.75a.5.5 0 0 0 .02-.78q-2.19-1.82-3.68-4.33a1.36 1.35-43.1 0 1 .05-1.47q4.26-6.22 11.58-4.74a.88.88 0 0 1 .54 1.37q-1.77 2.49-4.72 3.36-.71.21-.23.77c1.84 2.14 3.63 3.18 3.46 6.51q-.02.53-.45.85l-6.48 4.99q-.45.34-.01.7 3.09 2.44 5.08 5.9a1.08 1.08 0 0 1-.3 1.41l-8.28 5.97q-.67.49-.07 1.06Z"/>
</svg>
