<?xml version="1.0" encoding="utf-8"?>
<!-- Generator: Adobe Illustrator 19.2.1, SVG Export Plug-In . SVG Version: 6.00 Build 0)  -->
<svg version="1.1" id="layer" xmlns="http://www.w3.org/2000/svg" xmlns:xlink="http://www.w3.org/1999/xlink" x="0px" y="0px"
	 viewBox="0 0 652 652" style="enable-background:new 0 0 652 652;" xml:space="preserve">
<style type="text/css">
	.st0{fill:#000D20;}
	.st1{fill:#FFFFFF;}
	.st2{fill-rule:evenodd;clip-rule:evenodd;}
	.st3{clip-path:url(#SVGID_2_);fill:url(#SVGID_3_);}
	.st4{clip-path:url(#SVGID_5_);fill:url(#SVGID_6_);}
	.st5{clip-path:url(#SVGID_8_);fill:url(#SVGID_9_);}
	.st6{clip-path:url(#SVGID_11_);fill:url(#SVGID_12_);}
	.st7{clip-path:url(#SVGID_14_);fill:url(#SVGID_15_);}
	.st8{clip-path:url(#SVGID_17_);fill:url(#SVGID_18_);}
	.st9{clip-path:url(#SVGID_20_);fill:url(#SVGID_21_);}
	.st10{clip-path:url(#SVGID_23_);fill:url(#SVGID_24_);}
	.st11{clip-path:url(#SVGID_26_);fill:url(#SVGID_27_);}
	.st12{clip-path:url(#SVGID_29_);fill:url(#SVGID_30_);}
	.st13{clip-path:url(#SVGID_32_);fill:url(#SVGID_33_);}
	.st14{clip-path:url(#SVGID_35_);fill:url(#SVGID_36_);}
	.st15{clip-path:url(#SVGID_38_);fill:url(#SVGID_39_);}
	.st16{clip-path:url(#SVGID_41_);fill:url(#SVGID_42_);}
	.st17{clip-path:url(#SVGID_44_);fill:url(#SVGID_45_);}
	.st18{fill-rule:evenodd;clip-rule:evenodd;fill:#0074B8;}
	.st19{clip-path:url(#SVGID_47_);fill:url(#SVGID_48_);}
	.st20{clip-path:url(#SVGID_50_);fill:url(#SVGID_51_);}
	.st21{clip-path:url(#SVGID_53_);fill:url(#SVGID_54_);}
	.st22{clip-path:url(#SVGID_56_);fill:url(#SVGID_57_);}
	.st23{fill:#9FA0A0;}
</style>
<g>
	<rect x="329.7" y="172.6" class="st0" width="292.7" height="292.7"/>
	<polygon class="st1" points="361.9,397.1 365.3,397.1 369.9,418.2 369.9,418.2 374.9,397.1 378.9,397.1 383.3,418.2 383.4,418.2 
		388.3,397.1 391.6,397.1 385.1,421.5 381.3,421.5 376.7,400.3 376.6,400.3 371.7,421.5 367.9,421.5 	"/>
	<path class="st1" d="M393.9,413.8c0,4.8,1.3,5.7,3.5,5.7c1.9,0,2.9-1.5,3-3.3h3c0,3.8-2.4,5.5-5.9,5.5c-3.6,0-6.5-1.1-6.5-8.6
		c0-5,0.6-9.1,6.5-9.1c4.9,0,6.1,2.7,6.1,8.3v1.5H393.9 M400.6,411.7c0-5-1.4-5.6-3.4-5.6c-1.7,0-3.2,0.9-3.2,5.6H400.6z"/>
	<path class="st1" d="M419.4,397.1h3.9l8,24.4h-3.5l-1.7-5.8h-9.5l-1.8,5.8h-3.2L419.4,397.1z M421.3,399.9L421.3,399.9l-3.9,13h7.8
		L421.3,399.9z"/>
	<path class="st1" d="M436.5,407L436.5,407c1.2-2.6,2.6-2.9,5.3-2.9v2.9c-0.2,0-0.5-0.1-0.7-0.1c-0.2,0-0.5-0.1-0.7-0.1
		c-3.1,0-3.9,2.4-3.9,4.7v10.1h-2.8v-17.1h2.8V407"/>
	<path class="st1" d="M445.6,413.8c0,4.8,1.3,5.7,3.5,5.7c1.9,0,2.9-1.5,3-3.3h3c0,3.8-2.4,5.5-6,5.5c-3.6,0-6.5-1.1-6.5-8.6
		c0-5,0.6-9.1,6.5-9.1c4.9,0,6.1,2.7,6.1,8.3v1.5H445.6 M452.2,411.7c0-5-1.4-5.6-3.4-5.6c-1.7,0-3.2,0.9-3.2,5.6H452.2z"/>
	<path class="st1" d="M464.5,421.5v-24.4h7.9c3.4,0,4.5,1.1,5.5,2.5c0.8,1.3,1,2.8,1,3.2c0,3-1,5.1-4.2,5.8v0.2c3.5,0.4,5,2.5,5,5.8
		c0,6.3-4.6,6.9-7.3,6.9H464.5 M467.6,407.4h4.6c2.4,0,3.6-1.5,3.6-3.9c0-2-1.2-3.7-3.7-3.7h-4.4V407.4z M467.6,418.8h4.4
		c3.3,0,4.5-2.4,4.5-4.2c0-3.9-2.4-4.6-5.6-4.6h-3.3V418.8z"/>
	<path class="st1" d="M491.3,419L491.3,419c-0.9,1.9-2.2,2.8-4.4,2.8c-3.6,0-4.7-2.3-4.7-5.6c0-5.2,5.1-5.4,9-5.3
		c0.1-2.3,0.1-4.7-2.9-4.7c-1.9,0-2.9,1.3-2.7,3.1h-3c0.1-3.8,2.2-5.1,5.8-5.1c4.4,0,5.5,2.3,5.5,5.1v8.2c0,1.4,0.1,2.7,0.4,4.1
		h-3.1V419 M485.1,416.4c0,1.6,0.8,3.1,2.7,3.1c1.7,0,3.8-1.1,3.5-6.6C488.6,413,485.1,412.8,485.1,416.4"/>
	<path class="st1" d="M502.5,421.8c-3.7,0-6-1.6-5.9-5.6h3.1c0,1,0,3.3,2.9,3.3c1.7,0,2.9-0.9,2.9-2.6c0-3-8.5-3.1-8.5-8.2
		c0-1.8,1.1-4.7,5.9-4.7c3,0,5.7,1.5,5.4,4.8h-3.1c0-1.8-0.9-2.7-2.7-2.7c-1.5,0-2.6,0.8-2.6,2.3c0,3,8.5,2.9,8.5,8.2
		C508.4,420.4,505.9,421.8,502.5,421.8"/>
	<polygon class="st1" points="513.9,421.5 511.1,421.5 511.1,397.1 513.9,397.1 513.9,411.8 513.9,411.8 519.2,404.4 522.5,404.4 
		516.8,411.7 523.6,421.5 520,421.5 513.9,411.9 513.9,411.9 	"/>
	<path class="st1" d="M526.8,413.8c0,4.8,1.3,5.7,3.4,5.7c1.9,0,2.9-1.5,3-3.3h3c0,3.8-2.4,5.5-6,5.5c-3.6,0-6.5-1.1-6.5-8.6
		c0-5,0.6-9.1,6.5-9.1c4.9,0,6.1,2.7,6.1,8.3v1.5H526.8 M533.5,411.7c0-5-1.4-5.6-3.4-5.6c-1.8,0-3.2,0.9-3.2,5.6H533.5z"/>
	<path class="st1" d="M540,404.4v-3.3l2.8-1.2v4.5h3.7v2.1h-3.7v10.4c0,1.1,0,2.5,2.5,2.5c0.2,0,0.6-0.1,1.2-0.1v2.1
		c-0.9,0.1-1.8,0.3-2.7,0.3c-2.7,0-3.8-1.1-3.8-3v-12.1h-2.8v-2.1H540"/>
	<path class="st1" d="M552.1,421.5h-2.8v-24.4h2.8v9.1h0.1c0.9-1.4,2.1-2.1,3.8-2.1c5.5,0,5.6,4.9,5.6,9.2c0,7.5-2.8,8.6-5.5,8.6
		c-1.8,0-3-0.8-3.9-2.4h-0.1V421.5 M555.2,419.6c3.5,0,3.5-3.7,3.5-6.3c0-4.6-0.4-6.9-3.4-6.9c-3.1,0-3.2,3.7-3.2,5.9
		C552.1,414.9,551.8,419.6,555.2,419.6"/>
	<path class="st1" d="M572.8,419L572.8,419c-0.9,1.9-2.2,2.8-4.4,2.8c-3.6,0-4.7-2.3-4.7-5.6c0-5.2,5.1-5.4,9-5.3
		c0.1-2.3,0.1-4.7-2.9-4.7c-1.8,0-2.8,1.3-2.7,3.1h-3c0.1-3.8,2.2-5.1,5.8-5.1c4.4,0,5.5,2.3,5.5,5.1v8.2c0,1.4,0.2,2.7,0.3,4.1h-3
		V419 M566.5,416.4c0,1.6,0.8,3.1,2.7,3.1c1.7,0,3.8-1.1,3.5-6.6C570.1,413,566.5,412.8,566.5,416.4"/>
	<rect x="579.5" y="397.1" class="st1" width="2.8" height="24.4"/>
	<rect x="586.3" y="397.1" class="st1" width="2.8" height="24.4"/>
	<path class="st1" d="M397.9,233.6V252h24.9v16.3h-24.9v36.1h-17.5v-81.7c0-4.4,1.7-6.2,6.1-6.2h41.3v17H397.9"/>
	<path class="st1" d="M433.8,304.5v-81.7c0-4.4,1.7-6.1,6.2-6.1h11.3v87.9H433.8"/>
	<path class="st1" d="M495,242.2c0,7.1-4.2,10.7-10.2,10.7h-7.6v-21.4h7.6C490.8,231.5,495,235.1,495,242.2 M512.8,279.4
		c0-11.9-6.4-17.6-11-19.2c4.2-1.9,10.4-6.9,10.4-20.4c0-12.3-8.3-23.2-26.2-23.2h-19.8c-4.4,0-6.2,1.7-6.2,6.2v81.7h26.7
		C501.7,304.5,512.8,296.2,512.8,279.4 M495.2,278.5c0,7.4-4.3,10.9-10.3,10.9h-7.8v-21.9h7.8C490.9,267.5,495.2,271.1,495.2,278.5"
		/>
	<path class="st1" d="M554,258.6h-16.2v-18.1c0-3.7,1.2-9.9,8.1-9.9c6.9,0,8.1,6.3,8.1,9.9V258.6 M571.4,304.5v-66
		c0-6.8-3.7-23.8-25.6-23.8c-21.9,0-25.6,17.1-25.6,23.8v66h17.5v-29.6H554v29.6H571.4z"/>
	<rect x="22.4" y="172.6" class="st2" width="292.7" height="292.7"/>
</g>
<g>
	<defs>
		<path id="SVGID_1_" d="M236.4,247.3c0.1,5.6-0.1,12.9-1.2,23.2c-1.1,10.2-6.4,27.8-6.4,27.8s-8.9,26.5-14.7,35.8
			c-5.8,9.2-9.6,18.8-9.6,18.8s-6.7,10-9.4,13.5c-9.5-5.4-11.3-15.3-11.3-15.3c-7.3-9.6-18.4-75.5-18.4-75.5l-2,0.4l4.7,25.3
			l2.6,11.9c2.7,15,9.3,34.9,9.3,34.9s-0.3,3.1,4.8,10.6c5.1,7.5,9.3,8.9,9.3,8.9c-1.1,0.6,0,0.4,0,0.4l0.3-0.2l3.3,2.2
			c7.3,3.2,13.8,1.6,23.8,1.1c10-0.5,27-9.6,27-9.6l0.3-2.2c-20.3,9.6-24,8.9-28.3,10c-4.2,1.1-14.4,2.7-24.3-2.3l1.8-0.7l9.2-13.8
			l7.7-15.2c0,0,9.3-18,15.4-37.9c5.9-19.3,7.4-33.5,7.4-33.5s1.2-12.3,1-13.6c-0.2-1.2,0.1-13-1.1-16.5l-2.9-2.8
			C236.3,241.9,236.2,241.8,236.4,247.3"/>
	</defs>
	<clipPath id="SVGID_2_">
		<use xlink:href="#SVGID_1_"  style="overflow:visible;"/>
	</clipPath>
	
		<radialGradient id="SVGID_3_" cx="-306.7191" cy="716.8578" r="9.6052" gradientTransform="matrix(11.1709 0 0 -11.1709 3600.8738 8370.8955)" gradientUnits="userSpaceOnUse">
		<stop  offset="0" style="stop-color:#95979A"/>
		<stop  offset="1" style="stop-color:#737577"/>
	</radialGradient>
	<rect x="163.3" y="233.2" class="st3" width="85.5" height="140.1"/>
</g>
<g>
	<defs>
		<path id="SVGID_4_" d="M79.8,268.6l4.6,9.7l6.3,10.7c0,0,7.5,9.6,10.3,14.4c2.8,4.9,23.3,26.9,23.3,26.9l26,23.4l13,9.5l4.1,4.6
			l10.3,12.7l14.9,2l16.2,8c0,0,16.3,6.6,17,7c0.7,0.3,15.5,3.8,15.5,3.8l5.8,1.1c0,0,7.5-3.3,1.4-2.8c-6.1,0.4-22.9-4.4-22.9-4.4
			s-10.8-4.7-12.6-4.9c-1.8-0.2-21.3-10.5-21.3-10.5h-8.7l-2.6-5c0,0-6.8-9.1-11.5-10.9c-4.7-1.8-17.3-11.9-17.3-11.9l-2.1-3.6
			c0,0-12.2-10.8-16.5-12.9c-4.3-2.1-31.3-34.3-31.3-34.3s-7.2-13.9-10.3-16c-2.9-1.9-10.1-18.5-11-20.7l-0.1-0.2L79.8,268.6z"/>
	</defs>
	<clipPath id="SVGID_5_">
		<use xlink:href="#SVGID_4_"  style="overflow:visible;"/>
	</clipPath>
	
		<radialGradient id="SVGID_6_" cx="-306.7177" cy="716.8585" r="9.6052" gradientTransform="matrix(11.1709 0 0 -11.1709 3600.8728 8370.8877)" gradientUnits="userSpaceOnUse">
		<stop  offset="0" style="stop-color:#95979A"/>
		<stop  offset="1" style="stop-color:#737577"/>
	</radialGradient>
	<rect x="79.8" y="264.3" class="st4" width="174.7" height="138"/>
</g>
<g>
	<defs>
		<path id="SVGID_7_" d="M114.9,377l5.6,2.1l20,2.6l18.9,1.3c0,0,7.9,0.5,10.3,1.9c2.5,1.4,3.7-2.2,3.7-2.2l-15.5-2.1
			c0,0-27.9-1.5-33.6-3.8c-1.7-0.7-3.3-0.9-4.6-0.9C116.7,375.7,114.9,377,114.9,377"/>
	</defs>
	<clipPath id="SVGID_8_">
		<use xlink:href="#SVGID_7_"  style="overflow:visible;"/>
	</clipPath>
	
		<radialGradient id="SVGID_9_" cx="-306.0523" cy="717.0751" r="9.6052" gradientTransform="matrix(11.5415 0 0 -11.5415 3706.8667 8638.3975)" gradientUnits="userSpaceOnUse">
		<stop  offset="0" style="stop-color:#95979A"/>
		<stop  offset="1" style="stop-color:#737577"/>
	</radialGradient>
	<rect x="114.9" y="375.7" class="st5" width="58.5" height="10.4"/>
</g>
<g>
	<defs>
		<path id="SVGID_10_" d="M235.7,246.7c0.1,5.5-0.1,12.9-1.2,23.1c-1.1,10.2-6.4,27.8-6.4,27.8s-8.9,26.6-14.7,35.8
			c-5.8,9.2-9.6,18.8-9.6,18.8s-6.7,10.1-9.4,13.5c-9.5-5.4-11.3-15.3-11.3-15.3c-7.3-9.6-18.4-75.6-18.4-75.6l-2,0.4l4.7,25.3
			l2.6,11.9c2.7,15,9.3,34.9,9.3,34.9s-0.3,3.1,4.8,10.6c5.1,7.6,9.3,8.9,9.3,8.9c-1.1,0.6,0,0.4,0,0.4l0.4-0.1l3.3,2.2
			c7.3,3.2,13.8,1.6,23.8,1.1c10-0.5,27-9.6,27-9.6l0.4-2.2c-20.3,9.6-24,8.9-28.3,10c-4.2,1.1-14.4,2.6-24.3-2.3l1.8-0.7l9.2-13.8
			l7.8-15.1c0,0,9.3-18,15.4-37.9c5.9-19.3,7.4-33.5,7.4-33.5s1.3-12.3,1-13.5c-0.2-1.2,0.1-13-1.1-16.5l-2.8-2.8
			C235.6,241.3,235.6,241.1,235.7,246.7"/>
	</defs>
	<clipPath id="SVGID_11_">
		<use xlink:href="#SVGID_10_"  style="overflow:visible;"/>
	</clipPath>
	
		<radialGradient id="SVGID_12_" cx="-306.7766" cy="716.9083" r="9.6052" gradientTransform="matrix(11.1696 0 0 -11.1696 3600.4275 8369.8838)" gradientUnits="userSpaceOnUse">
		<stop  offset="0" style="stop-color:#C9CACC"/>
		<stop  offset="1" style="stop-color:#95979A"/>
	</radialGradient>
	<rect x="162.7" y="232.6" class="st6" width="85.5" height="140.1"/>
</g>
<g>
	<defs>
		<path id="SVGID_13_" d="M79.2,268l4.6,9.7l6.3,10.7c0,0,7.5,9.5,10.3,14.4c2.7,4.9,23.3,26.9,23.3,26.9l26,23.4l12.9,9.5l4.1,4.6
			l10.3,12.7l14.9,2l16.2,8c0,0,16.3,6.6,17,6.9c0.7,0.3,15.5,3.8,15.5,3.8l5.8,1.1c0,0,7.5-3.3,1.4-2.9c-6.1,0.4-22.9-4.4-22.9-4.4
			s-10.8-4.7-12.6-4.9s-21.3-10.5-21.3-10.5h-8.7l-2.6-5c0,0-6.8-9.1-11.5-10.9c-4.7-1.7-17.3-11.9-17.3-11.9l-2.1-3.6
			c0,0-12.2-10.8-16.5-12.9c-4.3-2.1-31.3-34.2-31.3-34.2s-7.2-14-10.3-16c-2.9-1.9-10.1-18.5-11-20.7c-0.1-0.2-0.1-0.2-0.1-0.2
			L79.2,268z"/>
	</defs>
	<clipPath id="SVGID_14_">
		<use xlink:href="#SVGID_13_"  style="overflow:visible;"/>
	</clipPath>
	
		<radialGradient id="SVGID_15_" cx="-306.7722" cy="716.909" r="9.6052" gradientTransform="matrix(11.1708 0 0 -11.1708 3600.7954 8370.8047)" gradientUnits="userSpaceOnUse">
		<stop  offset="0" style="stop-color:#C9CACC"/>
		<stop  offset="1" style="stop-color:#95979A"/>
	</radialGradient>
	<rect x="79.2" y="263.7" class="st7" width="174.7" height="138"/>
</g>
<g>
	<defs>
		<path id="SVGID_16_" d="M114.3,376.3l5.5,2.1l20,2.6l19,1.3c0,0,7.9,0.5,10.3,1.9c2.5,1.3,3.7-2.2,3.7-2.2l-15.5-2.1
			c0,0-27.9-1.5-33.6-3.8c-1.8-0.7-3.3-1-4.6-1C116.1,375.1,114.3,376.3,114.3,376.3"/>
	</defs>
	<clipPath id="SVGID_17_">
		<use xlink:href="#SVGID_16_"  style="overflow:visible;"/>
	</clipPath>
	
		<radialGradient id="SVGID_18_" cx="-306.105" cy="717.125" r="9.6052" gradientTransform="matrix(11.5414 0 0 -11.5414 3706.7727 8638.2715)" gradientUnits="userSpaceOnUse">
		<stop  offset="0" style="stop-color:#C9CACC"/>
		<stop  offset="1" style="stop-color:#95979A"/>
	</radialGradient>
	<rect x="114.3" y="375.1" class="st8" width="58.5" height="10.4"/>
</g>
<g>
	<defs>
		<path id="SVGID_19_" d="M103,213.7c0,0-11.1,9.2-12.2,10.5c0.2-0.1,20-14.6,40-16.6l0.9,0.1l8.3-9.2
			C140,198.4,121.4,202.4,103,213.7"/>
	</defs>
	<clipPath id="SVGID_20_">
		<use xlink:href="#SVGID_19_"  style="overflow:visible;"/>
	</clipPath>
	
		<linearGradient id="SVGID_21_" gradientUnits="userSpaceOnUse" x1="-350.8874" y1="747.6128" x2="-341.2821" y2="747.6128" gradientTransform="matrix(4.3716 -0.5408 -0.5408 -4.3716 2039.0621 3291.5164)">
		<stop  offset="0" style="stop-color:#00AA72"/>
		<stop  offset="0.1165" style="stop-color:#00A96D"/>
		<stop  offset="0.645" style="stop-color:#00A758"/>
		<stop  offset="1" style="stop-color:#00A651"/>
	</linearGradient>
	<polygon class="st9" points="87.6,198.7 139.2,192.4 143.1,223.7 91.5,230.1 	"/>
</g>
<g>
	<defs>
		<path id="SVGID_22_" d="M171.5,198.2l-6.6,3.3l-4.4,2.6c0,0-6.6,4.9-10,3.4c-3.4-1.4-1.2-6.1-1.2-6.1s2.2-3.7,5.1-4.7l-2-0.7
			l-0.6,0.2c0,0-5.3,0.4-5.5,0.4c-0.1,0.1-4.5,1.1-4.5,1.1s-3.6,0.4-6.8,3.7c-3.3,3.3-5.9,9.4-7.6,13.9c-1.7,4.5-7.8,15.5-14.2,18
			c-6.4,2.6-9.2-0.9-9.2-0.9s-0.7-0.9-1.4-2.8c-0.7-1.9-2.7-4.8-5.2-4.9c-2.5-0.1-9.4-1.3-14.4,6.1l-5.8,7.3c0,0,9.4,0,15.8,11.9
			c0,0,4.9,18,5.8,20.1c0.8,2.1,2.4,8.3,8.1,13.1c5.8,4.9,19.1,7.2,28.8,5.3c9.7-1.9,19.2-6.4,36.1-19.2l10.1-8.5l10.2-8.9l10.9-8.2
			l14.3-7.8l13.9-6.5l14.5-4.4c0,0-3.7-6.1-6.8-5.6c-3.1,0.5-13.4,3.4-13.4,3.4s-13.7,6.2-24.8,3.8c-11.1-2.5,3.4-10.5,3.4-10.5
			l2.9-0.5l6.7-5.8l7.2,1.9l4.2,1.9l1.2,0.1l0.2,0c0,0-4.1-7-9.3-9.1c-5.2-2.1-13-0.7-19.3,2.7c-6.3,3.4-13.2,2.4-13.2,2.4
			s-6.5-1.6-3.7-3.2c2.9-1.6,15.1-5.1,15.1-5.1v-0.7c0,0-4.7-5.4-15.6-5.2c0,0-0.1,0-0.4,0C179.3,195.6,175.7,195.8,171.5,198.2"/>
	</defs>
	<clipPath id="SVGID_23_">
		<use xlink:href="#SVGID_22_"  style="overflow:visible;"/>
	</clipPath>
	
		<linearGradient id="SVGID_24_" gradientUnits="userSpaceOnUse" x1="-281.3846" y1="740.5824" x2="-271.7794" y2="740.5824" gradientTransform="matrix(-2.6028 -11.937 -11.937 2.6028 8280.0928 -4995.1753)">
		<stop  offset="0" style="stop-color:#FDB913"/>
		<stop  offset="0.2395" style="stop-color:#F8B513"/>
		<stop  offset="0.4944" style="stop-color:#EBAC13"/>
		<stop  offset="0.6143" style="stop-color:#D0980E"/>
		<stop  offset="1" style="stop-color:#7B5A00"/>
	</linearGradient>
	<polygon class="st10" points="85,325.6 57.5,199.7 238.3,160.3 265.7,286.2 	"/>
</g>
<g>
	<defs>
		<path id="SVGID_25_" d="M208,207.7c-2,1.1,2.6,2.4,2.6,2.4c12.6,2.3,22.2,9.5,27.7,13c5.4,3.5,18.5,13.8,18.5,13.8
			c1.3,1.5-0.4,0.9-0.4,0.9c-5.5-4.7-17.7-10.8-17.7-10.8c-27.5-12.6-41.1-14.4-41.1-14.4s-13.9-2.9-14.6,0.7
			c-0.8,3.7,6.7,5.6,6.7,5.6s4.7,1.2,24.4,7.3c19.7,6,41.8,20.8,42.7,21.4c0.9,0.6,1.6,1.7,1.1,2.6c-0.5,0.9-1.9,0.3-1.9,0.3
			c-22.4-10.7-35.8-15.7-62.8-21.4c-27-5.7-30.3-2.5-32,0.6c-1.7,3.1,7.3,5.1,7.3,5.1s35.6,9.1,50.8,14.4
			c15.1,5.3,26.1,10.6,28.8,12.4c2.7,1.8,6.7,4.6,5.5,7.1c-1.2,2.5-4.4,0.7-4.4,0.7l-23-8.6c-40.4-12.7-60.1-15.6-63.2-10
			c-3.1,5.6,5.5,7.4,5.5,7.4s30.2,6.8,65.2,23.3c34.9,16.4,38.7,31.9,37.8,42.6c-1,10.8-19,4.4-21.5,3.7c-2.5-0.7-10.9-2.6-17.1-1.6
			c-6.2,1.1-14,5.3-13.6,10.9c0.2,3.6,7.4,5,7.4,5c24.3,4.5,35.2,17,42.2,21.2c7.1,4.3,16.5-2.2,16.5-2.2c1.9-2.5,3.6-9,3.6-9
			c5.1-14.1,5-35.3,3.4-49.5c-0.7-6.7-1.8-14-4-21.1c-2.4-7.9-6.1-15.4-8.8-19.9c-5-8.5-13.8-23.4-27.1-34.3
			c-13.3-10.9-32.3-19-35.8-19.8c-3.4-0.8-5.1-0.9-5.1-0.9S210,206.6,208,207.7"/>
	</defs>
	<clipPath id="SVGID_26_">
		<use xlink:href="#SVGID_25_"  style="overflow:visible;"/>
	</clipPath>
	
		<linearGradient id="SVGID_27_" gradientUnits="userSpaceOnUse" x1="-303.6536" y1="722.7529" x2="-294.0484" y2="722.7529" gradientTransform="matrix(13.8032 0 0 -13.8032 4352.3013 10263.3965)">
		<stop  offset="0" style="stop-color:#F47F7A"/>
		<stop  offset="9.992192e-002" style="stop-color:#F2605F"/>
		<stop  offset="0.2184" style="stop-color:#F04245"/>
		<stop  offset="0.3355" style="stop-color:#EE2D33"/>
		<stop  offset="0.4493" style="stop-color:#ED2028"/>
		<stop  offset="0.5562" style="stop-color:#ED1C24"/>
		<stop  offset="0.9286" style="stop-color:#B81218"/>
		<stop  offset="1" style="stop-color:#AD1015"/>
	</linearGradient>
	<rect x="159.5" y="206.6" class="st11" width="134.8" height="160.9"/>
</g>
<g>
	<defs>
		<path id="SVGID_28_" d="M157.6,195.3c0,0-5.5,0.2-10.9,1.3c0,0,9.5-1.5,16.6,4.6c7.1,6.1,9.4,9.2,9.4,9.2s4.4,3.7,9.2,2.2
			c4.8-1.4,2.2-6.5,1.1-7.7c-1-1.2-8.1-9.6-23-9.6C159.3,195.2,158.5,195.2,157.6,195.3"/>
	</defs>
	<clipPath id="SVGID_29_">
		<use xlink:href="#SVGID_28_"  style="overflow:visible;"/>
	</clipPath>
	
		<linearGradient id="SVGID_30_" gradientUnits="userSpaceOnUse" x1="-242.9755" y1="741.5526" x2="-233.3703" y2="741.5526" gradientTransform="matrix(-3.6159 -3.1776 -3.1776 3.6159 1667.835 -3228.4417)">
		<stop  offset="0" style="stop-color:#FFCF01"/>
		<stop  offset="0.2697" style="stop-color:#FFCF01"/>
		<stop  offset="0.5023" style="stop-color:#FDCD01"/>
		<stop  offset="0.6233" style="stop-color:#F5C601"/>
		<stop  offset="0.7185" style="stop-color:#E7BA01"/>
		<stop  offset="0.8003" style="stop-color:#D4A901"/>
		<stop  offset="0.8735" style="stop-color:#BC9300"/>
		<stop  offset="0.9395" style="stop-color:#9E7900"/>
		<stop  offset="1" style="stop-color:#7B5A00"/>
	</linearGradient>
	<polygon class="st12" points="169.4,233.9 137.4,205.8 164.2,175.3 196.2,203.4 	"/>
</g>
<g>
	<defs>
		<path id="SVGID_31_" d="M184.5,195.8c3.3,0.3,12.6,2.2,19.4,13.7l1.8,3c0,0,3.7,6.8,8.7,6.3c4.9-0.4,3.1-6.4,0.9-9
			c-2.1-2.6-5.8-9-15.8-11.3c0,0-8.5-2.5-15.1-2.7L184.5,195.8z"/>
	</defs>
	<clipPath id="SVGID_32_">
		<use xlink:href="#SVGID_31_"  style="overflow:visible;"/>
	</clipPath>
	
		<linearGradient id="SVGID_33_" gradientUnits="userSpaceOnUse" x1="-249.4864" y1="737.2142" x2="-239.8811" y2="737.2142" gradientTransform="matrix(-3.7219 -3.2708 -3.2708 3.7219 1708.5959 -3331.3928)">
		<stop  offset="0" style="stop-color:#FFCF01"/>
		<stop  offset="0.2697" style="stop-color:#FFCF01"/>
		<stop  offset="0.5023" style="stop-color:#FDCD01"/>
		<stop  offset="0.6233" style="stop-color:#F5C601"/>
		<stop  offset="0.7185" style="stop-color:#E7BA01"/>
		<stop  offset="0.8003" style="stop-color:#D4A901"/>
		<stop  offset="0.8735" style="stop-color:#BC9300"/>
		<stop  offset="0.9395" style="stop-color:#9E7900"/>
		<stop  offset="1" style="stop-color:#7B5A00"/>
	</linearGradient>
	<polygon class="st13" points="204.2,236.5 172.8,209 199.7,178.4 231,205.9 	"/>
</g>
<g>
	<defs>
		<path id="SVGID_34_" d="M224.3,210.2c2.5,3.6,5.2,8.2,5.2,8.2s2.7,6,6.4,6c3.7,0,2-4.3,0.3-7.2c-1.7-2.9-4.4-5.4-7.5-7.3
			c-3.2-1.9-9.5-4.9-9.5-4.9l-1.9-0.8C217.2,204.2,221.8,206.6,224.3,210.2"/>
	</defs>
	<clipPath id="SVGID_35_">
		<use xlink:href="#SVGID_34_"  style="overflow:visible;"/>
	</clipPath>
	
		<linearGradient id="SVGID_36_" gradientUnits="userSpaceOnUse" x1="-239.6689" y1="739.7977" x2="-230.0637" y2="739.7977" gradientTransform="matrix(-2.7042 -2.3764 -2.3764 2.7042 1355.8153 -2340.4412)">
		<stop  offset="0" style="stop-color:#FFCF01"/>
		<stop  offset="0.2697" style="stop-color:#FFCF01"/>
		<stop  offset="0.5023" style="stop-color:#FDCD01"/>
		<stop  offset="0.6233" style="stop-color:#F5C601"/>
		<stop  offset="0.7185" style="stop-color:#E7BA01"/>
		<stop  offset="0.8003" style="stop-color:#D4A901"/>
		<stop  offset="0.8735" style="stop-color:#BC9300"/>
		<stop  offset="0.9395" style="stop-color:#9E7900"/>
		<stop  offset="1" style="stop-color:#7B5A00"/>
	</linearGradient>
	<polygon class="st14" points="229.8,235.5 207.2,215.6 226.9,193.1 249.6,213 	"/>
</g>
<g>
	<defs>
		<path id="SVGID_37_" d="M72.4,397.6c15.3,18.8,20.2,19.4,20.2,19.4s1.5,2.3,5.5,5.3c3.3,2.4,8.4,5.3,14.8,8.5
			c14.1,7.1,22.3,7.5,22.4,7.5l-1-8.3l-41.9-38.8l-21.9-12.7l-11.7-12.1l-6.6-3.7C52.3,362.6,57,378.7,72.4,397.6"/>
	</defs>
	<clipPath id="SVGID_38_">
		<use xlink:href="#SVGID_37_"  style="overflow:visible;"/>
	</clipPath>
	
		<linearGradient id="SVGID_39_" gradientUnits="userSpaceOnUse" x1="-255.3468" y1="702.7584" x2="-245.7416" y2="702.7584" gradientTransform="matrix(-5.7117 6.2557 6.2557 5.7117 -5751.6143 -2026.3738)">
		<stop  offset="0" style="stop-color:#58595B"/>
		<stop  offset="0.2973" style="stop-color:#8B8C8D"/>
		<stop  offset="0.6171" style="stop-color:#BBBCBD"/>
		<stop  offset="0.8618" style="stop-color:#D9DADB"/>
		<stop  offset="1" style="stop-color:#E4E5E6"/>
	</linearGradient>
	<polygon class="st15" points="173,397 97.6,479.5 14.7,403.8 90.1,321.3 	"/>
</g>
<g>
	<defs>
		<path id="SVGID_40_" d="M69,325.5l-8.6,11.9c0,0-6.5,9.9-8.8,14.3c-2.2,4.4,1.2,12.4,1.2,12.4s3.7,6.8,9.6,13.2
			c6,6.4,15.9,12.4,20,14.4c4.1,2.1,13.1,10.8,13.1,10.8l21.4,23.9c0,0,10.7,11.4,24.7,13.1c14,1.7,21.6-4.9,21.6-4.9l28.4-18.2
			c0,0,7.3-8.2,8.7-10.1c1.4-1.9,6-8.3,0.9-10.5c-5.2-2.2-9.9,4.8-9.9,4.8l-13.4,11.6c0,0-12.9,8.8-15.6,10.1
			c-2.7,1.4-5.1,1.9-5.1,1.9l-1.3,0.1c-1.3,0.1-9.9-2.3-3.6-6c6.2-3.7,20.6-15.3,20.6-15.3l12.7-12.1l13.9-15.9
			c0,0,5.9-7.9,1.3-10.7c-4.6-2.8-8.3,1.8-8.3,1.8s-14,13.9-17.6,17.7c-3.6,3.8-18.3,14.7-27,19.3c-8.8,4.6-6-5.8-3.3-7.1
			c2.7-1.3,25.7-22.4,25.7-22.4s16.5-17.8,17.2-18.5c0.7-0.8,6.6-6.3,1.7-10.1c-4.9-3.8-10.5,1.9-10.5,1.9s-8,6.6-16.6,15.1
			c-8.6,8.6-40.5,29.1-40.5,29.1c-3.7,2.7-6.3,0.2-6.3,0.2c-2.1-3.5,0.6-5.9,0.6-5.9l6.2-5.3c12.9-9,37.5-32.4,39.6-34.5
			c2.1-2.2,9.9-9.4,4.7-13.5c-5.2-4.1-11.2,1.6-11.2,1.6l-18.4,14.7l-30.2,21.9c-9,5.1-13.4,6-21.6,8.2c-8.2,2.2-11.1-2.7-14.8-10.8
			c-3.7-8,4.2-16.3,4.2-16.3c12.3-17.8,9.1-29.2,3.3-32.7c-0.8-0.5-1.6-0.7-2.3-0.7C71,318,69,325.5,69,325.5"/>
	</defs>
	<clipPath id="SVGID_41_">
		<use xlink:href="#SVGID_40_"  style="overflow:visible;"/>
	</clipPath>
	
		<linearGradient id="SVGID_42_" gradientUnits="userSpaceOnUse" x1="-300.9123" y1="725.4866" x2="-291.307" y2="725.4866" gradientTransform="matrix(19.0847 -11.4328 -11.4328 -19.0847 14107.4834 10819.5674)">
		<stop  offset="0" style="stop-color:#2E2E2F"/>
		<stop  offset="0.1331" style="stop-color:#525253"/>
		<stop  offset="0.3476" style="stop-color:#868687"/>
		<stop  offset="0.5489" style="stop-color:#AEAFB0"/>
		<stop  offset="0.7309" style="stop-color:#CCCDCE"/>
		<stop  offset="0.8873" style="stop-color:#DEDFE0"/>
		<stop  offset="1" style="stop-color:#E4E5E6"/>
	</linearGradient>
	<polygon class="st16" points="-4.9,350.5 164.9,248.8 260.7,408.7 90.9,510.5 	"/>
</g>
<g>
	<defs>
		<path id="SVGID_43_" d="M90.4,222.5c-8.4,6.6-18,17.6-22.2,23.6c-4.2,5.9-19.5,25.2-23.2,63.3c0,0-1.4,13.4,0.8,24.7
			c0,0,1.3,13.8,7.4,19.3c0,0,23.5,17.7,52.9,22.6c0,0,6,0.5,6.5-4.8c0.5-5.3-7.8-8.6-7.8-8.6s-19.5-6.8-21.4-8.5
			c-1.9-1.6-4.7-1.3-14.7-9.5c-10-8.2-10.4-14.1-8.6-16.7c1.8-2.7,5-1.1,8,0.1c3.1,1.2,18,6.9,18,6.9l41.1,11.6
			c0,0,16.8,5.7,19.4-1.5c2.7-7.2-4.9-10.2-7.8-11.3c-2.9-1.1-33.6-11.2-51.5-18.7c-17.9-7.5-19.5-7.5-18.4-15.1
			c0,0,0.9-4.8,13.5-2.3c13.5,2.8,41,8.2,41,8.2l38,7.9c0,0,10.4,2.5,12-3.6c1.6-6-4.9-9.6-9.4-11.2c-4.6-1.6-45.2-13.1-45.2-13.1
			l-24.6-6.3c0,0-22.3-2.6-15.2-12.1c0,0,2.1-3.2,18.5-1.8c16.4,1.4,45.5,7,54.4,9.6c9,2.6,19.3,4.3,21-2.2
			c1.7-6.5-4.6-9.4-14.3-12.3c-9.6-2.9-29-7.8-46.4-9.6c-17.5-1.8-28-2-28-2s-7.8,0-8.1-2.1c0,0-0.8-2.7,1.7-7.6
			c2.5-5,8.8-11.6,11.8-14l14-11.9C103.7,213.4,98.8,215.9,90.4,222.5"/>
	</defs>
	<clipPath id="SVGID_44_">
		<use xlink:href="#SVGID_43_"  style="overflow:visible;"/>
	</clipPath>
	
		<radialGradient id="SVGID_45_" cx="-310.1652" cy="725.5553" r="9.6052" gradientTransform="matrix(11.1301 0 0 -11.1301 3584.8601 8330.2002)" gradientUnits="userSpaceOnUse">
		<stop  offset="0" style="stop-color:#9BCFB3"/>
		<stop  offset="0.1111" style="stop-color:#87CAA6"/>
		<stop  offset="0.5387" style="stop-color:#3FB779"/>
		<stop  offset="0.8458" style="stop-color:#11AB5C"/>
		<stop  offset="1" style="stop-color:#00A651"/>
	</radialGradient>
	<rect x="43.5" y="213.4" class="st17" width="131.4" height="163.2"/>
</g>
<g>
	<path class="st18" d="M164.3,434.1l15.7-10.8l12.4-7.5c0,0,10.8-7,21.6-8.7c10.8-1.7,12.1-3.3,12.1-3.3s21.9-5.4,24.2-7.3
		c2.2-1.9,8.4-3.3,8.4-3.3s9.5-2.9,16.5-17.8l5-9.7c0,0,1,5.8-0.5,10.1c-1.5,4.3-4.8,9.6-4.8,9.6s-1.7,3.3-2,3.9
		c-0.3,0.6-3.9,4.6-3.9,4.6s-6.1,9-15.1,11.4c-9,2.3-37.5,36.9-75.7,36C140,440.2,164.3,434.1,164.3,434.1"/>
</g>
<g>
	<defs>
		<path id="SVGID_46_" d="M204.9,323.4c-7.8,1.3-5.4,10.3-5.4,10.3l2.6,18.6l3.2,21.6c0,0,2.9,28.8,3,34.5
			c0.1,5.7,1.7,15.6-4.9,16.6c-6.5,1-9.2-14.4-9.2-14.4l-3.8-13.2l-6.8-23l-5.6-19.1c-3-9.2-9.2-6.7-9.2-6.7
			c-8.4,2.4-4.7,15.2-4.7,15.2l5.8,31.5c0,0,6.3,27.8,7.3,33.3c1,5.6-3.3,10-12.2,3.9c-8.9-6.1-14.4-22.4-14.4-22.4
			s-3.9-12.3-5.1-16.7c-1.2-4.4-3.7-8-8.5-6.6c-4.8,1.4-4.4,8.3-4.4,8.3c-0.3,13.9,13.7,43.3,14.9,45.5c0.6,1.1,2.4,1.7,2.4,1.7
			c17.8,3.7,40.3-0.4,49.6-2.3c9.3-1.9,22.8-7.2,40.9-18.7c18.1-11.6,19-24.9,19.7-28.8c0.7-3.9,0.9-20.2-0.7-31.7
			c-1.6-11.5-6.6-24.7-6.6-24.7s-3-9.2-9.6-7c-6.5,2.2-2.1,5.5-0.2,23.4c1.9,17.9,0.9,29.5,1,36.5c0.1,7-2.9,17.8-2.9,17.8
			s-3.3,8.5-7.5,8.7c-4.2,0.2-5.5-10.1-5.5-12.2c0-2.1-2.2-18.9-2.2-18.9l-4.5-24.7l-6-26c0,0-2.4-10.4-9.3-10.4
			C205.8,323.3,205.3,323.3,204.9,323.4"/>
	</defs>
	<clipPath id="SVGID_47_">
		<use xlink:href="#SVGID_46_"  style="overflow:visible;"/>
	</clipPath>
	
		<linearGradient id="SVGID_48_" gradientUnits="userSpaceOnUse" x1="-288.6745" y1="739.1899" x2="-279.0693" y2="739.1899" gradientTransform="matrix(-4.6799 -12.2397 -12.2397 4.6799 7908.6606 -6567.4653)">
		<stop  offset="0" style="stop-color:#003965"/>
		<stop  offset="5.618000e-003" style="stop-color:#003965"/>
		<stop  offset="8.427000e-002" style="stop-color:#004778"/>
		<stop  offset="0.1706" style="stop-color:#034C7E"/>
		<stop  offset="0.281" style="stop-color:#0D5B8D"/>
		<stop  offset="0.4044" style="stop-color:#1E74A8"/>
		<stop  offset="0.5364" style="stop-color:#3496CC"/>
		<stop  offset="0.5562" style="stop-color:#389CD2"/>
		<stop  offset="0.6419" style="stop-color:#2595D1"/>
		<stop  offset="0.7627" style="stop-color:#108FD0"/>
		<stop  offset="0.8826" style="stop-color:#048ACF"/>
		<stop  offset="1" style="stop-color:#0089CF"/>
	</linearGradient>
	<polygon class="st19" points="148.8,489 91.4,338.9 244.7,280.4 302,430.4 	"/>
</g>
<g>
	<defs>
		<path id="SVGID_49_" d="M279.2,370.2c0.3,5.3-1.7,10.1-3,12.7c1.5-2.5,4.1-7,6.6-12.7c3.7-8.1,6.4-18.3,6.4-18.3
			C279.8,354.9,278.7,362.3,279.2,370.2"/>
	</defs>
	<clipPath id="SVGID_50_">
		<use xlink:href="#SVGID_49_"  style="overflow:visible;"/>
	</clipPath>
	
		<linearGradient id="SVGID_51_" gradientUnits="userSpaceOnUse" x1="-389.6762" y1="676.6237" x2="-380.069" y2="676.6237" gradientTransform="matrix(1.3537 0 0 -1.3537 803.7539 1283.3713)">
		<stop  offset="0" style="stop-color:#00395D"/>
		<stop  offset="0.3897" style="stop-color:#005381"/>
		<stop  offset="0.7799" style="stop-color:#0069A0"/>
		<stop  offset="1" style="stop-color:#0071AB"/>
	</linearGradient>
	<rect x="276.2" y="351.9" class="st20" width="13" height="31"/>
</g>
<g>
	<defs>
		<polygon id="SVGID_52_" points="276.2,382.9 276.2,382.9 276.3,382.8 		"/>
	</defs>
	<clipPath id="SVGID_53_">
		<use xlink:href="#SVGID_52_"  style="overflow:visible;"/>
	</clipPath>
	
		<linearGradient id="SVGID_54_" gradientUnits="userSpaceOnUse" x1="-13200.7998" y1="-6203.3862" x2="-13191.1943" y2="-6203.3862" gradientTransform="matrix(1.086710e-002 0 0 -1.086710e-002 419.6992 315.4425)">
		<stop  offset="0" style="stop-color:#00395D"/>
		<stop  offset="0.3897" style="stop-color:#005381"/>
		<stop  offset="0.7799" style="stop-color:#0069A0"/>
		<stop  offset="1" style="stop-color:#0071AB"/>
	</linearGradient>
	<rect x="276.2" y="382.8" class="st21" width="0.1" height="0.1"/>
</g>
<g>
	<defs>
		<path id="SVGID_55_" d="M145.3,195.6c-1.7,0.2-1.5,0.5-1.7,0.5c-0.1,0-1.9,7.9-1.9,7.9c-2.9,12.1-10,19.9-13.7,23.8
			c-27.7-9.3-47.1-3.9-50.3,6.8c0,0,5.5-7.4,12.9-8.5c3.9-0.6,14.4-3.4,35.3,4c0,0.1-0.1,0.2-0.2,0.3c-0.9,1.9-21.9,17.4-21.9,17.4
			L82,263.9c0,0-14.3,11.3-23.4,20.9c-9,9.6-13.5,23.2-13.5,23.2s-1.9,8.1-1.9,13.8c0,5.6,2.1,10.3,2.1,10.3l0-0.5
			C39,302.4,66.9,280,66.9,280c2.6-2.5,11.7-10.1,11.7-10.1l14.3-10.5l12.6-8.8c0,0,10.3-7.5,14.9-11c2.9-2.2,6.6-5.8,8.9-8.1
			c3.4,1.3,7,2.8,10.9,4.7c-3.2,3.4-6.3,7.2-9.5,11.3c-30.5,39.5-40.5,73.5-40.5,73.5s-20.3,49.2-4.6,87.8c0,0,4.5,11.3,16.8,16.2
			l-4.8-3.1l-4.6-4.3l-4.8-7l-1.3-3.4l-1.7-6.2c-4-19.1-2.6-27.4-2.6-27.4s0.2-11.9,5.2-31.9c2.1-8.3,11.1-46,39.9-84.5
			c5.5-7.4,10.8-13.8,15.8-19.4c3.4,1.7,7,3.7,10.8,5.8c0,0.1-0.1,0.2-0.2,0.3c-15.6,21.6-6.6,62.8-6.6,62.8
			c17.3,92.3,47,134.2,47,134.2c4,1.8,5.4-1,5.4-1c-2,0.2-2.9-0.6-2.9-0.6s-28.6-38.7-46-131c0,0-8.8-41.1,6.5-62.8l0.2,0.1
			c14.4,8.6,31.4,20.6,51.5,37.4c0,0,27.9,24.2,39,40.9c0,0,33.1,38.6,24.3,63.8c0,0,0.2,0.6-6.1,9c0,0,7.7-5.5,9-12.4
			c1.3-7,1.9-12.6-3.8-27.9c-5.7-15.4-29.2-49-53.3-70.6c-18.8-16.8-35.6-30.5-58.1-43c0,0,0,0,0,0c5.8-6.6,15.6-8.8,22.2-10.5
			c6.6-1.6,35.8-5.6,66.5,9.1c30.7,14.6,36.3,33.5,38.3,38.3c2.1,4.8,3.7,12.4,3.7,12.4c-0.2-5.6-2.9-13.8-2.9-13.8
			c-2.1-5-7.9-24.4-39.5-39.5c-31.6-15.1-61.7-11-68.4-9.3c-6.8,1.7-16.9,4-22.9,10.8c-0.2,0.2-0.3,0.4-0.5,0.6
			c-3.5-1.8-7.1-3.7-10.8-5.5c20.2-21.6,36.4-29.6,50.1-33.2c0,0,11.4-2.9,20.9,1.8c0,0,4.3,2,4.4,2c0.1,0-5.3-4.5-12.6-5.8
			c-7.3-1.2-13.9,0.1-15.1,0.4c-1.1,0.3-24.9,5.7-51.2,33.2c-0.9-0.4-1.8-0.8-2.7-1.2c-2.8-1.3-5.5-2.4-8.1-3.4
			c3.2-3.5,6.4-8.6,8.3-11.3c1.8-2.7,4.6-9.5,5.3-15.8c0.7-6.3,1.2-5.4,1.2-5.4l0,0l0.4,0l0-0.1
			C146.6,195.7,145.6,195.6,145.3,195.6L145.3,195.6z"/>
	</defs>
	<clipPath id="SVGID_56_">
		<use xlink:href="#SVGID_55_"  style="overflow:visible;"/>
	</clipPath>
	
		<radialGradient id="SVGID_57_" cx="-311.002" cy="726.6688" r="9.6052" gradientTransform="matrix(10.7192 0 0 -10.7192 3467.4504 8032.3037)" gradientUnits="userSpaceOnUse">
		<stop  offset="0" style="stop-color:#FFFFFF"/>
		<stop  offset="0.3976" style="stop-color:#FBFBFB"/>
		<stop  offset="0.8102" style="stop-color:#EEEFF0"/>
		<stop  offset="1" style="stop-color:#E6E7E8"/>
	</radialGradient>
	<rect x="39" y="195.6" class="st22" width="252" height="247.2"/>
</g>
<g>
	<path class="st23" d="M200.3,440c-2,0.3-2.8-0.7-2.8-0.7s-28.6-38.7-46-131c0,0-8.8-41.1,6.4-62.7l-0.6-0.4
		c-15.2,21.6-6.4,62.7-6.4,62.7c17.3,92.3,46,131,46,131l0.4,0.5C197.3,439.5,198,440.5,200.3,440"/>
	<path class="st23" d="M221.2,206.1c-0.1,0-4.4-2-4.4-2c-9.5-4.7-20.9-1.8-20.9-1.8c-13.6,3.6-29.8,11.6-50,33.1
		c-0.3-0.1-0.5-0.3-0.8-0.4c20.2-21.6,36.4-29.6,50-33.1c0,0,11.4-3,20.9,1.8c-0.8-0.4,4.8,2.1,4.6,2.1l0.6,0.2L221.2,206.1z"/>
	<path class="st23" d="M249,241.3c3.9,1.9,7.8,3.9,12.1,6.7c-3.7-2.4-8.1-4.8-12.9-7.1c-30.7-14.6-59.9-10.7-66.5-9
		c-6.6,1.6-16.2,3.8-22.1,10.3c0.2,0.1,0.5,0.3,0.7,0.5c5.8-6.6,15.5-8.8,22.1-10.4C189,230.8,218.3,226.7,249,241.3"/>
	<path class="st23" d="M146.2,196.6c-0.6,0.2-1.2,5.5-1.2,5.5c-0.7,6.3-3.5,13-5.4,15.8c-1.8,2.7-5,7.8-8.2,11.2
		c-0.3-0.1-0.6-0.2-0.8-0.3c3.2-3.5,6.5-8.6,8.3-11.4c1.8-2.8,4.5-9.6,5.3-15.8l0.6-4.2c0,0,0.1-1.9,1.7-0.8L146.2,196.6z"/>
	<path class="st23" d="M79.9,231.7c2.2-2.2,5-5,9.8-5.9c3.9-0.7,15.3-3.1,36.2,4.3c-0.1,0.1-0.1,0.1-0.1,0.2
		c-20.4-7-31.6-4.6-35.4-4c0,0-6,0.6-12.6,8C77.9,234.3,79.1,232.5,79.9,231.7"/>
	<path class="st23" d="M143.8,237.9c-5.1,5.6-10.3,12-15.9,19.4C99,295.8,90.1,333.4,88,341.8c-5,20-5.2,31.9-5.2,31.9
		s-1.4,8.3,2.6,27.4c2.6,12.4,9.8,19.1,14.6,22.3c-4.7-3-12.5-9.7-15.3-22.7c-4-19.1-2.6-27.4-2.6-27.4s0.2-11.9,5.2-31.9
		c2.1-8.3,11.1-46,39.9-84.4c5.5-7.4,10.9-13.8,15.9-19.4c3.4,1.7,7.8,4.1,11.4,6.1l-0.1,0.1L143.8,237.9"/>
	<path class="st23" d="M44,327.7c-3-27.9,22.2-48.1,22.2-48.1c2.6-2.6,11.7-10.2,11.7-10.2L92.1,259l12.6-8.8c0,0,10.3-7.5,14.9-11
		c2.9-2.2,6.6-5.8,8.8-8.1c3.4,1.3,7.7,3.2,11.6,5c0,0-0.1,0.1-0.1,0.1c-3.6-1.7-7.7-3.5-10.8-4.7c-2.3,2.3-6,5.9-8.8,8.1
		c-4.6,3.5-14.9,11-14.9,11l-12.6,8.8l-14.3,10.5c0,0-9.1,7.6-11.7,10.2c0,0-26.7,20.6-21.7,51C45.2,331.1,44.1,328.7,44,327.7"/>
</g>
</svg>
