<svg xmlns="http://www.w3.org/2000/svg" viewBox="0 0 324 76">
  <g fill="none" stroke-width="2">
    <path stroke="#80d6f7" d="m46.45 21.78-1.08-1.03q-.51-.48-1.21-.51l-3.41-.16q-1.77-.07-.43 1.08l3.38 2.94q.44.38 1.02.37l4.93-.02a1 1 0 0 0 .65-.24l3.66-3.18q1.31-1.13-.41-1.02l-3.99.26a1.02.99-74.7 0 0-.78.46q-.49.76-1.28 1.19a.91.9-37.1 0 1-1.05-.14M79.07 49.18c-3.89 3.34-10.24.9-13.03-2.36q-.42-.5-.96-.12l-3.49 2.43a.63.63 0 0 0-.14.9q3.69 4.78 9.8 5.46c5.81.64 14.18-1.03 14.62-8.44.51-8.58-8.87-9.21-15.11-10.52-2.93-.61-3.15-4.37-.36-5.46q6.42-2.51 10.64 3.35a.29.29 0 0 0 .4.06l4.02-3.06q.26-.2.04-.45-6.97-8.05-16.92-4.55c-7.32 2.58-8.3 12.58-.37 15.2q3.67 1.21 7.95 1.9c2.52.4 5.87 3.11 2.91 5.66M123.9971 55.7794a15.23 13.87 90.5 0 0 14.0024-15.1084 15.23 13.87 90.5 0 0-13.7366-15.3504 15.23 13.87 90.5 0 0-14.0024 15.1084 15.23 13.87 90.5 0 0 13.7366 15.3504" vector-effect="non-scaling-stroke"/>
    <path stroke="#c6e39e" d="M244.23 40.23c-.31-12.61 15.93-13.04 16.32.09q0 .21.22.21l5.17-.03q.25 0 .25-.25c-.25-19.3-26.69-19.9-27.74-.02a.3.3 0 0 0 .3.31l5.23-.05q.26 0 .25-.26" vector-effect="non-scaling-stroke"/>
    <path stroke="#80d6f7" d="M23.3 33.36q.21 10.71-.27 21.13a.34.34 0 0 0 .35.36l4.62-.04q.33 0 .33-.33V26.56a.39.39 0 0 0-.39-.39h-6.98a.62.61-82.6 0 0-.59.46l-4.85 19.11q-.47 1.83-.94 0L9.66 26.72a.73.72 82.8 0 0-.7-.55l-6.98.02a.38.37 0 0 0-.38.37l-.01 27.88a.41.4 0 0 0 .41.4l4.54-.02q.49 0 .47-.49-.41-10.11-.6-19.31-.09-4.11.94-.13l4.97 19.25a.89.89 0 0 0 .85.67l3.85.1q.44.01.54-.41l5.41-21.18q.31-1.2.33.04M41.62 31.37a.37.37 0 0 1 .37-.37l14.26.02a.37.37 0 0 0 .37-.37l.05-4.08a.37.37 0 0 0-.37-.37l-19.46-.01a.37.37 0 0 0-.37.37v27.89a.37.37 0 0 0 .37.37l20.66.02a.37.37 0 0 0 .37-.38l-.05-4.15a.37.37 0 0 0-.38-.37L42 50a.37.37 0 0 1-.37-.37l-.03-6.99a.37.37 0 0 1 .37-.37l13 .02a.37.37 0 0 0 .37-.37l.02-3.8a.37.37 0 0 0-.37-.37l-13.01.01a.37.37 0 0 1-.37-.37l.01-6.02M95.58 30.96a.43.43 0 0 1 .44.43l-.03 23.02a.43.43 0 0 0 .43.43l4.56.05a.43.43 0 0 0 .43-.43l.01-23.09a.43.43 0 0 1 .44-.43l6.87.09a.43.43 0 0 0 .44-.42l.04-4.02a.43.43 0 0 0-.43-.44l-20.17.05a.43.43 0 0 0-.42.43l.04 4.03a.43.43 0 0 0 .44.42l6.91-.12" vector-effect="non-scaling-stroke"/>
    <path stroke="#c6e39e" d="M222.09 31.24a.44.44 0 0 1 .45.44l-.03 23.13a.44.44 0 0 0 .45.44l4.63-.12a.44.44 0 0 0 .43-.44l-.13-23a.44.44 0 0 1 .45-.45l6.94.06a.44.44 0 0 0 .45-.44l.06-4.15a.44.44 0 0 0-.44-.45l-20.37-.04a.44.44 0 0 0-.44.44l.01 4.31a.44.44 0 0 0 .45.44l7.09-.17M152.65 41.99a.34.34 0 0 1 .56.05l7.29 12.97a.34.34 0 0 0 .3.17l5.6-.05a.34.34 0 0 0 .29-.5l-9.78-17.27a.34.34 0 0 1 .04-.39l8.95-10.17a.34.34 0 0 0-.26-.57l-5.78.04a.34.34 0 0 0-.25.12l-10.65 12.24a.34.34 0 0 1-.59-.23l.1-11.8a.34.34 0 0 0-.35-.35l-4.72.04a.34.34 0 0 0-.34.34l-.04 28.17a.34.34 0 0 0 .34.34h4.73a.34.34 0 0 0 .34-.34l.02-7.77a.34.34 0 0 1 .08-.23l4.12-4.81M187.76 50.56a.52.52 0 0 0-.53-.53l-10.2.09a.52.52 0 0 1-.53-.52l.01-22.86a.52.52 0 0 0-.52-.52l-4.51.04a.52.52 0 0 0-.52.52l-.01 27.88a.52.52 0 0 0 .52.52l15.69-.01a.52.52 0 0 0 .52-.51l.08-4.1M206.8 49.49a.55.55 0 0 1 .53.4l1.38 4.89a.55.55 0 0 0 .53.4H214a.55.55 0 0 0 .52-.73l-9.48-27.84a.55.55 0 0 0-.52-.37l-5.45.02a.55.55 0 0 0-.52.37l-9.4 27.86a.55.55 0 0 0 .54.73l4.8-.12a.55.55 0 0 0 .51-.4l1.4-4.79a.55.55 0 0 1 .52-.4l9.88-.02M280.97 47.49a.37.37 0 0 1-.71.01l-5.89-20.99a.37.37 0 0 0-.36-.27l-5.13.02a.37.37 0 0 0-.35.47l8.34 28.18a.37.37 0 0 0 .36.27l6.74-.05a.37.37 0 0 0 .36-.27l8.03-28.12a.37.37 0 0 0-.36-.47l-5.01-.04a.37.37 0 0 0-.36.28l-5.66 20.98M307.47 37.37a.44.43 45.6 0 1-.77-.01l-5.55-10.78q-.14-.27-.44-.29-2.94-.19-5.83.09a.11.11 0 0 0-.09.17l9.27 16.68q.26.47.26 1l-.07 10.26q-.01.76.75.75l3.97-.04q.69-.01.7-.7.08-4.51-.07-8.64-.07-1.89 1.04-3.84 4.54-7.97 8.74-15.54a.13.13 0 0 0-.11-.19l-5.79-.05q-.22 0-.32.19l-5.69 10.94" vector-effect="non-scaling-stroke"/>
    <path stroke="#80d6f7" d="M252.07 45.26a.31.31 0 0 1 .48 0l7.28 8.87a.31.31 0 0 0 .23.11l4.85.09a.31.31 0 0 0 .25-.51l-12.63-15.79a.31.31 0 0 0-.48 0l-12.6 15.8a.31.31 0 0 0 .25.5l4.85-.07a.31.31 0 0 0 .23-.11l7.29-8.89" vector-effect="non-scaling-stroke"/>
    <path stroke="#80d6f7" d="M254.88 56.72a2.6 2.6 0 0 0-2.6-2.6 2.6 2.6 0 0 0-2.6 2.6 2.6 2.6 0 0 0 2.6 2.6 2.6 2.6 0 0 0 2.6-2.6M124.4365 50.6765a10.18 8.39 88.5 0 0 8.1206-10.3961 10.18 8.39 88.5 0 0-8.6536-9.9569 10.18 8.39 88.5 0 0-8.1206 10.3961 10.18 8.39 88.5 0 0 8.6536 9.9569" vector-effect="non-scaling-stroke"/>
    <path stroke="#c6e39e" d="M198.14 44.27a.34.34 0 0 0 .33.43h6.78a.34.34 0 0 0 .33-.43l-3.39-11.44a.34.34 0 0 0-.66 0l-3.39 11.44" vector-effect="non-scaling-stroke"/>
  </g>
  <path fill="#fff" d="M0 0h324v76H0V0Zm46.45 21.78-1.08-1.03q-.51-.48-1.21-.51l-3.41-.16q-1.77-.07-.43 1.08l3.38 2.94q.44.38 1.02.37l4.93-.02a1 1 0 0 0 .65-.24l3.66-3.18q1.31-1.13-.41-1.02l-3.99.26a1.02.99-74.7 0 0-.78.46q-.49.76-1.28 1.19a.91.9-37.1 0 1-1.05-.14Zm32.62 27.4c-3.89 3.34-10.24.9-13.03-2.36q-.42-.5-.96-.12l-3.49 2.43a.63.63 0 0 0-.14.9q3.69 4.78 9.8 5.46c5.81.64 14.18-1.03 14.62-8.44.51-8.58-8.87-9.21-15.11-10.52-2.93-.61-3.15-4.37-.36-5.46q6.42-2.51 10.64 3.35a.29.29 0 0 0 .4.06l4.02-3.06q.26-.2.04-.45-6.97-8.05-16.92-4.55c-7.32 2.58-8.3 12.58-.37 15.2q3.67 1.21 7.95 1.9c2.52.4 5.87 3.11 2.91 5.66Zm44.9271 6.5994a15.23 13.87 90.5 0 0 14.0024-15.1084 15.23 13.87 90.5 0 0-13.7366-15.3504 15.23 13.87 90.5 0 0-14.0024 15.1084 15.23 13.87 90.5 0 0 13.7366 15.3504ZM244.23 40.23c-.31-12.61 15.93-13.04 16.32.09q0 .21.22.21l5.17-.03q.25 0 .25-.25c-.25-19.3-26.69-19.9-27.74-.02a.3.3 0 0 0 .3.31l5.23-.05q.26 0 .25-.26ZM23.3 33.36q.21 10.71-.27 21.13a.34.34 0 0 0 .35.36l4.62-.04q.33 0 .33-.33V26.56a.39.39 0 0 0-.39-.39h-6.98a.62.61-82.6 0 0-.59.46l-4.85 19.11q-.47 1.83-.94 0L9.66 26.72a.73.72 82.8 0 0-.7-.55l-6.98.02a.38.37 0 0 0-.38.37l-.01 27.88a.41.4 0 0 0 .41.4l4.54-.02q.49 0 .47-.49-.41-10.11-.6-19.31-.09-4.11.94-.13l4.97 19.25a.89.89 0 0 0 .85.67l3.85.1q.44.01.54-.41l5.41-21.18q.31-1.2.33.04Zm18.32-1.99a.37.37 0 0 1 .37-.37l14.26.02a.37.37 0 0 0 .37-.37l.05-4.08a.37.37 0 0 0-.37-.37l-19.46-.01a.37.37 0 0 0-.37.37v27.89a.37.37 0 0 0 .37.37l20.66.02a.37.37 0 0 0 .37-.38l-.05-4.15a.37.37 0 0 0-.38-.37L42 50a.37.37 0 0 1-.37-.37l-.03-6.99a.37.37 0 0 1 .37-.37l13 .02a.37.37 0 0 0 .37-.37l.02-3.8a.37.37 0 0 0-.37-.37l-13.01.01a.37.37 0 0 1-.37-.37l.01-6.02Zm53.96-.41a.43.43 0 0 1 .44.43l-.03 23.02a.43.43 0 0 0 .43.43l4.56.05a.43.43 0 0 0 .43-.43l.01-23.09a.43.43 0 0 1 .44-.43l6.87.09a.43.43 0 0 0 .44-.42l.04-4.02a.43.43 0 0 0-.43-.44l-20.17.05a.43.43 0 0 0-.42.43l.04 4.03a.43.43 0 0 0 .44.42l6.91-.12Zm126.51.28a.44.44 0 0 1 .45.44l-.03 23.13a.44.44 0 0 0 .45.44l4.63-.12a.44.44 0 0 0 .43-.44l-.13-23a.44.44 0 0 1 .45-.45l6.94.06a.44.44 0 0 0 .45-.44l.06-4.15a.44.44 0 0 0-.44-.45l-20.37-.04a.44.44 0 0 0-.44.44l.01 4.31a.44.44 0 0 0 .45.44l7.09-.17Zm-69.44 10.75a.34.34 0 0 1 .56.05l7.29 12.97a.34.34 0 0 0 .3.17l5.6-.05a.34.34 0 0 0 .29-.5l-9.78-17.27a.34.34 0 0 1 .04-.39l8.95-10.17a.34.34 0 0 0-.26-.57l-5.78.04a.34.34 0 0 0-.25.12l-10.65 12.24a.34.34 0 0 1-.59-.23l.1-11.8a.34.34 0 0 0-.35-.35l-4.72.04a.34.34 0 0 0-.34.34l-.04 28.17a.34.34 0 0 0 .34.34h4.73a.34.34 0 0 0 .34-.34l.02-7.77a.34.34 0 0 1 .08-.23l4.12-4.81Zm35.11 8.57a.52.52 0 0 0-.53-.53l-10.2.09a.52.52 0 0 1-.53-.52l.01-22.86a.52.52 0 0 0-.52-.52l-4.51.04a.52.52 0 0 0-.52.52l-.01 27.88a.52.52 0 0 0 .52.52l15.69-.01a.52.52 0 0 0 .52-.51l.08-4.1Zm19.04-1.07a.55.55 0 0 1 .53.4l1.38 4.89a.55.55 0 0 0 .53.4H214a.55.55 0 0 0 .52-.73l-9.48-27.84a.55.55 0 0 0-.52-.37l-5.45.02a.55.55 0 0 0-.52.37l-9.4 27.86a.55.55 0 0 0 .54.73l4.8-.12a.55.55 0 0 0 .51-.4l1.4-4.79a.55.55 0 0 1 .52-.4l9.88-.02Zm74.17-2a.37.37 0 0 1-.71.01l-5.89-20.99a.37.37 0 0 0-.36-.27l-5.13.02a.37.37 0 0 0-.35.47l8.34 28.18a.37.37 0 0 0 .36.27l6.74-.05a.37.37 0 0 0 .36-.27l8.03-28.12a.37.37 0 0 0-.36-.47l-5.01-.04a.37.37 0 0 0-.36.28l-5.66 20.98Zm26.5-10.12a.44.43 45.6 0 1-.77-.01l-5.55-10.78q-.14-.27-.44-.29-2.94-.19-5.83.09a.11.11 0 0 0-.09.17l9.27 16.68q.26.47.26 1l-.07 10.26q-.01.76.75.75l3.97-.04q.69-.01.7-.7.08-4.51-.07-8.64-.07-1.89 1.04-3.84 4.54-7.97 8.74-15.54a.13.13 0 0 0-.11-.19l-5.79-.05q-.22 0-.32.19l-5.69 10.94Zm-55.4 7.89a.31.31 0 0 1 .48 0l7.28 8.87a.31.31 0 0 0 .23.11l4.85.09a.31.31 0 0 0 .25-.51l-12.63-15.79a.31.31 0 0 0-.48 0l-12.6 15.8a.31.31 0 0 0 .25.5l4.85-.07a.31.31 0 0 0 .23-.11l7.29-8.89Zm2.81 11.46a2.6 2.6 0 0 0-2.6-2.6 2.6 2.6 0 0 0-2.6 2.6 2.6 2.6 0 0 0 2.6 2.6 2.6 2.6 0 0 0 2.6-2.6Z"/>
  <path fill="#00acee" d="M47.5 21.92q.79-.43 1.28-1.19a1.02.99-74.7 0 1 .78-.46l3.99-.26q1.72-.11.41 1.02l-3.66 3.18a1 1 0 0 1-.65.24l-4.93.02q-.58.01-1.02-.37l-3.38-2.94q-1.34-1.15.43-1.08l3.41.16q.7.03 1.21.51l1.08 1.03a.91.9-37.1 0 0 1.05.14ZM66.04 46.82c2.79 3.26 9.14 5.7 13.03 2.36 2.96-2.55-.39-5.26-2.91-5.66q-4.28-.69-7.95-1.9c-7.93-2.62-6.95-12.62.37-15.2q9.95-3.5 16.92 4.55.22.25-.04.45l-4.02 3.06a.29.29 0 0 1-.4-.06q-4.22-5.86-10.64-3.35c-2.79 1.09-2.57 4.85.36 5.46 6.24 1.31 15.62 1.94 15.11 10.52-.44 7.41-8.81 9.08-14.62 8.44q-6.11-.68-9.8-5.46a.63.63 0 0 1 .14-.9l3.49-2.43q.54-.38.96.12ZM123.9971 55.7794a15.23 13.87 90.5 0 1-13.7366-15.3504 15.23 13.87 90.5 0 1 14.0024-15.1084 15.23 13.87 90.5 0 1 13.7366 15.3504 15.23 13.87 90.5 0 1-14.0024 15.1084Zm.4394-5.1029a10.18 8.39 88.5 0 0 8.1206-10.3961 10.18 8.39 88.5 0 0-8.6536-9.9569 10.18 8.39 88.5 0 0-8.1206 10.3961 10.18 8.39 88.5 0 0 8.6536 9.9569Z"/>
  <path fill="#8cc63d" d="M260.55 40.32c-.39-13.13-16.63-12.7-16.32-.09q.01.26-.25.26l-5.23.05a.3.3 0 0 1-.3-.31c1.05-19.88 27.49-19.28 27.74.02q0 .25-.25.25l-5.17.03q-.22 0-.22-.21Z"/>
  <path fill="#00acee" d="M22.97 33.32 17.56 54.5q-.1.42-.54.41l-3.85-.1a.89.89 0 0 1-.85-.67L7.35 34.89q-1.03-3.98-.94.13.19 9.2.6 19.31.02.49-.47.49L2 54.84a.41.4 0 0 1-.41-.4l.01-27.88a.38.37 0 0 1 .38-.37l6.98-.02a.73.72 82.8 0 1 .7.55l4.92 19.02q.47 1.83.94 0l4.85-19.11a.62.61-82.6 0 1 .59-.46h6.98a.39.39 0 0 1 .39.39v27.92q0 .33-.33.33l-4.62.04a.34.34 0 0 1-.35-.36q.48-10.42.27-21.13-.02-1.24-.33-.04ZM41.62 31.37l-.01 6.02a.37.37 0 0 0 .37.37l13.01-.01a.37.37 0 0 1 .37.37l-.02 3.8a.37.37 0 0 1-.37.37l-13-.02a.37.37 0 0 0-.37.37l.03 6.99A.37.37 0 0 0 42 50l15.44-.06a.37.37 0 0 1 .38.37l.05 4.15a.37.37 0 0 1-.37.38l-20.66-.02a.37.37 0 0 1-.37-.37V26.56a.37.37 0 0 1 .37-.37l19.46.01a.37.37 0 0 1 .37.37l-.05 4.08a.37.37 0 0 1-.37.37L41.99 31a.37.37 0 0 0-.37.37ZM95.58 30.96l-6.91.12a.43.43 0 0 1-.44-.42l-.04-4.03a.43.43 0 0 1 .42-.43l20.17-.05a.43.43 0 0 1 .43.44l-.04 4.02a.43.43 0 0 1-.44.42l-6.87-.09a.43.43 0 0 0-.44.43l-.01 23.09a.43.43 0 0 1-.43.43l-4.56-.05a.43.43 0 0 1-.43-.43l.03-23.02a.43.43 0 0 0-.44-.43Z"/>
  <path fill="#8cc63d" d="m222.09 31.24-7.09.17a.44.44 0 0 1-.45-.44l-.01-4.31a.44.44 0 0 1 .44-.44l20.37.04a.44.44 0 0 1 .44.45l-.06 4.15a.44.44 0 0 1-.45.44l-6.94-.06a.44.44 0 0 0-.45.45l.13 23a.44.44 0 0 1-.43.44l-4.63.12a.44.44 0 0 1-.45-.44l.03-23.13a.44.44 0 0 0-.45-.44ZM152.65 41.99l-4.12 4.81a.34.34 0 0 0-.08.23l-.02 7.77a.34.34 0 0 1-.34.34h-4.73a.34.34 0 0 1-.34-.34l.04-28.17a.34.34 0 0 1 .34-.34l4.72-.04a.34.34 0 0 1 .35.35l-.1 11.8a.34.34 0 0 0 .59.23l10.65-12.24a.34.34 0 0 1 .25-.12l5.78-.04a.34.34 0 0 1 .26.57l-8.95 10.17a.34.34 0 0 0-.04.39l9.78 17.27a.34.34 0 0 1-.29.5l-5.6.05a.34.34 0 0 1-.3-.17l-7.29-12.97a.34.34 0 0 0-.56-.05ZM187.76 50.56l-.08 4.1a.52.52 0 0 1-.52.51l-15.69.01a.52.52 0 0 1-.52-.52l.01-27.88a.52.52 0 0 1 .52-.52l4.51-.04a.52.52 0 0 1 .52.52l-.01 22.86a.52.52 0 0 0 .53.52l10.2-.09a.52.52 0 0 1 .53.53ZM206.8 49.49l-9.88.02a.55.55 0 0 0-.52.4L195 54.7a.55.55 0 0 1-.51.4l-4.8.12a.55.55 0 0 1-.54-.73l9.4-27.86a.55.55 0 0 1 .52-.37l5.45-.02a.55.55 0 0 1 .52.37l9.48 27.84a.55.55 0 0 1-.52.73h-4.76a.55.55 0 0 1-.53-.4l-1.38-4.89a.55.55 0 0 0-.53-.4Zm-8.66-5.22a.34.34 0 0 0 .33.43h6.78a.34.34 0 0 0 .33-.43l-3.39-11.44a.34.34 0 0 0-.66 0l-3.39 11.44ZM280.97 47.49l5.66-20.98a.37.37 0 0 1 .36-.28l5.01.04a.37.37 0 0 1 .36.47l-8.03 28.12a.37.37 0 0 1-.36.27l-6.74.05a.37.37 0 0 1-.36-.27l-8.34-28.18a.37.37 0 0 1 .35-.47l5.13-.02a.37.37 0 0 1 .36.27l5.89 20.99a.37.37 0 0 0 .71-.01ZM307.47 37.37l5.69-10.94q.1-.19.32-.19l5.79.05a.13.13 0 0 1 .11.19q-4.2 7.57-8.74 15.54-1.11 1.95-1.04 3.84.15 4.13.07 8.64-.01.69-.7.7l-3.97.04q-.76.01-.75-.75l.07-10.26q0-.53-.26-1l-9.27-16.68a.11.11 0 0 1 .09-.17q2.89-.28 5.83-.09.3.02.44.29l5.55 10.78a.44.43 45.6 0 0 .77.01Z"/>
  <path fill="#00acee" d="m252.07 45.26-7.29 8.89a.31.31 0 0 1-.23.11l-4.85.07a.31.31 0 0 1-.25-.5l12.6-15.8a.31.31 0 0 1 .48 0l12.63 15.79a.31.31 0 0 1-.25.51l-4.85-.09a.31.31 0 0 1-.23-.11l-7.28-8.87a.31.31 0 0 0-.48 0Z"/>
  <circle cx="252.28" cy="56.72" r="2.6" fill="#00acee"/>
  <ellipse fill="#fff" rx="10.18" ry="8.39" transform="rotate(88.5 41.297794 83.982035)"/>
  <path fill="#fff" d="m198.14 44.27 3.39-11.44a.34.34 0 0 1 .66 0l3.39 11.44a.34.34 0 0 1-.33.43h-6.78a.34.34 0 0 1-.33-.43Z"/>
</svg>
