<svg xmlns="http://www.w3.org/2000/svg" viewBox="-0.71 0 209.71 242.8">
  <g fill="none" stroke-width="2">
    <path stroke="#a7d4ed" d="M208 185.6q-1-4.37-5-6.87-4.8-3-9.39-6.1c-3.35-2.26-5.92-6.2-4.27-10.33q1.66-4.16 6.06-4.05c1.33.03 3.09.21 3.29 1.9q.34 2.97 1.12 5.99.22.84 1.1.84 1.44-.02 2.54-.82.56-.41.54-1.11-.12-3.82-.06-7.43.03-2.3-2.21-2.86-12.2-3.06-19.43 6.61c-4.78 6.38-1.01 14.25 4.81 18.3q5.21 3.63 10.26 7.32 4.64 3.39 2.59 8.67c-2.35 6.07-10.58 6.94-15.58 3.03q-5.86-4.58-2.94-11.92.24-.61-.39-.78l-3.53-1q-.86-.24-1.01.63-1.31 7.2-.95 14.08c.22 4.29 11.33 5.36 14.58 5.18q12.73-.71 17.87-12.35" vector-effect="non-scaling-stroke"/>
    <path stroke="#929291" d="M115.05 89.45q-.26 1.13-.84.12-1.47-2.58-2.13-5.72c-2.54-12.1-2.97-24.67-3.63-37.48-.22-4.28-1.53-8.42-1.91-12.64q-1.39-15.64-2.52-31.02-.03-.47-.49-.38l-.34.07q-.17.03-.19.2-1.41 14.69-3.16 29.13-.57 4.75-1.5 9.51-1.04 5.3-1.17 12-.17 9.29-1.62 21.51-.8 6.79-2.56 12.54-.37 1.21-1.06 2.24-.66.99-.9-.17-2.37-11.41-4.82-22.99-.09-.43-.42-.67-.49-.37-1.05-.11a.84.84 0 0 0-.48.67c-.63 6.2-.87 12.15-2.83 18.17q-1.03 3.2-1.07 6.73-.14 11.31-.11 22.69.01.63-.61.76l-1.39.29a.66.66 0 0 0-.44.96q2.84 5.2 2.84 11.26-.02 41.83.1 76.68 0 .46.46.46l43.56.01a.67.66 90 0 0 .66-.67q.08-39.13.03-77.12 0-4.97 2.69-10.54.27-.56-.26-.89-.33-.2-.72-.27a1.53 1.52-85.5 0 1-1.23-1.45q-.32-10.24-.13-20.87.08-4.19-1.06-7.89c-1.85-6.02-2.59-11.87-2.83-18.32q-.02-.53-.53-.65-.36-.09-.72.07-.43.19-.65.87-.6 1.84-.77 2.71-2 10.38-4.2 20.2" vector-effect="non-scaling-stroke"/>
    <path stroke="#a7d4ed" d="M141.53 169.82q-.29-1.01-.22-2.25 1.15-21.25 7.69-40.81c1.45-4.33 3.37-9.22 6.91-11.41q2.43-1.49 2.33-4.44-.02-.56-.58-.56l-12.14-.15q-.59 0-.78.55c-.44 1.32-.44 2.87-.91 4.15-3.63 9.93-6.14 18.29-7.98 27.77-1.48 7.65-1.73 15.04-2.68 22.69-1.15 9.32-.9 18.71-2 28.06q-.51 4.37-.12 8.57.04.45.49.46l6.24.07q.58 0 .56-.57-.17-7.98 2.03-17.95.99-4.47 3.32-8.08c1.86-2.91 13.91-22.99 18.35-13.23q.72 1.57.25 3.29c-2.33 8.52-10.59 12.7-18.92 12.86a.89.89 0 0 0-.71 1.4q11.64 16.71 26.62 32.03c1.42 1.45 4.38 2.63 6.27 1.44a1.18 1.18 0 0 0 .41-1.53q-1.29-2.54-3-4.62-6.51-7.96-12.43-15.93-3.47-4.67-5.83-10.28a.71.71 0 0 1 .54-.97c5.76-.93 11.68-4.99 14.86-9.96 3.32-5.18 2.53-12.5-3.49-15.32-5.78-2.72-13.32 1.01-17.02 5.54q-3.67 4.5-7.4 9.31-.46.59-.66-.13M43.72 179.39q1.22-11.6 2.05-24.6a.64.63 1.6 0 0-.65-.68l-7.12.15q-1.03.03-1.66.83l-19.77 25.03q-.81 1.02-.7-.24l2.1-24.75a.5.5 0 0 0-.6-.54l-15.99 2.95q-1.11.21-1.09 1.34l.05 3.32q.01.83.83.67l5.78-1.13q.58-.12.55.47l-2.07 39.6q-.03.66.63.65l6.5-.08q.73-.01.88-.74c2.31-11.58 8.7-22.11 15.81-31.83q2.55-3.5 5.64-6a.52.52 0 0 1 .84.44l-2.52 37.46a.76.75-88.6 0 0 .77.81c3.2-.07 6.01.73 7.46-3.05 1.7-4.4 2.97-8.89 5.15-13.06q6.74-12.87 16.77-23.53.24-.25.57-.36a.29.29 0 0 1 .39.3q-1.85 20.32-3.87 40.04-.04.38.03.75.11.66.76.5l13.08-3.37a1.3 1.29 81.5 0 0 .97-1.32l-.08-1.81q-.06-1.29-1.35-1.31l-2.34-.03q-.59 0-.67-.59-.83-6.8-.28-10.99 1.89-14.66 3.94-30.1a.34.34 0 0 0-.34-.39l-9.09.08a2.06 2.05-71.7 0 0-1.62.82l-18.65 24.72q-1.32 1.76-1.09-.43" vector-effect="non-scaling-stroke"/>
    <path stroke="#929291" d="M42.289 213.4141a.67.67 0 0 0-.6688-.6712l-3.3-.0058a.67.67 0 0 0-.6712.6689l-.038 21.8199a.67.67 0 0 0 .6688.6712l3.3.0058a.67.67 0 0 0 .6712-.6689l.038-21.8199M97.2 221.5l4.55-.03q.98 0 1.04-.97l.03-.5q.08-1.14-1.06-1.16l-4.77-.08a.5.5 0 0 1-.49-.53l.25-4.72q.03-.52-.49-.54l-4.01-.21q-.51-.02-.5.49l.16 4.77q.03.71-.68.72l-4.07.06a.82.82 0 0 0-.8.91l.13 1.12q.09.76.85.71l3.72-.23a.75.74-1.4 0 1 .8.75l-.11 13.18a.68.67 85.4 0 0 .79.68q1.7-.3 3.35-.04a.67.66-85.3 0 0 .77-.66l-.01-13.17q0-.55.55-.55M10.27 226.71a.42.42 0 0 1 .63-.37q6.94 3.97 14.28 8.2c2.23 1.28 4.86 1.54 7.36 1.43q2.36-.12.3-1.27l-19.32-10.82a.55.55 0 0 1 .02-.97l18.38-8.96a.36.36 0 0 0-.15-.68c-2.9-.07-5.61-.25-8.36 1.12q-6.46 3.21-12.53 6.45a.41.41 0 0 1-.61-.36l-.01-6.72q0-.51-.5-.51l-4.26.01q-.49 0-.49.49l.01 21.76a.24.24 0 0 0 .24.24l4.74.05a.3.29-89.1 0 0 .3-.3l-.03-8.79M75.76 234.26q.01.5.17.98.19.58.79.57h3.36q.63 0 .64-.64l.09-15.64q0-.77-.78-.77h-3.52q-.72 0-.72.73l-.01.79q0 .76-.7.46-9.41-3.97-19.64-.93c-3.74 1.11-7.86 3.96-7.08 8.53.78 4.6 7.59 7.17 11.47 7.71q8.2 1.16 15.27-2.21.66-.31.66.42M138.7898 227.4951a16.26 8.95.3 0 0-16.2129-9.035 16.26 8.95.3 0 0-16.3067 8.8648 16.26 8.95.3 0 0 16.2129 9.035 16.26 8.95.3 0 0 16.3067-8.8648M157.29 229.99a.48.48 0 0 1-.73 0l-9.54-11.02a.48.48 0 0 0-.36-.17l-4.01.02a.48.48 0 0 0-.35.79l14.31 16.31a.48.48 0 0 0 .72-.01l14.29-16.45a.48.48 0 0 0-.39-.79l-4.22.19a.48.48 0 0 0-.35.17l-9.37 10.96M188.57 230.69a.35.35 0 0 1-.54 0l-9.76-11.82a.35.35 0 0 0-.26-.13l-4.47-.01a.35.35 0 0 0-.27.58l12.29 14.64a.35.35 0 0 1 0 .45l-5.73 6.83a.35.35 0 0 0 .29.57l4.6-.25a.35.35 0 0 0 .25-.13l18.22-22.09a.35.35 0 0 0-.27-.57l-4.34.03a.35.35 0 0 0-.26.13l-9.75 11.77M104.55 143.95a1.97 1.96 43.6 0 1-2.18.05l-10.19-6.43q-1.34-.84-.43.45l7.83 11.14a2.5 2.47 76.9 0 0 1.62 1.02q2.47.4 4.78-.02a1.35 1.33-78.4 0 0 .9-.6l7.64-12.05q.7-1.1-.36-.35l-9.61 6.79M94.37 180.78a1.35 1.35 0 0 1 1.24-1.1q4.89-.36 9.81-.86c4.76-.49 9.65-2.1 10.57-7.4.96-5.51.69-10.48-4.21-14.11-3.83-2.83-11.69-1.79-15.13 1.31q-7.6 6.81-8.83 19.86-.68 7.24.33 12.11 1.17 5.63 7.04 9.7 1.08.75 2.39 1 12.38 2.43 18.69-7.66 2.27-3.64 2.16-7.61-.01-.51-.52-.56l-2.12-.24q-.59-.06-.56.53.21 5.62-4.46 9.19c-3.04 2.32-8.21 2.72-11.29.54-4.18-2.95-6.04-9.62-5.11-14.7" vector-effect="non-scaling-stroke"/>
    <path stroke="#929291" d="M95.25 176.26c5 .25 14.96-.88 14.67-7.96-.12-3.02.89-7.09-1.74-9.21-1.88-1.51-5.1-1.16-6.88.39q-6.66 5.73-6.61 16.2 0 .55.56.58M76.04 227.36a11.45 6-.1 0 0-11.4605-5.98A11.45 6-.1 0 0 53.14 227.4a11.45 6-.1 0 0 11.4605 5.98 11.45 6-.1 0 0 11.4395-6.02M133.8699 227.4095a11.31 6.02.2 0 0-11.2889-6.0595 11.31 6.02.2 0 0-11.3309 5.9805 11.31 6.02.2 0 0 11.2889 6.0595 11.31 6.02.2 0 0 11.3309-5.9805" vector-effect="non-scaling-stroke"/>
  </g>
  <path fill="#fff" d="M0 0h208v185.6q-1-4.37-5-6.87-4.8-3-9.39-6.1c-3.35-2.26-5.92-6.2-4.27-10.33q1.66-4.16 6.06-4.05c1.33.03 3.09.21 3.29 1.9q.34 2.97 1.12 5.99.22.84 1.1.84 1.44-.02 2.54-.82.56-.41.54-1.11-.12-3.82-.06-7.43.03-2.3-2.21-2.86-12.2-3.06-19.43 6.61c-4.78 6.38-1.01 14.25 4.81 18.3q5.21 3.63 10.26 7.32 4.64 3.39 2.59 8.67c-2.35 6.07-10.58 6.94-15.58 3.03q-5.86-4.58-2.94-11.92.24-.61-.39-.78l-3.53-1q-.86-.24-1.01.63-1.31 7.2-.95 14.08c.22 4.29 11.33 5.36 14.58 5.18q12.73-.71 17.87-12.35V242H0V0Zm115.05 89.45q-.26 1.13-.84.12-1.47-2.58-2.13-5.72c-2.54-12.1-2.97-24.67-3.63-37.48-.22-4.28-1.53-8.42-1.91-12.64q-1.39-15.64-2.52-31.02-.03-.47-.49-.38l-.34.07q-.17.03-.19.2-1.41 14.69-3.16 29.13-.57 4.75-1.5 9.51-1.04 5.3-1.17 12-.17 9.29-1.62 21.51-.8 6.79-2.56 12.54-.37 1.21-1.06 2.24-.66.99-.9-.17-2.37-11.41-4.82-22.99-.09-.43-.42-.67-.49-.37-1.05-.11a.84.84 0 0 0-.48.67c-.63 6.2-.87 12.15-2.83 18.17q-1.03 3.2-1.07 6.73-.14 11.31-.11 22.69.01.63-.61.76l-1.39.29a.66.66 0 0 0-.44.96q2.84 5.2 2.84 11.26-.02 41.83.1 76.68 0 .46.46.46l43.56.01a.67.66 90 0 0 .66-.67q.08-39.13.03-77.12 0-4.97 2.69-10.54.27-.56-.26-.89-.33-.2-.72-.27a1.53 1.52-85.5 0 1-1.23-1.45q-.32-10.24-.13-20.87.08-4.19-1.06-7.89c-1.85-6.02-2.59-11.87-2.83-18.32q-.02-.53-.53-.65-.36-.09-.72.07-.43.19-.65.87-.6 1.84-.77 2.71-2 10.38-4.2 20.2Zm26.48 80.37q-.29-1.01-.22-2.25 1.15-21.25 7.69-40.81c1.45-4.33 3.37-9.22 6.91-11.41q2.43-1.49 2.33-4.44-.02-.56-.58-.56l-12.14-.15q-.59 0-.78.55c-.44 1.32-.44 2.87-.91 4.15-3.63 9.93-6.14 18.29-7.98 27.77-1.48 7.65-1.73 15.04-2.68 22.69-1.15 9.32-.9 18.71-2 28.06q-.51 4.37-.12 8.57.04.45.49.46l6.24.07q.58 0 .56-.57-.17-7.98 2.03-17.95.99-4.47 3.32-8.08c1.86-2.91 13.91-22.99 18.35-13.23q.72 1.57.25 3.29c-2.33 8.52-10.59 12.7-18.92 12.86a.89.89 0 0 0-.71 1.4q11.64 16.71 26.62 32.03c1.42 1.45 4.38 2.63 6.27 1.44a1.18 1.18 0 0 0 .41-1.53q-1.29-2.54-3-4.62-6.51-7.96-12.43-15.93-3.47-4.67-5.83-10.28a.71.71 0 0 1 .54-.97c5.76-.93 11.68-4.99 14.86-9.96 3.32-5.18 2.53-12.5-3.49-15.32-5.78-2.72-13.32 1.01-17.02 5.54q-3.67 4.5-7.4 9.31-.46.59-.66-.13Zm-97.81 9.57q1.22-11.6 2.05-24.6a.64.63 1.6 0 0-.65-.68l-7.12.15q-1.03.03-1.66.83l-19.77 25.03q-.81 1.02-.7-.24l2.1-24.75a.5.5 0 0 0-.6-.54l-15.99 2.95q-1.11.21-1.09 1.34l.05 3.32q.01.83.83.67l5.78-1.13q.58-.12.55.47l-2.07 39.6q-.03.66.63.65l6.5-.08q.73-.01.88-.74c2.31-11.58 8.7-22.11 15.81-31.83q2.55-3.5 5.64-6a.52.52 0 0 1 .84.44l-2.52 37.46a.76.75-88.6 0 0 .77.81c3.2-.07 6.01.73 7.46-3.05 1.7-4.4 2.97-8.89 5.15-13.06q6.74-12.87 16.77-23.53.24-.25.57-.36a.29.29 0 0 1 .39.3q-1.85 20.32-3.87 40.04-.04.38.03.75.11.66.76.5l13.08-3.37a1.3 1.29 81.5 0 0 .97-1.32l-.08-1.81q-.06-1.29-1.35-1.31l-2.34-.03q-.59 0-.67-.59-.83-6.8-.28-10.99 1.89-14.66 3.94-30.1a.34.34 0 0 0-.34-.39l-9.09.08a2.06 2.05-71.7 0 0-1.62.82l-18.65 24.72q-1.32 1.76-1.09-.43Zm-1.431 34.0241a.67.67 0 0 0-.6688-.6712l-3.3-.0058a.67.67 0 0 0-.6712.6689l-.038 21.8199a.67.67 0 0 0 .6688.6712l3.3.0058a.67.67 0 0 0 .6712-.6689l.038-21.8199ZM97.2 221.5l4.55-.03q.98 0 1.04-.97l.03-.5q.08-1.14-1.06-1.16l-4.77-.08a.5.5 0 0 1-.49-.53l.25-4.72q.03-.52-.49-.54l-4.01-.21q-.51-.02-.5.49l.16 4.77q.03.71-.68.72l-4.07.06a.82.82 0 0 0-.8.91l.13 1.12q.09.76.85.71l3.72-.23a.75.74-1.4 0 1 .8.75l-.11 13.18a.68.67 85.4 0 0 .79.68q1.7-.3 3.35-.04a.67.66-85.3 0 0 .77-.66l-.01-13.17q0-.55.55-.55Zm-86.93 5.21a.42.42 0 0 1 .63-.37q6.94 3.97 14.28 8.2c2.23 1.28 4.86 1.54 7.36 1.43q2.36-.12.3-1.27l-19.32-10.82a.55.55 0 0 1 .02-.97l18.38-8.96a.36.36 0 0 0-.15-.68c-2.9-.07-5.61-.25-8.36 1.12q-6.46 3.21-12.53 6.45a.41.41 0 0 1-.61-.36l-.01-6.72q0-.51-.5-.51l-4.26.01q-.49 0-.49.49l.01 21.76a.24.24 0 0 0 .24.24l4.74.05a.3.29-89.1 0 0 .3-.3l-.03-8.79Zm65.49 7.55q.01.5.17.98.19.58.79.57h3.36q.63 0 .64-.64l.09-15.64q0-.77-.78-.77h-3.52q-.72 0-.72.73l-.01.79q0 .76-.7.46-9.41-3.97-19.64-.93c-3.74 1.11-7.86 3.96-7.08 8.53.78 4.6 7.59 7.17 11.47 7.71q8.2 1.16 15.27-2.21.66-.31.66.42Zm63.0298-6.7649a16.26 8.95.3 0 0-16.2129-9.035 16.26 8.95.3 0 0-16.3067 8.8648 16.26 8.95.3 0 0 16.2129 9.035 16.26 8.95.3 0 0 16.3067-8.8648ZM157.29 229.99a.48.48 0 0 1-.73 0l-9.54-11.02a.48.48 0 0 0-.36-.17l-4.01.02a.48.48 0 0 0-.35.79l14.31 16.31a.48.48 0 0 0 .72-.01l14.29-16.45a.48.48 0 0 0-.39-.79l-4.22.19a.48.48 0 0 0-.35.17l-9.37 10.96Zm31.28.7a.35.35 0 0 1-.54 0l-9.76-11.82a.35.35 0 0 0-.26-.13l-4.47-.01a.35.35 0 0 0-.27.58l12.29 14.64a.35.35 0 0 1 0 .45l-5.73 6.83a.35.35 0 0 0 .29.57l4.6-.25a.35.35 0 0 0 .25-.13l18.22-22.09a.35.35 0 0 0-.27-.57l-4.34.03a.35.35 0 0 0-.26.13l-9.75 11.77Z"/>
  <path fill="#4ea8db" d="M208 185.6v6.93q-5.14 11.64-17.87 12.35c-3.25.18-14.36-.89-14.58-5.18q-.36-6.88.95-14.08.15-.87 1.01-.63l3.53 1q.63.17.39.78-2.92 7.34 2.94 11.92c5 3.91 13.23 3.04 15.58-3.03q2.05-5.28-2.59-8.67-5.05-3.69-10.26-7.32c-5.82-4.05-9.59-11.92-4.81-18.3q7.23-9.67 19.43-6.61 2.24.56 2.21 2.86-.06 3.61.06 7.43.02.7-.54 1.11-1.1.8-2.54.82-.88 0-1.1-.84-.78-3.02-1.12-5.99c-.2-1.69-1.96-1.87-3.29-1.9q-4.4-.11-6.06 4.05c-1.65 4.13.92 8.07 4.27 10.33q4.59 3.1 9.39 6.1 4 2.5 5 6.87Z"/>
  <path fill="#252422" d="M115.05 89.45q2.2-9.82 4.2-20.2.17-.87.77-2.71.22-.68.65-.87.36-.16.72-.07.51.12.53.65c.24 6.45.98 12.3 2.83 18.32q1.14 3.7 1.06 7.89-.19 10.63.13 20.87a1.53 1.52-85.5 0 0 1.23 1.45q.39.07.72.27.53.33.26.89-2.69 5.57-2.69 10.54.05 37.99-.03 77.12a.67.66 90 0 1-.66.67l-43.56-.01q-.46 0-.46-.46-.12-34.85-.1-76.68 0-6.06-2.84-11.26a.66.66 0 0 1 .44-.96l1.39-.29q.62-.13.61-.76-.03-11.38.11-22.69.04-3.53 1.07-6.73c1.96-6.02 2.2-11.97 2.83-18.17a.84.84 0 0 1 .48-.67q.56-.26 1.05.11.33.24.42.67 2.45 11.58 4.82 22.99.24 1.16.9.17.69-1.03 1.06-2.24 1.76-5.75 2.56-12.54Q97 62.53 97.17 53.24q.13-6.7 1.17-12 .93-4.76 1.5-9.51Q101.59 17.29 103 2.6q.02-.17.19-.2l.34-.07q.46-.09.49.38 1.13 15.38 2.52 31.02c.38 4.22 1.69 8.36 1.91 12.64.66 12.81 1.09 25.38 3.63 37.48q.66 3.14 2.13 5.72.58 1.01.84-.12Zm-10.5 54.5a1.97 1.96 43.6 0 1-2.18.05l-10.19-6.43q-1.34-.84-.43.45l7.83 11.14a2.5 2.47 76.9 0 0 1.62 1.02q2.47.4 4.78-.02a1.35 1.33-78.4 0 0 .9-.6l7.64-12.05q.7-1.1-.36-.35l-9.61 6.79Zm-10.18 36.83a1.35 1.35 0 0 1 1.24-1.1q4.89-.36 9.81-.86c4.76-.49 9.65-2.1 10.57-7.4.96-5.51.69-10.48-4.21-14.11-3.83-2.83-11.69-1.79-15.13 1.31q-7.6 6.81-8.83 19.86-.68 7.24.33 12.11 1.17 5.63 7.04 9.7 1.08.75 2.39 1 12.38 2.43 18.69-7.66 2.27-3.64 2.16-7.61-.01-.51-.52-.56l-2.12-.24q-.59-.06-.56.53.21 5.62-4.46 9.19c-3.04 2.32-8.21 2.72-11.29.54-4.18-2.95-6.04-9.62-5.11-14.7Z"/>
  <path fill="#4ea8db" d="M141.53 169.82q.2.72.66.13 3.73-4.81 7.4-9.31c3.7-4.53 11.24-8.26 17.02-5.54 6.02 2.82 6.81 10.14 3.49 15.32-3.18 4.97-9.1 9.03-14.86 9.96a.71.71 0 0 0-.54.97q2.36 5.61 5.83 10.28 5.92 7.97 12.43 15.93 1.71 2.08 3 4.62a1.18 1.18 0 0 1-.41 1.53c-1.89 1.19-4.85.01-6.27-1.44q-14.98-15.32-26.62-32.03a.89.89 0 0 1 .71-1.4c8.33-.16 16.59-4.34 18.92-12.86q.47-1.72-.25-3.29c-4.44-9.76-16.49 10.32-18.35 13.23q-2.33 3.61-3.32 8.08-2.2 9.97-2.03 17.95.02.57-.56.57l-6.24-.07q-.45-.01-.49-.46-.39-4.2.12-8.57c1.1-9.35.85-18.74 2-28.06.95-7.65 1.2-15.04 2.68-22.69 1.84-9.48 4.35-17.84 7.98-27.77.47-1.28.47-2.83.91-4.15q.19-.55.78-.55l12.14.15q.56 0 .58.56.1 2.95-2.33 4.44c-3.54 2.19-5.46 7.08-6.91 11.41q-6.54 19.56-7.69 40.81-.07 1.24.22 2.25ZM43.72 179.39q-.23 2.19 1.09.43l18.65-24.72a2.06 2.05-71.7 0 1 1.62-.82l9.09-.08a.34.34 0 0 1 .34.39q-2.05 15.44-3.94 30.1-.55 4.19.28 10.99.08.59.67.59l2.34.03q1.29.02 1.35 1.31l.08 1.81a1.3 1.29 81.5 0 1-.97 1.32l-13.08 3.37q-.65.16-.76-.5-.07-.37-.03-.75 2.02-19.72 3.87-40.04a.29.29 0 0 0-.39-.3q-.33.11-.57.36-10.03 10.66-16.77 23.53c-2.18 4.17-3.45 8.66-5.15 13.06-1.45 3.78-4.26 2.98-7.46 3.05a.76.75-88.6 0 1-.77-.81l2.52-37.46a.52.52 0 0 0-.84-.44q-3.09 2.5-5.64 6c-7.11 9.72-13.5 20.25-15.81 31.83q-.15.73-.88.74l-6.5.08q-.66.01-.63-.65l2.07-39.6q.03-.59-.55-.47l-5.78 1.13q-.82.16-.83-.67l-.05-3.32q-.02-1.13 1.09-1.34l15.99-2.95a.5.5 0 0 1 .6.54l-2.1 24.75q-.11 1.26.7.24l19.77-25.03q.63-.8 1.66-.83l7.12-.15a.64.63 1.6 0 1 .65.68q-.83 13-2.05 24.6Z"/>
  <rect width="4.64" height="23.16" x="-2.32" y="-11.58" fill="#252422" rx=".67" transform="rotate(.1 -128505.884978 23001.818105)"/>
  <path fill="#252422" d="m96.65 222.05.01 13.17a.67.66-85.3 0 1-.77.66q-1.65-.26-3.35.04a.68.67 85.4 0 1-.79-.68l.11-13.18a.75.74-1.4 0 0-.8-.75l-3.72.23q-.76.05-.85-.71l-.13-1.12a.82.82 0 0 1 .8-.91l4.07-.06q.71-.01.68-.72l-.16-4.77q-.01-.51.5-.49l4.01.21q.52.02.49.54l-.25 4.72a.5.5 0 0 0 .49.53l4.77.08q1.14.02 1.06 1.16l-.03.5q-.06.97-1.04.97l-4.55.03q-.55 0-.55.55ZM10.27 226.71l.03 8.79a.3.29-89.1 0 1-.3.3l-4.74-.05a.24.24 0 0 1-.24-.24l-.01-21.76q0-.49.49-.49l4.26-.01q.5 0 .5.51l.01 6.72a.41.41 0 0 0 .61.36q6.07-3.24 12.53-6.45c2.75-1.37 5.46-1.19 8.36-1.12a.36.36 0 0 1 .15.68l-18.38 8.96a.55.55 0 0 0-.02.97l19.32 10.82q2.06 1.15-.3 1.27c-2.5.11-5.13-.15-7.36-1.43q-7.34-4.23-14.28-8.2a.42.42 0 0 0-.63.37ZM75.1 233.84q-7.07 3.37-15.27 2.21c-3.88-.54-10.69-3.11-11.47-7.71-.78-4.57 3.34-7.42 7.08-8.53q10.23-3.04 19.64.93.7.3.7-.46l.01-.79q0-.73.72-.73h3.52q.78 0 .78.77l-.09 15.64q-.01.64-.64.64h-3.36q-.6.01-.79-.57-.16-.48-.17-.98 0-.73-.66-.42Zm.94-6.48a11.45 6-.1 0 0-11.4605-5.98A11.45 6-.1 0 0 53.14 227.4a11.45 6-.1 0 0 11.4605 5.98 11.45 6-.1 0 0 11.4395-6.02ZM138.7898 227.4951a16.26 8.95.3 0 1-16.3067 8.8648 16.26 8.95.3 0 1-16.2129-9.035 16.26 8.95.3 0 1 16.3067-8.8648 16.26 8.95.3 0 1 16.2129 9.035Zm-4.9199-.0856a11.31 6.02.2 0 0-11.2889-6.0595 11.31 6.02.2 0 0-11.3309 5.9805 11.31 6.02.2 0 0 11.2889 6.0595 11.31 6.02.2 0 0 11.3309-5.9805ZM157.29 229.99l9.37-10.96a.48.48 0 0 1 .35-.17l4.22-.19a.48.48 0 0 1 .39.79l-14.29 16.45a.48.48 0 0 1-.72.01l-14.31-16.31a.48.48 0 0 1 .35-.79l4.01-.02a.48.48 0 0 1 .36.17l9.54 11.02a.48.48 0 0 0 .73 0ZM188.57 230.69l9.75-11.77a.35.35 0 0 1 .26-.13l4.34-.03a.35.35 0 0 1 .27.57l-18.22 22.09a.35.35 0 0 1-.25.13l-4.6.25a.35.35 0 0 1-.29-.57l5.73-6.83a.35.35 0 0 0 0-.45l-12.29-14.64a.35.35 0 0 1 .27-.58l4.47.01a.35.35 0 0 1 .26.13l9.76 11.82a.35.35 0 0 0 .54 0Z"/>
  <g fill="#fff">
    <path d="m104.55 143.95 9.61-6.79q1.06-.75.36.35l-7.64 12.05a1.35 1.33-78.4 0 1-.9.6q-2.31.42-4.78.02a2.5 2.47 76.9 0 1-1.62-1.02l-7.83-11.14q-.91-1.29.43-.45l10.19 6.43a1.97 1.96 43.6 0 0 2.18-.05ZM94.37 180.78c-.93 5.08.93 11.75 5.11 14.7 3.08 2.18 8.25 1.78 11.29-.54q4.67-3.57 4.46-9.19-.03-.59.56-.53l2.12.24q.51.05.52.56.11 3.97-2.16 7.61-6.31 10.09-18.69 7.66-1.31-.25-2.39-1-5.87-4.07-7.04-9.7-1.01-4.87-.33-12.11 1.23-13.05 8.83-19.86c3.44-3.1 11.3-4.14 15.13-1.31 4.9 3.63 5.17 8.6 4.21 14.11-.92 5.3-5.81 6.91-10.57 7.4q-4.92.5-9.81.86a1.35 1.35 0 0 0-1.24 1.1Zm.88-4.52c5 .25 14.96-.88 14.67-7.96-.12-3.02.89-7.09-1.74-9.21-1.88-1.51-5.1-1.16-6.88.39q-6.66 5.73-6.61 16.2 0 .55.56.58Z"/>
  </g>
  <path fill="#252422" d="M109.92 168.3c.29 7.08-9.67 8.21-14.67 7.96q-.56-.03-.56-.58-.05-10.47 6.61-16.2c1.78-1.55 5-1.9 6.88-.39 2.63 2.12 1.62 6.19 1.74 9.21Z"/>
  <ellipse fill="#fff" rx="11.45" ry="6" transform="rotate(-.1 130311.405386 -36893.644593)"/>
  <ellipse fill="#fff" rx="11.31" ry="6.02" transform="rotate(.2 -65075.3608 35224.503034)"/>
</svg>
