<svg xmlns="http://www.w3.org/2000/svg" viewBox="0 0 299.57 269">
  <g fill="#e31e24">
    <path d="M198.89 0h3.09q10.25 1.7 14.55 9.41c4.91 8.8 2.42 19.61-6.03 25.05-16.18 10.4-34.78-6.91-26.95-23.93Q187.7 1.52 198.89 0Zm17.78 18.77a16.3 16.3 0 0 0-16.3-16.3 16.3 16.3 0 0 0-16.3 16.3 16.3 16.3 0 0 0 16.3 16.3 16.3 16.3 0 0 0 16.3-16.3ZM0 165.76q19.69-.02 39.37.02 12.37.03 17.18 1.3 9.31 2.46 16.37 8.63a.3.29-63 0 0 .48-.16q1.19-5.68 6.42-8.51 2.51-1.36 7.82-1.33 27.32.13 56.07.02a.56.55-90 0 1 .55.56v30.47q0 .51-.52.51l-37.25.01q-.23 0-.23.23l-.06 4.75q0 .31.31.31h36.79q.6 0 .8-.56l13.06-35.82a.64.63 9.7 0 1 .6-.42h32.03q.54 0 .73.51l7.51 20.66q1.1 3.01.98-.2-.36-9.57-.16-20.38.01-.59.6-.59h31.91q.58 0 .58.59l-.04 23.41q0 .9.63.26l23.03-23.67a1.39 1.38-68 0 1 1-.43h42.75a.25.25 0 0 1 .18.43l-41.37 42.56q-.37.37-.12.84l31.65 58.5q.22.4-.22.52l-.82.22h-34.13l-19.3-35.61a.36.36 0 0 0-.58-.07l-2.39 2.62q-.3.33-.3.79l.02 31.3q0 .54-.5.75l-.56.22h-37.94l-4.94-13.09a.76.75 79.1 0 0-.7-.48h-26.82q-.61 0-.83.57l-4.92 13H85.53c-8.04-.62-12.59-5.84-12.38-13.6q.21-7.62 0-14.86a.21.2 68.7 0 0-.34-.15Q59.56 252.1 41.49 250.6q-.53-.04-.52.48l.03 17.06q.01.43-.4.59l-.73.27H0V165.76Zm77.45 21.12a.23.23 0 0 1-.42.13q-7.58-11.89-20.67-15.58-6.13-1.73-19.31-1.5-14.92.25-32.22.02-.58-.01-.58.57v93.58a.6.6 0 0 0 .6.6h31.18q.73 0 .73-.73l-.02-17.94q0-.56.56-.44c15.66 3.57 31.19-3 39.56-16.55q.5-.8.5.14-.02 13.09-.07 26.06c-.02 5.23 2.56 9.47 8.32 9.47q34.63-.02 65.85.01.54 0 .72-.51l4.54-12.44q.19-.53.76-.53h32.73q.53 0 .71.5l4.5 12.37a.89.88 80.1 0 0 .83.59h30.77a.72.72 0 0 0 .72-.72l-.01-28.96q0-.52.36-.9l7.58-7.97a.24.23-37 0 1 .38.05l20.53 37.97q.29.53.9.53l25.01-.01a.28.28 0 0 0 .24-.41l-29.9-55.26q-.24-.44.11-.8l36.35-37.41q.62-.63-.26-.63l-30.82.02q-.54 0-.92.39l-29.04 29.9q-.53.54-.52-.21l.01-29.77q0-.49-.48-.49h-24a.23.23 0 0 0-.23.23l.05 41.47q0 1.27-.43.08l-15.09-41.36q-.16-.42-.61-.42h-26.2a.74.74 0 0 0-.69.48l-19.46 53.32q-.61 1.68-.6-.11l.09-16.41q0-.54-.54-.54l-37.04.01q-.51 0-.51-.51v-12.59q0-.58.58-.58h36.91q.58 0 .58-.58l-.01-21.84q0-.67-.67-.67-25.8.08-53.23-.02c-10.43-.03-9.04 10.01-8.71 16.9Z"/>
  </g>
  <path fill="#e31e24" d="m107.51 111.7 108.02-.01a.97.96 75 0 1 .84.49l22.24 38.26a.31.31 0 0 1-.29.47q-.2-.02-.39-.08-.18-.06-.37-.06-89.84-.04-171.15.06-6.67.01-9.79-1.33-5.57-2.38-7.44-7.91c-1.91-5.64.09-10.95 3.25-15.73Q92.19 65.71 130.01 8.25c3.01-4.57 6.92-7.84 12.6-7.88 5.38-.04 9.82 3.16 12.51 7.72q29.21 49.63 57.26 97.12a.28.28 0 0 1-.24.42h-42.8q-.52 0-.79-.45l-26.25-44.3a.29.29 0 0 0-.49-.01l-34.51 50.42a.26.26 0 0 0 .21.41Zm34.28-57.8a.91.91 0 0 1 1.38.22l27.91 47.07a.52.51 74.4 0 0 .44.25h33.36q.43 0 .21-.38-26.75-45.08-53.53-90.84c-4.08-6.97-12.71-7.81-17.33-.77q-41.2 62.72-77.71 117.7c-3.83 5.78-6.72 13.9 1.04 18.17q2.45 1.35 9.41 1.34 82.17-.11 164.06-.04a.3.3 0 0 0 .26-.45l-17.37-29.83q-.3-.52-.9-.52H102.05a.8.79-84.8 0 1-.78-.94c.35-1.93 1.08-3.84 2.2-5.47q18.14-26.42 36.89-53.86.65-.95 1.43-1.65ZM213.78 18.77a13.41 13.41 0 0 1-13.41 13.41 13.41 13.41 0 0 1-13.41-13.41 13.41 13.41 0 0 1 13.41-13.41 13.41 13.41 0 0 1 13.41 13.41Zm-10.32.03c4.67-.34 4.55-8.45-.81-8.55q-3.88-.07-7.67-.02-.69.01-.69.69v15.11q0 .49.49.49h1.21q.51 0 .5-.51l-.06-6.05q0-.52.51-.63 3.7-.75 5.55 2.3 1.39 2.28 2.82 4.69.1.17.29.17l2.3.02q.14 0 .08-.13-1.94-3.96-4.78-6.92-.58-.6.26-.66Z"/>
  <path fill="#e31e24" d="M99.92 107.03c-2.74 4.02-5.65 13.19 2.78 13.19q52.62.01 107.93 0 .58 0 .87.5l12.34 21.2q.22.37-.21.37-77.35-.02-160.5 0c-6.7.01-7.5-5.79-4.46-10.4q41.64-63.16 79.07-119.88c2.87-4.36 7.37-4.19 10 .28q25.27 42.95 49.86 84.61a.17.16 75 0 1-.14.25l-23.4-.01a.66.66 0 0 1-.57-.33q-13.57-22.83-26.22-44.21c-2.83-4.79-7.3-4.07-10.18.12q-18.26 26.67-37.17 54.31ZM196.42 12.51a.43.43 0 0 1 .43-.43l4.68-.01a3.17 2.54-.1 0 1 3.17 2.53v.24a3.17 2.54-.1 0 1-3.17 2.55l-4.68.01a.43.43 0 0 1-.43-.43v-4.46Z"/>
  <g fill="#e31e24">
    <path d="m31.61 238.74.03 20.19q0 .58-.57.58H9.94q-.57 0-.57-.57v-83.23q0-.54.54-.53 15.56.16 31.58-.07 8.98-.13 14.46 1.59 12.51 3.94 18.47 16.38c4.05 8.44 4.46 19.45.75 28.12-7.3 17.04-25.76 25.22-42.89 17.11q-.67-.31-.67.43Zm35.27-30.21a21.09 21.09 0 0 0-21.09-21.09 21.09 21.09 0 0 0-21.09 21.09 21.09 21.09 0 0 0 21.09 21.09 21.09 21.09 0 0 0 21.09-21.09ZM207.71 240.67q.53 1.47.53-.09l-.01-64.83q0-.53.52-.53h13.46q.36 0 .36.36l-.03 37.46a.28.28 0 0 0 .48.2l36.48-37.53a1.43 1.4-67.3 0 1 1.01-.43h16.73a.22.22 0 0 1 .15.38l-30.83 31.74q-.3.31-.09.69l27.5 50.8q.33.62-.37.62h-13.06q-.63 0-.92-.55l-22.44-41.5a.25.25 0 0 0-.4-.05l-13.91 14.81a1.21 1.21 0 0 0-.33.83l.03 25.92q0 .54-.54.54h-22.48a.46.46 0 0 1-.43-.3l-4.63-12.67a.73.73 0 0 0-.69-.49h-39.86a.89.89 0 0 0-.84.59l-4.52 12.43a.67.66-79.8 0 1-.62.44H85.25a2.76 2.75-90 0 1-2.75-2.76v-79.01a2.52 2.51-90 0 1 2.51-2.52h49.56a.35.35 0 0 1 .35.35v11.93a.43.42 90 0 1-.42.43l-37.04-.02q-.63 0-.63.63v22.85a.56.56 0 0 0 .56.56h37.04a.48.47-90 0 1 .47.48l.03 11.59q0 .71-.7.71H97.3q-.47 0-.47.47v20.96q0 .59.58.59h39.87a.63.62 10 0 0 .59-.41l25.82-70.78q.13-.34.49-.34h19.32a.47.47 0 0 1 .44.31l23.77 65.14Zm-44.96-10.42a.34.34 0 0 0 .32.45h21.5a.34.34 0 0 0 .32-.45l-10.75-30.65a.34.34 0 0 0-.64 0l-10.75 30.65Z"/>
    <path d="m133.84 241.63-31.49-.01a.35.35 0 0 1-.35-.35l.01-11.09a.35.35 0 0 1 .35-.35l35.59-.02a.35.35 0 0 1 .33.47l-4.12 11.12a.35.35 0 0 1-.32.23Zm-2.91-4.19a.32.32 0 0 0 .3-.21l1.05-2.73a.32.32 0 0 0-.3-.44l-25.42.01a.32.32 0 0 0-.32.32l-.03 2.71a.32.32 0 0 0 .32.32l24.4.02Z"/>
  </g>
  <path fill="#e31e24" d="M62.5 208.53a16.7 16.7 0 0 1-16.7 16.7 16.7 16.7 0 0 1-16.7-16.7 16.7 16.7 0 0 1 16.7-16.7 16.7 16.7 0 0 1 16.7 16.7Zm-2.77-.01a13.94 13.94 0 0 0-13.94-13.94 13.94 13.94 0 0 0-13.94 13.94 13.94 13.94 0 0 0 13.94 13.94 13.94 13.94 0 0 0 13.94-13.94ZM174.12 209.97l5.5 17.29a.31.31 0 0 1-.29.4l-11.03.01a.31.31 0 0 1-.29-.4l5.52-17.3a.31.31 0 0 1 .59 0Z"/>
</svg>
