<svg xmlns="http://www.w3.org/2000/svg" viewBox="0 0 640 416">
  <g fill="none" stroke-width="2">
    <path stroke="#f2d97b" d="M256.74 154.13v.01q.03.17.2.14c49.61-7.52 99.77-10.25 149.68-5.55q48.57 4.57 95.49 16.16c2.82.69 6.12 1.2 8.95.47 2.34-.61 4.09-3.63 2.64-5.98-2.36-3.81-9.35-6.17-13.34-7.05q-34.8-7.71-66.45-10.83-14.82-1.45-29.84-2.44-22.55-1.49-45.88-.11-52.15 3.1-101.26 14.88-.24.06-.19.3" vector-effect="non-scaling-stroke"/>
    <path stroke="#7bc199" d="M579.5 211.27q7.2 2.81 15.32 6.54.2.09.3-.1v-.01q.1-.18-.08-.3-4.04-2.55-8.31-4.71c-11.9-6.01-24.61-12.52-36.66-17.65q-67.4-28.68-141.42-36.97-23.71-2.66-39.6-3.14-21.26-.64-43.22.03-22.56.69-48.85 4.07c-52.94 6.81-104.68 21.67-152.25 44.74q-14.49 7.03-24.69 12.92-1.08.63-2.17 1.4a.03.03 0 0 0 .03.06q65.07-27.88 134.35-41.63 41.1-8.16 86.26-10.5c15.15-.79 30.55-.77 45.74-.39q39.28.98 81.83 8.12 65.78 11.05 133.42 37.52" vector-effect="non-scaling-stroke"/>
    <path stroke="#7ba2c4" d="M480.25 189.1q-9.04-2.26-19.03-4.18-40.17-7.69-77.55-10.18-32.4-2.16-64.68-.38-48.12 2.64-97.02 12.49c-5.67 1.14-14.02 3.56-16.33 8.59q-.26.56-.06 1.15c1.72 5.23 7.94 4.14 11.96 3.26q41.36-9.08 74.29-13.16 33.49-4.15 63.61-5.02 50.26-1.46 105.06 5.08 10.28 1.23 19.77 2.45.06.01.12-.02.04-.03-.01-.05-.02-.01-.04-.01-.04-.01-.09-.02" vector-effect="non-scaling-stroke"/>
  </g>
  <path fill="#eebc00" d="M256.93 153.83q49.11-11.78 101.26-14.88 23.33-1.38 45.88.11 15.02.99 29.84 2.44 31.65 3.12 66.45 10.83c3.99.88 10.98 3.24 13.34 7.05 1.45 2.35-.3 5.37-2.64 5.98-2.83.73-6.13.22-8.95-.47q-46.92-11.59-95.49-16.16c-49.91-4.7-100.07-1.97-149.68 5.55q-.17.03-.2-.14v-.01q-.05-.24.19-.3Z"/>
  <path fill="#008c3c" d="M579.5 211.27q-67.64-26.47-133.42-37.52-42.55-7.14-81.83-8.12c-15.19-.38-30.59-.4-45.74.39q-45.16 2.34-86.26 10.5-69.28 13.75-134.35 41.63a.03.03 0 0 1-.03-.06q1.09-.77 2.17-1.4 10.2-5.89 24.69-12.92c47.57-23.07 99.31-37.93 152.25-44.74q26.29-3.38 48.85-4.07 21.96-.67 43.22-.03 15.89.48 39.6 3.14 74.02 8.29 141.42 36.97c12.05 5.13 24.76 11.64 36.66 17.65q4.27 2.16 8.31 4.71.18.12.08.3v.01q-.1.19-.3.1-8.12-3.73-15.32-6.54Z"/>
  <path fill="#004e92" d="M480.25 189.1q.05.01.09.02.02 0 .04.01.05.02.01.05-.06.03-.12.02-9.49-1.22-19.77-2.45-54.8-6.54-105.06-5.08-30.12.87-63.61 5.02-32.93 4.08-74.29 13.16c-4.02.88-10.24 1.97-11.96-3.26q-.2-.59.06-1.15c2.31-5.03 10.66-7.45 16.33-8.59q48.9-9.85 97.02-12.49 32.28-1.78 64.68.38 37.38 2.49 77.55 10.18 9.99 1.92 19.03 4.18Z"/>
  <path fill="#1e1916" d="m353.86 219.88 12.14-8.06a.91.91 0 0 1 1.21.18l2.6 3.25a.51.51 0 0 1-.26.81l-15.37 4.39q-2.05.59-.32-.57ZM238.69 216.31q3.98-2.51 8.06-3.28 2.63-.49.63 1.27l-8.85 7.82a.37.35 44.9 0 1-.49-.01l-9.07-8.09q-1.71-1.52.54-1.07 4.53.9 7.94 3.33.61.43 1.24.03ZM74.55 225.12q.03 16.24.01 31.88 0 3.81 2.99 5.69 1.67 1.05-.3 1.05H65.26q-1.72 0-.38-1.07c1.99-1.59 2.43-3.89 2.43-6.28q-.02-14.87-.04-30.75 0-3.78-2.52-6.05-.69-.62.23-.59 8.98.24 19.24.23 2.66-.01 6.71 1.51c8.07 3.02 10.15 12.75 3.45 18.47q-6.95 5.92-16.52 3.99-.26-.05-.49-.24-.58-.47.17-.5c5.46-.18 11.54-3.37 12.27-9.23 1.12-9.07-8.24-9.8-14.53-8.95q-.73.1-.73.84ZM279.86 246.54q-5.11-1.93-8.99-4.18c-7.63-4.43-7.74-14.07.9-17.51q8.8-3.51 19.13-.53a.39.38 8 0 1 .28.37l.07 6.05a.22.22 0 0 1-.35.18q-7.19-5.2-14.48-2.71c-4.85 1.66-4.79 7.02-.43 9.34q5.81 3.09 11.84 5.86 7.33 3.37 6.96 9.36-.28 4.46-4.39 7.67c-6.57 5.14-16.08 4.9-23.81 2.61q-.61-.18-.76-.81l-1.54-6.47a.28.28 0 0 1 .44-.28c5.55 4.32 13.51 6.13 20.04 2.9 3.47-1.72 3.65-6.06.98-8.48q-2.17-1.97-5.89-3.37ZM113.52 258.7c7.03.2 12.79 1.82 19.03-2.67q1.19-.86.69.52-1.17 3.18-3 6.74-.22.45-.73.45l-25.01-.01q-1.34 0-.26-.8c1.98-1.47 2.33-3.19 2.32-5.46q-.03-12.39-.06-25.47c0-2.8.31-5.81-2.38-7.62q-.67-.45.13-.45h11q.61 0 .13.38-2.26 1.8-2.27 4.68-.02 14.41-.04 29.24 0 .45.45.47ZM159.16 229.09q-5.91-.45-11.79-.66c-2.56-.09-4.78.52-6.92 1.94q-1.83 1.22-.83-.74l2.58-5.06q.29-.58.94-.58l27.13-.07a.44.44 0 0 1 .36.69l-22.54 33.4a.42.41 18.6 0 0 .33.65c3 .13 6.01-.03 8.97.35q8.78 1.14 15.94-2.67 1.17-.62.59.56l-3.07 6.33q-.25.51-.81.51h-33.06a.33.33 0 0 1-.27-.52l22.75-33.5a.4.4 0 0 0-.3-.63ZM190.42 258.55q6.22.74 10.63.65 4.22-.09 8.08-2.89 1.3-.95.72.56l-2.47 6.4q-.19.47-.69.47h-25.3q-1.28 0-.26-.77c2.36-1.76 2.2-4 2.22-6.77q.09-13.12-.11-27.7-.02-1.62-1.03-3.05-.37-.52-.94-.81-.16-.08-.29-.2-.53-.51.2-.51l22.71.03q.43 0 .44.43l.09 5.66a.46.46 0 0 1-.74.37c-3.54-2.77-8.89-2.02-13.25-1.86a.7.7 0 0 0-.67.7v10a.51.5-90 0 0 .5.51l9.77.04q.47 0 .48.47l.08 5q.01.75-.57.28c-2.21-1.78-7.08-1.42-9.81-1.26a.46.46 0 0 0-.44.46l-.02 13.03q0 .68.67.76ZM223.71 233.59q.04 11.36.05 24.01c0 1.67.45 3.82 1.95 4.79q2.55 1.65-.48 1.46-4.15-.25-8.73-.01-1.39.07-.34-.84c1.3-1.11 2.61-2.28 2.61-4.08q0-14.59.01-30.46c0-1.64-1.3-2.96-2.55-3.89q-.97-.73.24-.7l7.61.15q.62.01 1.02.48l24.69 29.18q.88 1.03.85-.33-.25-11.61-.03-23.05c.05-2.63-.94-4.32-2.84-5.89q-.86-.71.25-.62 4.97.42 10-.01a.1.1 0 0 1 .08.17q-3.1 3.41-3.07 6.05.23 18.96.18 34.97 0 .55-.52.38-4.79-1.62-8.76-6.35-10.94-13.09-21.56-25.65-.66-.79-.66.24ZM305.11 259.06q.25-13.78.06-29.63-.04-3.36-2.34-5.11-.83-.63.2-.55 5.5.43 10.8.02.9-.08.3.6l-1.4 1.58a1.06 1.04 71.1 0 0-.26.54q-.43 2.59-.46 5.24-.14 12.87.02 25.75.03 2.02.55 3.92a1.46 1.44 8.6 0 0 .63.84q.59.38 1.02.91.5.6-.28.6l-10.35-.03q-1.59 0-.33-.97 1.8-1.4 1.84-3.71Z"/>
  <path fill="#1e1916" d="M320 242.38q6.16 7.24 12.64 15.34 2.78 3.48 7.02 5.1.34.13.44.48a.46.45 83 0 1-.45.58c-4.57-.16-9.98.48-13.15-3.55q-6.62-8.41-13.48-16.77-.35-.42-.01-.86 4.56-5.89 9.28-11.61c1.46-1.78 4-4.45 1.23-6.53q-.84-.64.22-.64h10.33a.33.33 0 0 1 .25.54L320 241.35a.81.8 45.3 0 0 0 1.03ZM360.55 241.1a.31.31 0 0 0 .41-.08q4.14-6.02 8.15-11.67 1.31-1.85.21-3.86a1.44 1.36 6.4 0 0-.34-.4l-.89-.71q-.88-.7.24-.61 5 .42 9.6.01a.56.56 0 0 1 .5.89l-15.01 21q-.36.5-.37 1.12-.1 5.94.1 12.06c.05 1.45.91 2.62 2.04 3.45q1.92 1.4-.46 1.41l-10 .08q-1.64.01-.33-.98 1.85-1.39 1.88-3.84.07-6.27.03-12.2 0-.59-.33-1.07-6.13-9.08-11.77-17.45c-1.11-1.65-2.28-2.73-3.87-3.88q-.85-.62.2-.58l6.66.24a3.87 3.85-15.8 0 1 3.04 1.69q5 7.42 9.53 14.6.31.48.78.78ZM406.45 259.1c.02 1.65.78 2.92 2.06 3.97q.82.69-.25.69l-10.98-.02a.17.17 0 0 1-.13-.29q2.24-2.36 2.27-4.24.3-15.71.01-31.2-.04-1.97-2.26-3.72-.74-.58.19-.5 5.39.43 10.78-.01.86-.07.25.54-1.88 1.89-1.92 4.35-.19 14.05-.02 30.43Z"/>
  <path fill="#1e1916" d="M414.35 242.3q6.39 7.63 12.82 15.61 2.64 3.28 6.77 4.85.2.07.33.22.13.16.14.36a.49.49 0 0 1-.51.53q-3.94-.09-7.68-.43c-2.6-.24-4.14-1.44-5.81-3.6q-5.87-7.58-12.49-15.66a1.8 1.8 0 0 1 0-2.28q4.83-5.95 10.21-12.67 2.05-2.57-.48-5.22-.09-.1.04-.1l10.59-.01a.41.41 0 0 1 .31.68l-14.23 16.81q-.39.45-.01.91ZM456.85 245.08c5.62 6.58 10.27 12.85 17.72 17.59q2.01 1.28-.37 1.16l-5.81-.27q-3.06-.15-5.16-2.38-7.47-7.95-14.09-17.49-.5-.73.38-.83c4.71-.55 10.47-3.44 10.35-8.92-.13-5.98-7.48-6.77-12.01-5.75a.75.75 0 0 0-.59.73q-.07 14.94.03 29.37.02 3.02 2.21 4.92.64.56-.21.56l-10.3-.05q-1.36 0-.26-.8 1.9-1.38 1.93-4.54.17-13.16.03-27.28c-.03-2.89.22-4.94-2.38-6.73q-.73-.5.16-.49 8.69.09 17.77.34c3.32.1 6.9 2.13 8.69 5.01 4.22 6.75-1.12 13-7.78 14.84a.63.63 0 0 0-.31 1.01Z"/>
  <path fill="#1e1916" d="m505.74 248.65-14.79.07q-.49 0-.67.47-1.79 4.58-3.57 9.16c-.67 1.73-1.05 3.25.8 4.57q1.17.83-.26.83l-9.47.01q-1.67 0-.28-.93 2.63-1.77 3.93-4.81 6.44-15.05 12.86-30.27.79-1.88-.79-3.02-1.12-.81.26-.8h8.1a1.35 1.35 0 0 1 1.24.82q7.5 17.28 14.29 32.89 1.39 3.2 4.17 5.16 1.72 1.21-.38 1.06-5.13-.35-10.53 0-1.93.13-.33-.96.62-.42 1.09-.98.41-.49.17-1.08l-4.57-11.34q-.35-.86-1.27-.85Zm-13.39-4.96a.4.4 0 0 0 .37.55l11.45.06a.4.4 0 0 0 .37-.55l-5.65-13.67a.4.4 0 0 0-.74 0l-5.8 13.61Z"/>
  <path fill="#1e1916" d="M519.84 276.9c4.32-2.28 7.41-6.42 7.42-11.39q.05-15.41.01-36.68c0-1.82-1.09-3.29-2.37-4.47q-.69-.64.25-.57 5.33.36 10.7-.04.86-.07.36.63c-1.2 1.68-2.17 1.77-2.18 4.25q-.08 18.27-.06 36.8c.01 8.87-6.63 10.92-13.74 12.29q-.33.07-.53-.19a.43.42 57.7 0 1 .14-.63Z"/>
  <path fill="#f5f5f5" d="m492.35 243.69 5.8-13.61a.4.4 0 0 1 .74 0l5.65 13.67a.4.4 0 0 1-.37.55l-11.45-.06a.4.4 0 0 1-.37-.55Z"/>
</svg>
