<svg xmlns="http://www.w3.org/2000/svg" viewBox="0 160.11 393.66 72.9">
  <path fill="#fe0033" d="M0 198.38v-3.9q2.35-20.12 18.1-29.23c14.53-8.41 31.79-6.31 43.99 4.94a.49.47 29.7 0 1 .14.47l-2.01 7.57a.15.14-58.2 0 1-.25.06q-9.13-10.8-22.66-11.12c-12.25-.28-23.35 7.06-27.98 18.35-3.75 9.16-2.52 18.9 2.74 27.48q.16.26.42.09.31-.2.4-.55 1.02-3.81 2.06-7.75a.58.58 0 0 1 .56-.44l38.23-.02q.59 0 .38.56-2.15 5.59-7.63 8.14-2.66 1.23-8.25 1.19-12.69-.11-24.58-.14a.38.38 0 0 0-.29.62q9.17 10.87 22.59 11.24c23.72.66 38.43-25.31 25.68-45.32q-.76-1.2-1.12.17l-1.95 7.4q-.15.57-.74.57H20.24q-1.15 0-.68-1.06 2.24-4.96 7.09-7.45 2.54-1.3 8.42-1.22 17.11.23 33.33.02.53 0 .77.46c7.47 14.56 4.98 31.67-6.81 43.11-13.44 13.06-34.24 13.84-48.82 2.14Q1.64 215.19 0 198.38Z"/>
  <g fill="#fe0033">
    <path d="m114.3 170.78 4.2-3.31a.32.32 0 0 1 .2-.07l10.37-.13a.32.32 0 0 1 .2.57l-8.7 6.84a.32.32 0 0 1-.2.07l-14.76.01a.32.32 0 0 1-.27-.15l-4.12-6.78a.32.32 0 0 1 .27-.49l10.33.03a.32.32 0 0 1 .28.17l1.72 3.14a.32.32 0 0 0 .48.1ZM284.31 213.71l11.47-42.64a.34.34 0 0 1 .33-.25l16.44-.01a.34.34 0 0 1 .32.43l-11.46 42.63a.34.34 0 0 1-.33.25l-16.45.02a.34.34 0 0 1-.32-.43ZM326.08 200.74c-.88 2.15.43 4.41 2.73 4.73q2.93.42 5.98.24 8.02-.48 14.71-2.11a.04.03-85.3 0 1 .04.05q-2.07 4.25-4.44 8.81a.64.62 5.9 0 1-.42.33q-10.51 2.57-20.54 2.47c-8.64-.09-16.37-2.94-15.24-13.37 1.11-10.23 5.47-21.77 16.94-23.26q10.32-1.34 18.81.27c12.64 2.4 10.75 12 7.25 20.97a.94.94 0 0 1-.88.61l-24.49-.04a.49.48 10.7 0 0-.45.3Zm7.16-13.55a1.21 1.21 0 0 0-.88.28l-3.88 3.29a1.21 1.21 0 0 0 .79 2.13l10.25-.09a1.21 1.21 0 0 0 1.13-1.62l-.98-2.76a1.21 1.21 0 0 0-1.04-.8l-5.39-.43ZM107.39 202.87q-.23-1.4-1.65-1.31c-6.85.44-18.06 2.01-17.07-8.71 1.2-13.12 11.67-14.7 22.5-14.49q10.43.21 19.14 1.44.63.09.46.69l-2.48 9.02q-.16.57-.73.48c-5.99-.89-12.83-1.63-18.6-.42a1.68 1.67-77.4 0 0-1 .64q-1.34 1.78.59 2.76a1.65 1.62 55 0 0 .86.16c6.28-.61 18-2.35 16.79 8.15-1.44 12.52-11.39 13.89-21.66 13.71q-10.02-.17-19.88-1.42a.34.33 11.1 0 1-.29-.42l2.3-8.63q.09-.34.44-.28 8.23 1.62 17.25.87 1.86-.16 2.87-1.56.22-.3.16-.68ZM268.24 193.11c-3.56 1.67-7.27 9.49-.44 10.22q6.48.7 15.05-1.09a.13.13 0 0 1 .15.16l-2.79 10.38q-.08.3-.39.36-9.09 1.9-19.18 2.09-1.7.04-5.59-.68c-12.75-2.35-8.77-16.3-5.43-24.5q4.57-11.2 16.1-11.72 13.33-.59 22.64 1.66.65.16.48.81l-3.02 11.24q-.19.7-.91.58c-4.86-.85-12.15-1.64-16.67.49ZM376.25 186.37q.82-1.35 1.74-2.78c3.2-5.01 9.23-6.2 15.12-4.59q.69.2.51.89l-4.66 17.37a.61.61 0 0 1-.72.44c-6.03-1.35-13.52-1.91-15.91 5.47q-1.65 5.05-2.93 10.41-.13.54-.69.54l-16.18.02q-.36 0-.27-.35l9.28-34.18a.5.5 0 0 1 .48-.37l15.08-.02q.69 0 .47.66l-2.07 6.33q-.03.09.06.14l.23.13q.28.17.46-.11ZM152.09 185.26q4.58-7.97 15.07-6.6 7.24.94 7.8 7.35.18 2.06 1.17.24 4.65-8.57 14.68-7.74c9.49.78 9.72 7.38 7.65 14.73q-2.78 9.86-5.56 20.24a.86.86 0 0 1-.83.64l-15.27.02q-.46 0-.34-.44 2-7.33 4.05-15.13c.68-2.61-.97-5.35-3.98-4.49q-3.26.94-4.19 4.17-2.12 7.34-4.18 15.34-.13.53-.67.53l-15.63.02a.24.23 8.2 0 1-.23-.3q2.43-8.48 4.08-15.33.97-3.98-2.96-4.52-.57-.07-1.07.12-3.34 1.25-4.12 3.98-2.15 7.58-4.21 15.41-.16.63-.81.63h-15.05q-.66 0-.49-.64l9.05-33.56a.9.9 0 0 1 .87-.67l15.3-.05a.53.52-81.7 0 1 .5.68l-1.58 5.4q-.08.25.13.43.21.18.44-.02a1.84 1.31-13.7 0 0 .38-.44ZM212.07 215.04c-6.95-.7-13.64-3.76-11.34-12.43q3.09-11.68 6.24-23.12a.33.33 0 0 1 .32-.24l15.94-.01a.6.59-82.5 0 1 .57.75l-5.6 20.8q-.92 3.4 2.6 3.57l.33.01q3.55.17 4.47-3.25l5.77-21.4q.13-.49.64-.49l15.82.01q.63 0 .47.6-3.13 11.8-6.42 23.85c-3.29 12.03-19.07 12.42-29.81 11.35ZM54.78 201.41l-38.55.01a.3.3 0 0 1-.29-.38l2.51-9.09a.3.3 0 0 1 .29-.22l38.5-.02a.3.3 0 0 1 .29.38l-2.46 9.1a.3.3 0 0 1-.29.22Z"/>
  </g>
</svg>
