<?xml version="1.0" encoding="utf-8"?>
<!-- Generator: Adobe Illustrator 21.0.2, SVG Export Plug-In . SVG Version: 6.00 Build 0)  -->
<svg xmlns="http://www.w3.org/2000/svg" xmlns:xlink="http://www.w3.org/1999/xlink" viewBox="0 0 80 80" width="480px" height="480px">
<g>
	<path style="fill:#BAE0BD;" d="M40,77.5C19.3,77.5,2.5,60.7,2.5,40S19.3,2.5,40,2.5S77.5,19.3,77.5,40S60.7,77.5,40,77.5z"/>
	<g>
		<path style="fill:#5E9C76;" d="M40,3c20.4,0,37,16.6,37,37S60.4,77,40,77S3,60.4,3,40S19.6,3,40,3 M40,2C19,2,2,19,2,40    s17,38,38,38s38-17,38-38S61,2,40,2L40,2z"/>
	</g>
</g>
<polygon style="fill:#FFFFFF;" points="34,56 20.2,42.2 24.5,38 34,47.6 58.2,23.4 62.5,27.6 "/>
</svg>