<?xml version="1.0" encoding="UTF-8"?><svg id="Vrstva_1" xmlns="http://www.w3.org/2000/svg" viewBox="0 0 1280 1024"><defs><style>.cls-1,.cls-2{stroke-width:0px;}.cls-2{fill:#fff;}</style></defs><rect class="cls-2" x="263.05" y="231.21" width="753.9" height="561.58"/><path class="cls-1" d="m1019.72,795.56H260.28V228.44h759.45v567.13Zm-753.9-5.55h748.35V233.99H265.83v556.03Z"/><path class="cls-1" d="m329.62,307.66v15.36h70.29v15.46h-70.29v15.46h75.05v15.9h-95.6v-78.08h95.6v15.9h-75.05Z"/><path class="cls-1" d="m506.22,369.84l-9.19-15.68h-55.15l-9.73,15.68h-22.06l49.75-78.08h21.19l47.26,78.08h-22.06Zm-18.49-31.58l-17.52-29.95-18.6,29.95h36.12Z"/><path class="cls-1" d="m534.66,364.54v-17.3l.65-.32c14.6,5.52,30.06,8,51.48,8,22.93,0,32.66-3.68,32.66-8.98,0-15.68-85.22,4.98-85.22-32.01,0-16,17.63-24.44,51.37-24.44,16.87,0,32.33,2.05,46.61,6.27v16.44l-.65.22c-14.92-4.43-30.17-6.71-45.53-6.71-21.95,0-31.25,2.7-31.25,7.57,0,15.68,85.22-4.33,85.22,32.12,0,17.84-15.9,25.74-54.39,25.74-19.68,0-37.63-2.38-50.93-6.6Z"/><path class="cls-1" d="m711.26,307.66v62.18h-20.55v-62.18h-45.85v-15.9h112.36v15.9h-45.96Z"/><path class="cls-1" d="m788.59,307.66v15.36h70.29v15.46h-70.29v15.46h75.05v15.9h-95.6v-78.08h95.6v15.9h-75.05Z"/><path class="cls-1" d="m955.78,369.84l-26.17-25.41h-31.36v25.41h-20.55v-78.08h57.86c17.52,0,43.04,1.41,43.04,24.66,0,14.06-9.41,23.14-26.49,26.17l28.98,26.82-.33.43h-24.98Zm-22.06-41.63c11.25,0,16.33-.76,19.68-2.38,3.24-1.62,4.65-4.11,4.65-7.68,0-3.78-1.51-6.38-4.87-8-3.35-1.51-8.44-2.16-20.12-2.16h-34.82v20.22h35.47Z"/><path class="cls-1" d="m299.25,513.08c0-51.62,44.86-82.11,120.44-82.11,35.72,0,65.34,6.75,93.65,21.34v35.28l-1.31.22c-30.49-16.77-58.58-24.18-90.82-24.18-50.75,0-80.58,18.51-80.58,49.87s29.4,49,79.93,49c32.23,0,60.11-7.41,91.47-24.17l1.09.22v35.28c-29.18,15.03-56.19,21.34-91.47,21.34-77.1,0-122.4-30.27-122.4-82.11Z"/><path class="cls-1" d="m544.7,507.42v-72.09h41.38v75.14c0,34.63,18.73,52.05,56.41,52.05s56.41-17.42,56.41-52.05v-75.14h41.38v72.09c0,60.98-34.63,87.77-97.79,87.77s-97.79-26.79-97.79-87.77Z"/><path class="cls-1" d="m821.31,544.66v47.91h-41.38v-157.24h118.26c37.02,0,85.59,6.32,85.59,53.58s-47.26,55.75-85.16,55.75h-77.32Zm70.35-32.67c22.87,0,33.54-1.52,40.51-5.01,6.75-3.48,9.58-9.15,9.58-17.21s-2.83-13.29-9.58-16.77c-6.75-3.49-17.42-5.01-40.51-5.01h-70.35v43.99h70.35Z"/><path class="cls-1" d="m347.64,692.29l48.15,41.81-.19.38h-12.11l-43.25-37.77-21.63,12.88v24.89h-8.65v-69.39h8.65v35.08l60.07-35.08h13.65l.19.38-44.88,26.82Z"/><path class="cls-1" d="m404.94,734.48v-69.39h8.65v62.19h70.55v7.21h-79.2Z"/><path class="cls-1" d="m584.58,734.48l-11.73-17.4h-60.46l-11.73,17.4h-10.28l47.29-69.39h9.9l47.29,69.39h-10.28Zm-16.53-24.6l-25.37-37.68-25.47,37.68h50.84Z"/><path class="cls-1" d="m635.63,672.48v61.99h-8.65v-61.99h-44.12v-7.4h96.98v7.4h-44.21Z"/><path class="cls-1" d="m684.19,699.4c0-22.39,19.42-36.23,52.67-36.23s52.67,13.84,52.67,36.23-19.41,36.23-52.67,36.23-52.67-13.84-52.67-36.23Zm96.21,0c0-17.78-15.47-28.83-43.54-28.83s-43.54,11.05-43.54,28.83,15.47,28.83,43.54,28.83,43.54-11.05,43.54-28.83Z"/><path class="cls-1" d="m837.51,734.48l-46.52-69.01.19-.38h9.8l41.52,62.28,41.43-62.28h9.8l.19.38-46.52,69.01h-9.9Z"/><path class="cls-1" d="m945.27,734.48h-8.65v-20.86l-42.67-48.15.19-.38h10.09l36.72,41.33,36.72-41.33h10.09l.19.38-42.67,48.15v20.86Z"/></svg>